<svg id="Finished" xmlns="http://www.w3.org/2000/svg" viewBox="0 0 232 96"><defs><style>.cls-1{fill:#4df4e4;}.cls-2{fill:red;}.cls-3{fill:#fff;}</style></defs><path class="cls-1" d="M95.93,34.48c-8.16,8.44-16.75,16.9-25.2,25.37,9.46,15.66-4.47,35.89-22.11,32.43a23.48,23.48,0,0,0,2.57-1.72c16.12,1,26.1-17.07,17.12-31.11,8.27-8.34,16.83-16.71,24.84-25Z"/><path class="cls-1" d="M63.42,71.11a11,11,0,0,1-4.16,8.54C62,73,61.7,68.58,58.91,62A11.15,11.15,0,0,1,63.42,71.11Z"/><path class="cls-1" d="M231.71,25.14c.43,13.15-12.65,23.5-25.49,21.28a22.33,22.33,0,0,0,2.71-1.74c27.55.3,27.3-39.77.18-39.23a22.13,22.13,0,0,0-2.57-1.72C219.37,1.3,232,11.82,231.71,25.14Z"/><path class="cls-1" d="M221.31,25.21A11.06,11.06,0,0,1,217.93,33h0a7.56,7.56,0,0,1-.68.59,21.39,21.39,0,0,0-.1-17.28A11.18,11.18,0,0,1,221.31,25.21Z"/><path class="cls-2" d="M73.46,19c-.7.59-1.31,1.33-2,2C61.87,19.43,59.3,25.92,53.2,31.47,48,36.52,42.86,42,37.88,47.1,37,47,36.06,47,35.16,47c5.42-5.6,11-11.48,16.63-17C59.57,22.43,61.18,17.57,73.46,19Z"/><path class="cls-2" d="M24.21,92.4C-6.62,95.8-9.06,47.5,23,50.12A19.37,19.37,0,0,0,20.32,52C-5.4,52.1-3.16,91,21.45,90.6A24.15,24.15,0,0,0,24.21,92.4Z"/><path class="cls-2" d="M12.89,78.28a10.67,10.67,0,0,1-.11-14.41A25.16,25.16,0,0,0,12.89,78.28Z"/><path class="cls-2" d="M182,46.42c-9.11,1.44-16.63-2.64-21.94-11.9h2.33c4.38,7.05,10.22,10.51,17.16,10.15A22.36,22.36,0,0,0,182,46.42Z"/><path class="cls-2" d="M182,3.62a22.56,22.56,0,0,0-2.76,1.8c-7.13-.09-14.38,4.06-17.38,10.64h-2.21C163.16,7.4,173,2.29,182,3.62Z"/><path class="cls-3" d="M44.91,65.61C37.69,53.89,19.72,66.05,28.13,77,35.85,87.07,51.58,76.5,44.91,65.61ZM40.26,75.67C34.85,80.4,26.34,72.35,31.68,67,37.5,60.43,46.73,70,40.26,75.67Zm162.49-56c-6.56-10.73-23.46-1.35-17.75,9.85C191.62,41.82,209.92,31.76,202.75,19.66Zm-4.3,9.79c-5.28,5.33-14.27-2.78-9-8.39C195,14.72,204.4,23.53,198.45,29.45Zm4.3-9.79c-6.56-10.73-23.46-1.35-17.75,9.85C191.62,41.82,209.92,31.76,202.75,19.66Zm-4.3,9.79c-5.28,5.33-14.27-2.78-9-8.39C195,14.72,204.4,23.53,198.45,29.45ZM44.91,65.61C37.69,53.89,19.72,66.05,28.13,77,35.85,87.07,51.58,76.5,44.91,65.61ZM40.26,75.67C34.85,80.4,26.34,72.35,31.68,67,37.5,60.43,46.73,70,40.26,75.67Zm4.65-10.06C37.69,53.89,19.72,66.05,28.13,77,35.85,87.07,51.58,76.5,44.91,65.61ZM40.26,75.67C34.85,80.4,26.34,72.35,31.68,67,37.5,60.43,46.73,70,40.26,75.67Zm162.49-56c-6.56-10.73-23.46-1.35-17.75,9.85C191.62,41.82,209.92,31.76,202.75,19.66Zm-4.3,9.79c-5.28,5.33-14.27-2.78-9-8.39C195,14.72,204.4,23.53,198.45,29.45Zm4.3-9.79c-6.56-10.73-23.46-1.35-17.75,9.85C191.62,41.82,209.92,31.76,202.75,19.66Zm-4.3,9.79c-5.28,5.33-14.27-2.78-9-8.39C195,14.72,204.4,23.53,198.45,29.45ZM61.84,51.33l.14,0,4.58-4.74C65,48.18,63.44,49.74,61.84,51.33Zm-1.65,15a9.13,9.13,0,0,0-5.53-4.25c2.72,6.42,2.8,12,.27,17.57C61.15,78.11,61.5,71.71,60.19,66.36Zm-15.28-.75C37.69,53.89,19.72,66.05,28.13,77,35.85,87.07,51.58,76.5,44.91,65.61ZM40.26,75.67C34.85,80.4,26.34,72.35,31.68,67,37.5,60.43,46.73,70,40.26,75.67ZM17.42,62.74c-7,3.07-7.11,13.48,0,16.46A21.13,21.13,0,0,1,17.42,62.74Zm27.49,2.87C37.69,53.89,19.72,66.05,28.13,77,35.85,87.07,51.58,76.5,44.91,65.61ZM40.26,75.67C34.85,80.4,26.34,72.35,31.68,67,37.5,60.43,46.73,70,40.26,75.67Zm162.49-56c-6.56-10.73-23.46-1.35-17.75,9.85C191.62,41.82,209.92,31.76,202.75,19.66Zm-4.3,9.79c-5.28,5.33-14.27-2.78-9-8.39C195,14.72,204.4,23.53,198.45,29.45Zm4.3-9.79c-6.56-10.73-23.46-1.35-17.75,9.85C191.62,41.82,209.92,31.76,202.75,19.66Zm-4.3,9.79c-5.28,5.33-14.27-2.78-9-8.39C195,14.72,204.4,23.53,198.45,29.45ZM61.84,51.33l.14,0,4.58-4.74C65,48.18,63.44,49.74,61.84,51.33Zm-1.65,15a9.13,9.13,0,0,0-5.53-4.25c2.72,6.42,2.8,12,.27,17.57C61.15,78.11,61.5,71.71,60.19,66.36Zm-15.28-.75C37.69,53.89,19.72,66.05,28.13,77,35.85,87.07,51.58,76.5,44.91,65.61ZM40.26,75.67C34.85,80.4,26.34,72.35,31.68,67,37.5,60.43,46.73,70,40.26,75.67ZM17.42,62.74c-7,3.07-7.11,13.48,0,16.46A21.13,21.13,0,0,1,17.42,62.74Zm27.49,2.87C37.69,53.89,19.72,66.05,28.13,77,35.85,87.07,51.58,76.5,44.91,65.61ZM40.26,75.67C34.85,80.4,26.34,72.35,31.68,67,37.5,60.43,46.73,70,40.26,75.67Zm162.49-56c-6.56-10.73-23.46-1.35-17.75,9.85C191.62,41.82,209.92,31.76,202.75,19.66Zm-4.3,9.79c-5.28,5.33-14.27-2.78-9-8.39C195,14.72,204.4,23.53,198.45,29.45Zm4.3-9.79c-6.56-10.73-23.46-1.35-17.75,9.85C191.62,41.82,209.92,31.76,202.75,19.66Zm-4.3,9.79c-5.28,5.33-14.27-2.78-9-8.39C195,14.72,204.4,23.53,198.45,29.45ZM172.73,18.56a10.08,10.08,0,0,0-1.27,1.5h2.9a30,30,0,0,1,1.15-3.39A9.71,9.71,0,0,0,172.73,18.56Zm1.91,13-.49-1h-2.33a9.51,9.51,0,0,0,3.8,2.91C175.28,32.81,175,32.18,174.64,31.52ZM61.84,51.33l.14,0,4.58-4.74C65,48.18,63.44,49.74,61.84,51.33Zm-1.65,15a9.13,9.13,0,0,0-5.53-4.25c2.72,6.42,2.8,12,.27,17.57C61.15,78.11,61.5,71.71,60.19,66.36Zm-15.28-.75C37.69,53.89,19.72,66.05,28.13,77,35.85,87.07,51.58,76.5,44.91,65.61ZM40.26,75.67C34.85,80.4,26.34,72.35,31.68,67,37.5,60.43,46.73,70,40.26,75.67ZM17.42,62.74c-7,3.07-7.11,13.48,0,16.46A21.13,21.13,0,0,1,17.42,62.74Zm27.49,2.87C37.69,53.89,19.72,66.05,28.13,77,35.85,87.07,51.58,76.5,44.91,65.61ZM40.26,75.67C34.85,80.4,26.34,72.35,31.68,67,37.5,60.43,46.73,70,40.26,75.67Zm162.49-56c-6.56-10.73-23.46-1.35-17.75,9.85C191.62,41.82,209.92,31.76,202.75,19.66Zm-4.3,9.79c-5.28,5.33-14.27-2.78-9-8.39C195,14.72,204.4,23.53,198.45,29.45ZM218.38,21a9.26,9.26,0,0,0-5.61-4.76,21.14,21.14,0,0,1,.07,17.49C218.7,32.32,219.45,26.07,218.38,21Zm-15.63-1.37c-6.56-10.73-23.46-1.35-17.75,9.85C191.62,41.82,209.92,31.76,202.75,19.66Zm-4.3,9.79c-5.28,5.33-14.27-2.78-9-8.39C195,14.72,204.4,23.53,198.45,29.45ZM177.17,36a39.13,39.13,0,0,1-3-5.46c-3,0-10.8,0-13.88,0a37.89,37.89,0,0,0,2.15,4h9.24a31.49,31.49,0,0,0,7.92,10.15,22.06,22.06,0,0,0,5.59-1A22.68,22.68,0,0,1,177.17,36Zm7.1-29.87a20.19,20.19,0,0,0-5-.68,23.61,23.61,0,0,0-7.82,10.64h-9.56a23.86,23.86,0,0,0-1.49,4h14a20,20,0,0,1,11-13.65C185,6.3,184.63,6.19,184.27,6.1ZM87.62,30.44c-9.43.14-14.24,10.84-21.06,16.18-4.3,4.32-8.72,8.67-13,13,6.23,10.82,3.07,24.24-8,29.74a19.17,19.17,0,0,0,5.62,1.17c9.22-6.72,12-19.78,7.13-30.06,7.91-7.93,15.93-15.82,23.55-23.71,2.78-3.3,7.41-2.16,11.28-2.32a15.67,15.67,0,0,1,5-4ZM71.49,21C62.66,30,53.62,39,45,48.08a50.56,50.56,0,0,0-7.1-1c.12-.14-3.77,3.92-3.82,4a43.65,43.65,0,0,1,12.25,1.4C56.55,42,66.67,31,77.45,21ZM44.91,65.61C37.69,53.89,19.72,66.05,28.13,77,35.85,87.07,51.58,76.5,44.91,65.61ZM40.26,75.67C34.85,80.4,26.34,72.35,31.68,67,37.5,60.43,46.73,70,40.26,75.67Zm-18,10.44C12,77.23,14.38,58,27,52.61c-6.89-2-9.35,1-12.48,7-5.43,10.32-2.5,24.08,7,31a19.22,19.22,0,0,0,6-1A20.75,20.75,0,0,1,22.3,86.11Zm22.61-20.5C37.69,53.89,19.72,66.05,28.13,77,35.85,87.07,51.58,76.5,44.91,65.61ZM40.26,75.67C34.85,80.4,26.34,72.35,31.68,67,37.5,60.43,46.73,70,40.26,75.67Zm162.49-56c-6.56-10.73-23.46-1.35-17.75,9.85C191.62,41.82,209.92,31.76,202.75,19.66Zm-4.3,9.79c-5.28,5.33-14.27-2.78-9-8.39C195,14.72,204.4,23.53,198.45,29.45ZM218.38,21a9.26,9.26,0,0,0-5.61-4.76,21.14,21.14,0,0,1,.07,17.49C218.7,32.32,219.45,26.07,218.38,21Zm-15.63-1.37c-6.56-10.73-23.46-1.35-17.75,9.85C191.62,41.82,209.92,31.76,202.75,19.66Zm-4.3,9.79c-5.28,5.33-14.27-2.78-9-8.39C195,14.72,204.4,23.53,198.45,29.45ZM177.17,36a39.13,39.13,0,0,1-3-5.46c-3,0-10.8,0-13.88,0a37.89,37.89,0,0,0,2.15,4h9.24a31.49,31.49,0,0,0,7.92,10.15,22.06,22.06,0,0,0,5.59-1A22.68,22.68,0,0,1,177.17,36Zm7.1-29.87a20.19,20.19,0,0,0-5-.68,23.61,23.61,0,0,0-7.82,10.64h-9.56a23.86,23.86,0,0,0-1.49,4h14a20,20,0,0,1,11-13.65C185,6.3,184.63,6.19,184.27,6.1ZM87.62,30.44c-9.43.14-14.24,10.84-21.06,16.18-4.3,4.32-8.72,8.67-13,13,6.23,10.82,3.07,24.24-8,29.74a19.17,19.17,0,0,0,5.62,1.17c9.22-6.72,12-19.78,7.13-30.06,7.91-7.93,15.93-15.82,23.55-23.71,2.78-3.3,7.41-2.16,11.28-2.32a15.67,15.67,0,0,1,5-4ZM71.49,21C62.66,30,53.62,39,45,48.08a50.56,50.56,0,0,0-7.1-1c.12-.14-3.77,3.92-3.82,4a43.65,43.65,0,0,1,12.25,1.4C56.55,42,66.67,31,77.45,21ZM44.91,65.61C37.69,53.89,19.72,66.05,28.13,77,35.85,87.07,51.58,76.5,44.91,65.61ZM40.26,75.67C34.85,80.4,26.34,72.35,31.68,67,37.5,60.43,46.73,70,40.26,75.67Zm-18,10.44C12,77.23,14.38,58,27,52.61c-6.89-2-9.35,1-12.48,7-5.43,10.32-2.5,24.08,7,31a19.22,19.22,0,0,0,6-1A20.75,20.75,0,0,1,22.3,86.11Zm22.61-20.5C37.69,53.89,19.72,66.05,28.13,77,35.85,87.07,51.58,76.5,44.91,65.61ZM40.26,75.67C34.85,80.4,26.34,72.35,31.68,67,37.5,60.43,46.73,70,40.26,75.67Zm162.49-56c-6.56-10.73-23.46-1.35-17.75,9.85C191.62,41.82,209.92,31.76,202.75,19.66Zm-4.3,9.79c-5.28,5.33-14.27-2.78-9-8.39C195,14.72,204.4,23.53,198.45,29.45ZM218.38,21a9.26,9.26,0,0,0-5.61-4.76,21.14,21.14,0,0,1,.07,17.49C218.7,32.32,219.45,26.07,218.38,21Zm-15.63-1.37c-6.56-10.73-23.46-1.35-17.75,9.85C191.62,41.82,209.92,31.76,202.75,19.66Zm-4.3,9.79c-5.28,5.33-14.27-2.78-9-8.39C195,14.72,204.4,23.53,198.45,29.45ZM177.17,36a39.13,39.13,0,0,1-3-5.46c-3,0-10.8,0-13.88,0a37.89,37.89,0,0,0,2.15,4h9.24a31.49,31.49,0,0,0,7.92,10.15,22.06,22.06,0,0,0,5.59-1A22.68,22.68,0,0,1,177.17,36Zm7.1-29.87a20.19,20.19,0,0,0-5-.68,23.61,23.61,0,0,0-7.82,10.64h-9.56a23.86,23.86,0,0,0-1.49,4h14a20,20,0,0,1,11-13.65C185,6.3,184.63,6.19,184.27,6.1ZM87.62,30.44c-9.43.14-14.24,10.84-21.06,16.18-4.3,4.32-8.72,8.67-13,13,6.23,10.82,3.07,24.24-8,29.74a19.17,19.17,0,0,0,5.62,1.17c9.22-6.72,12-19.78,7.13-30.06,7.91-7.93,15.93-15.82,23.55-23.71,2.78-3.3,7.41-2.16,11.28-2.32a15.67,15.67,0,0,1,5-4ZM71.49,21C62.66,30,53.62,39,45,48.08a50.56,50.56,0,0,0-7.1-1c.12-.14-3.77,3.92-3.82,4a43.65,43.65,0,0,1,12.25,1.4C56.55,42,66.67,31,77.45,21ZM44.91,65.61C37.69,53.89,19.72,66.05,28.13,77,35.85,87.07,51.58,76.5,44.91,65.61ZM40.26,75.67C34.85,80.4,26.34,72.35,31.68,67,37.5,60.43,46.73,70,40.26,75.67Zm-18,10.44C12,77.23,14.38,58,27,52.61c-6.89-2-9.35,1-12.48,7-5.43,10.32-2.5,24.08,7,31a19.22,19.22,0,0,0,6-1A20.75,20.75,0,0,1,22.3,86.11Zm22.61-20.5C37.69,53.89,19.72,66.05,28.13,77,35.85,87.07,51.58,76.5,44.91,65.61ZM40.26,75.67C34.85,80.4,26.34,72.35,31.68,67,37.5,60.43,46.73,70,40.26,75.67Zm162.49-56c-6.56-10.73-23.46-1.35-17.75,9.85C191.62,41.82,209.92,31.76,202.75,19.66Zm-4.3,9.79c-5.28,5.33-14.27-2.78-9-8.39C195,14.72,204.4,23.53,198.45,29.45Zm4.3-9.79c-6.56-10.73-23.46-1.35-17.75,9.85C191.62,41.82,209.92,31.76,202.75,19.66Zm-4.3,9.79c-5.28,5.33-14.27-2.78-9-8.39C195,14.72,204.4,23.53,198.45,29.45ZM172.73,18.56a10.08,10.08,0,0,0-1.27,1.5h2.9a30,30,0,0,1,1.15-3.39A9.71,9.71,0,0,0,172.73,18.56Zm1.91,13-.49-1h-2.33a9.51,9.51,0,0,0,3.8,2.91C175.28,32.81,175,32.18,174.64,31.52Zm-87-1.08c-9.43.14-14.24,10.84-21.06,16.18-4.3,4.32-8.72,8.67-13,13,6.23,10.82,3.07,24.24-8,29.74a19.17,19.17,0,0,0,5.62,1.17c9.22-6.72,12-19.78,7.13-30.06,7.91-7.93,15.93-15.82,23.55-23.71,2.78-3.3,7.41-2.16,11.28-2.32a15.67,15.67,0,0,1,5-4ZM71.49,21C62.66,30,53.62,39,45,48.08a50.56,50.56,0,0,0-7.1-1c.12-.14-3.77,3.92-3.82,4a43.65,43.65,0,0,1,12.25,1.4C56.55,42,66.67,31,77.45,21ZM44.91,65.61C37.69,53.89,19.72,66.05,28.13,77,35.85,87.07,51.58,76.5,44.91,65.61ZM40.26,75.67C34.85,80.4,26.34,72.35,31.68,67,37.5,60.43,46.73,70,40.26,75.67Zm-18,10.44C12,77.23,14.38,58,27,52.61c-6.89-2-9.35,1-12.48,7-5.43,10.32-2.5,24.08,7,31a19.22,19.22,0,0,0,6-1A20.75,20.75,0,0,1,22.3,86.11Zm22.61-20.5C37.69,53.89,19.72,66.05,28.13,77,35.85,87.07,51.58,76.5,44.91,65.61ZM40.26,75.67C34.85,80.4,26.34,72.35,31.68,67,37.5,60.43,46.73,70,40.26,75.67Zm162.49-56c-6.56-10.73-23.46-1.35-17.75,9.85C191.62,41.82,209.92,31.76,202.75,19.66Zm-4.3,9.79c-5.28,5.33-14.27-2.78-9-8.39C195,14.72,204.4,23.53,198.45,29.45Zm4.3-9.79c-6.56-10.73-23.46-1.35-17.75,9.85C191.62,41.82,209.92,31.76,202.75,19.66Zm-4.3,9.79c-5.28,5.33-14.27-2.78-9-8.39C195,14.72,204.4,23.53,198.45,29.45ZM172.73,18.56a10.08,10.08,0,0,0-1.27,1.5h2.9a30,30,0,0,1,1.15-3.39A9.71,9.71,0,0,0,172.73,18.56Zm1.91,13-.49-1h-2.33a9.51,9.51,0,0,0,3.8,2.91C175.28,32.81,175,32.18,174.64,31.52Zm-87-1.08c-9.43.14-14.24,10.84-21.06,16.18-4.3,4.32-8.72,8.67-13,13,6.23,10.82,3.07,24.24-8,29.74a19.17,19.17,0,0,0,5.62,1.17c9.22-6.72,12-19.78,7.13-30.06,7.91-7.93,15.93-15.82,23.55-23.71,2.78-3.3,7.41-2.16,11.28-2.32a15.67,15.67,0,0,1,5-4ZM71.49,21C62.66,30,53.62,39,45,48.08a50.56,50.56,0,0,0-7.1-1c.12-.14-3.77,3.92-3.82,4a43.65,43.65,0,0,1,12.25,1.4C56.55,42,66.67,31,77.45,21ZM44.91,65.61C37.69,53.89,19.72,66.05,28.13,77,35.85,87.07,51.58,76.5,44.91,65.61ZM40.26,75.67C34.85,80.4,26.34,72.35,31.68,67,37.5,60.43,46.73,70,40.26,75.67Zm-18,10.44C12,77.23,14.38,58,27,52.61c-6.89-2-9.35,1-12.48,7-5.43,10.32-2.5,24.08,7,31a19.22,19.22,0,0,0,6-1A20.75,20.75,0,0,1,22.3,86.11Zm22.61-20.5C37.69,53.89,19.72,66.05,28.13,77,35.85,87.07,51.58,76.5,44.91,65.61ZM40.26,75.67C34.85,80.4,26.34,72.35,31.68,67,37.5,60.43,46.73,70,40.26,75.67Zm162.49-56c-6.56-10.73-23.46-1.35-17.75,9.85C191.62,41.82,209.92,31.76,202.75,19.66Zm-4.3,9.79c-5.28,5.33-14.27-2.78-9-8.39C195,14.72,204.4,23.53,198.45,29.45Zm4.3-9.79c-6.56-10.73-23.46-1.35-17.75,9.85C191.62,41.82,209.92,31.76,202.75,19.66Zm-4.3,9.79c-5.28,5.33-14.27-2.78-9-8.39C195,14.72,204.4,23.53,198.45,29.45ZM174.57,19.34a27.07,27.07,0,0,1,.94-2.67,9.93,9.93,0,0,0-4,3.39h2.9Zm-.14,11.75-.28-.58h-2.33a9.51,9.51,0,0,0,3.8,2.91C175.2,32.68,174.81,31.88,174.43,31.09ZM64.69,27.9C58,34.46,51.47,41.4,45,48.08a50.56,50.56,0,0,0-7.1-1c.12-.14-3.77,3.92-3.82,4a43.65,43.65,0,0,1,12.25,1.4C56.55,42,66.67,31,77.45,21l-6,0C69.29,23.35,67,25.66,64.69,27.9ZM43.67,64c-8.15-9.25-23.43,3.37-15.54,13C36.78,88,53.13,74.4,43.67,64ZM40.26,75.67C34.85,80.4,26.34,72.35,31.68,67,37.5,60.43,46.73,70,40.26,75.67ZM17.42,62.74c-7,3.07-7.11,13.48,0,16.46A21.13,21.13,0,0,1,17.42,62.74ZM218.38,21c-3.32-24.14-38.72-28.13-46.93-5-13.3,0-31.44,0-44.56,0C110.81,17.29,80,12.91,73.46,19,64,28.65,54.28,38.31,45,48.08c-26.51-7.94-44.4,21.6-25.38,41,19.63,18.1,50.29-4.25,38.72-28.56,7.92-7.93,15.93-15.82,23.55-23.71a7,7,0,0,1,5.7-2.35c29.81.14,55.61.07,84.09.07C183.68,61.52,222.87,49,218.38,21Zm-6.79,15c-5.2,8.39-17.54,12.35-26.41,7.54-4.7-2.37-8.75-8-11-13.1l-42.63,0c-15.92.52-32.33-1.1-48.15.55-6.73,3.49-11,10.58-16.81,15.54-4.3,4.32-8.72,8.67-13,13C66,80.56,40.19,102.1,22.3,86.11,12,77.23,14.38,58,27,52.61c5.88-2.51,13-1.64,19.33-.14C53.51,45,60.7,37.39,68.17,30.09,72.7,26.49,75.49,19.76,82.11,20c30.15.1,62,.05,92.25.06C183.28-10.38,227.05,8.59,211.59,36.07Zm-10.1-18C193,9,178.28,21.23,186,31.09,194.83,42.13,211,28.54,201.49,18Zm-3,11.41c-5.28,5.33-14.27-2.78-9-8.39C195,14.72,204.4,23.53,198.45,29.45ZM43.67,64c-8.15-9.25-23.43,3.37-15.54,13C36.78,88,53.13,74.4,43.67,64ZM40.26,75.67C34.85,80.4,26.34,72.35,31.68,67,37.5,60.43,46.73,70,40.26,75.67Zm-18,10.44C12,77.23,14.38,58,27,52.61c-6.89-2-9.35,1-12.48,7-5.43,10.32-2.5,24.08,7,31a19.22,19.22,0,0,0,6-1A20.75,20.75,0,0,1,22.3,86.11Zm22.61-20.5C37.69,53.89,19.72,66.05,28.13,77,35.85,87.07,51.58,76.5,44.91,65.61ZM40.26,75.67C34.85,80.4,26.34,72.35,31.68,67,37.5,60.43,46.73,70,40.26,75.67ZM71.49,21C62.66,30,53.62,39,45,48.08a50.56,50.56,0,0,0-7.1-1c.12-.14-3.77,3.92-3.82,4a43.65,43.65,0,0,1,12.25,1.4C56.55,42,66.67,31,77.45,21Zm16.13,9.43c-9.43.14-14.24,10.84-21.06,16.18-4.3,4.32-8.72,8.67-13,13,6.23,10.82,3.07,24.24-8,29.74a19.17,19.17,0,0,0,5.62,1.17c9.22-6.72,12-19.78,7.13-30.06,7.91-7.93,15.93-15.82,23.55-23.71,2.78-3.3,7.41-2.16,11.28-2.32a15.67,15.67,0,0,1,5-4Zm87,1.08-.49-1h-2.33a9.51,9.51,0,0,0,3.8,2.91C175.28,32.81,175,32.18,174.64,31.52Zm-1.91-13a10.08,10.08,0,0,0-1.27,1.5h2.9a30,30,0,0,1,1.15-3.39A9.71,9.71,0,0,0,172.73,18.56Zm30,1.1c-6.56-10.73-23.46-1.35-17.75,9.85C191.62,41.82,209.92,31.76,202.75,19.66Zm-4.3,9.79c-5.28,5.33-14.27-2.78-9-8.39C195,14.72,204.4,23.53,198.45,29.45Zm4.3-9.79c-6.56-10.73-23.46-1.35-17.75,9.85C191.62,41.82,209.92,31.76,202.75,19.66Zm-4.3,9.79c-5.28,5.33-14.27-2.78-9-8.39C195,14.72,204.4,23.53,198.45,29.45ZM44.91,65.61C37.69,53.89,19.72,66.05,28.13,77,35.85,87.07,51.58,76.5,44.91,65.61ZM40.26,75.67C34.85,80.4,26.34,72.35,31.68,67,37.5,60.43,46.73,70,40.26,75.67Zm-18,10.44C12,77.23,14.38,58,27,52.61c-6.89-2-9.35,1-12.48,7-5.43,10.32-2.5,24.08,7,31a19.22,19.22,0,0,0,6-1A20.75,20.75,0,0,1,22.3,86.11Zm22.61-20.5C37.69,53.89,19.72,66.05,28.13,77,35.85,87.07,51.58,76.5,44.91,65.61ZM40.26,75.67C34.85,80.4,26.34,72.35,31.68,67,37.5,60.43,46.73,70,40.26,75.67ZM71.49,21C62.66,30,53.62,39,45,48.08a50.56,50.56,0,0,0-7.1-1c.12-.14-3.77,3.92-3.82,4a43.65,43.65,0,0,1,12.25,1.4C56.55,42,66.67,31,77.45,21Zm16.13,9.43c-9.43.14-14.24,10.84-21.06,16.18-4.3,4.32-8.72,8.67-13,13,6.23,10.82,3.07,24.24-8,29.74a19.17,19.17,0,0,0,5.62,1.17c9.22-6.72,12-19.78,7.13-30.06,7.91-7.93,15.93-15.82,23.55-23.71,2.78-3.3,7.41-2.16,11.28-2.32a15.67,15.67,0,0,1,5-4Zm87,1.08-.49-1h-2.33a9.51,9.51,0,0,0,3.8,2.91C175.28,32.81,175,32.18,174.64,31.52Zm-1.91-13a10.08,10.08,0,0,0-1.27,1.5h2.9a30,30,0,0,1,1.15-3.39A9.71,9.71,0,0,0,172.73,18.56Zm30,1.1c-6.56-10.73-23.46-1.35-17.75,9.85C191.62,41.82,209.92,31.76,202.75,19.66Zm-4.3,9.79c-5.28,5.33-14.27-2.78-9-8.39C195,14.72,204.4,23.53,198.45,29.45Zm4.3-9.79c-6.56-10.73-23.46-1.35-17.75,9.85C191.62,41.82,209.92,31.76,202.75,19.66Zm-4.3,9.79c-5.28,5.33-14.27-2.78-9-8.39C195,14.72,204.4,23.53,198.45,29.45ZM44.91,65.61C37.69,53.89,19.72,66.05,28.13,77,35.85,87.07,51.58,76.5,44.91,65.61ZM40.26,75.67C34.85,80.4,26.34,72.35,31.68,67,37.5,60.43,46.73,70,40.26,75.67Zm-18,10.44C12,77.23,14.38,58,27,52.61c-6.89-2-9.35,1-12.48,7-5.43,10.32-2.5,24.08,7,31a19.22,19.22,0,0,0,6-1A20.75,20.75,0,0,1,22.3,86.11Zm22.61-20.5C37.69,53.89,19.72,66.05,28.13,77,35.85,87.07,51.58,76.5,44.91,65.61ZM40.26,75.67C34.85,80.4,26.34,72.35,31.68,67,37.5,60.43,46.73,70,40.26,75.67ZM71.49,21C62.66,30,53.62,39,45,48.08a50.56,50.56,0,0,0-7.1-1c.12-.14-3.77,3.92-3.82,4a43.65,43.65,0,0,1,12.25,1.4C56.55,42,66.67,31,77.45,21Zm16.13,9.43c-9.43.14-14.24,10.84-21.06,16.18-4.3,4.32-8.72,8.67-13,13,6.23,10.82,3.07,24.24-8,29.74a19.17,19.17,0,0,0,5.62,1.17c9.22-6.72,12-19.78,7.13-30.06,7.91-7.93,15.93-15.82,23.55-23.71,2.78-3.3,7.41-2.16,11.28-2.32a15.67,15.67,0,0,1,5-4Zm87,1.08-.49-1h-2.33a9.51,9.51,0,0,0,3.8,2.91C175.28,32.81,175,32.18,174.64,31.52Zm-1.91-13a10.08,10.08,0,0,0-1.27,1.5h2.9a30,30,0,0,1,1.15-3.39A9.71,9.71,0,0,0,172.73,18.56Zm30,1.1c-6.56-10.73-23.46-1.35-17.75,9.85C191.62,41.82,209.92,31.76,202.75,19.66Zm-4.3,9.79c-5.28,5.33-14.27-2.78-9-8.39C195,14.72,204.4,23.53,198.45,29.45Zm4.3-9.79c-6.56-10.73-23.46-1.35-17.75,9.85C191.62,41.82,209.92,31.76,202.75,19.66Zm-4.3,9.79c-5.28,5.33-14.27-2.78-9-8.39C195,14.72,204.4,23.53,198.45,29.45ZM44.91,65.61C37.69,53.89,19.72,66.05,28.13,77,35.85,87.07,51.58,76.5,44.91,65.61ZM40.26,75.67C34.85,80.4,26.34,72.35,31.68,67,37.5,60.43,46.73,70,40.26,75.67Zm-18,10.44C12,77.23,14.38,58,27,52.61c-6.89-2-9.35,1-12.48,7-5.43,10.32-2.5,24.08,7,31a19.22,19.22,0,0,0,6-1A20.75,20.75,0,0,1,22.3,86.11Zm22.61-20.5C37.69,53.89,19.72,66.05,28.13,77,35.85,87.07,51.58,76.5,44.91,65.61ZM40.26,75.67C34.85,80.4,26.34,72.35,31.68,67,37.5,60.43,46.73,70,40.26,75.67ZM71.49,21C62.66,30,53.62,39,45,48.08a50.56,50.56,0,0,0-7.1-1c.12-.14-3.77,3.92-3.82,4a43.65,43.65,0,0,1,12.25,1.4C56.55,42,66.67,31,77.45,21Zm16.13,9.43c-9.43.14-14.24,10.84-21.06,16.18-4.3,4.32-8.72,8.67-13,13,6.23,10.82,3.07,24.24-8,29.74a19.17,19.17,0,0,0,5.62,1.17c9.22-6.72,12-19.78,7.13-30.06,7.91-7.93,15.93-15.82,23.55-23.71,2.78-3.3,7.41-2.16,11.28-2.32a15.67,15.67,0,0,1,5-4ZM184.27,6.1a20.19,20.19,0,0,0-5-.68,23.61,23.61,0,0,0-7.82,10.64h-9.56a23.86,23.86,0,0,0-1.49,4h14a20,20,0,0,1,11-13.65C185,6.3,184.63,6.19,184.27,6.1ZM177.17,36a39.13,39.13,0,0,1-3-5.46c-3,0-10.8,0-13.88,0a37.89,37.89,0,0,0,2.15,4h9.24a31.49,31.49,0,0,0,7.92,10.15,22.06,22.06,0,0,0,5.59-1A22.68,22.68,0,0,1,177.17,36Zm25.58-16.31c-6.56-10.73-23.46-1.35-17.75,9.85C191.62,41.82,209.92,31.76,202.75,19.66Zm-4.3,9.79c-5.28,5.33-14.27-2.78-9-8.39C195,14.72,204.4,23.53,198.45,29.45ZM218.38,21a9.26,9.26,0,0,0-5.61-4.76,21.14,21.14,0,0,1,.07,17.49C218.7,32.32,219.45,26.07,218.38,21Zm-15.63-1.37c-6.56-10.73-23.46-1.35-17.75,9.85C191.62,41.82,209.92,31.76,202.75,19.66Zm-4.3,9.79c-5.28,5.33-14.27-2.78-9-8.39C195,14.72,204.4,23.53,198.45,29.45ZM44.91,65.61C37.69,53.89,19.72,66.05,28.13,77,35.85,87.07,51.58,76.5,44.91,65.61ZM40.26,75.67C34.85,80.4,26.34,72.35,31.68,67,37.5,60.43,46.73,70,40.26,75.67Zm-18,10.44C12,77.23,14.38,58,27,52.61c-6.89-2-9.35,1-12.48,7-5.43,10.32-2.5,24.08,7,31a19.22,19.22,0,0,0,6-1A20.75,20.75,0,0,1,22.3,86.11Zm22.61-20.5C37.69,53.89,19.72,66.05,28.13,77,35.85,87.07,51.58,76.5,44.91,65.61ZM40.26,75.67C34.85,80.4,26.34,72.35,31.68,67,37.5,60.43,46.73,70,40.26,75.67ZM71.49,21C62.66,30,53.62,39,45,48.08a50.56,50.56,0,0,0-7.1-1c.12-.14-3.77,3.92-3.82,4a43.65,43.65,0,0,1,12.25,1.4C56.55,42,66.67,31,77.45,21Zm16.13,9.43c-9.43.14-14.24,10.84-21.06,16.18-4.3,4.32-8.72,8.67-13,13,6.23,10.82,3.07,24.24-8,29.74a19.17,19.17,0,0,0,5.62,1.17c9.22-6.72,12-19.78,7.13-30.06,7.91-7.93,15.93-15.82,23.55-23.71,2.78-3.3,7.41-2.16,11.28-2.32a15.67,15.67,0,0,1,5-4ZM184.27,6.1a20.19,20.19,0,0,0-5-.68,23.61,23.61,0,0,0-7.82,10.64h-9.56a23.86,23.86,0,0,0-1.49,4h14a20,20,0,0,1,11-13.65C185,6.3,184.63,6.19,184.27,6.1ZM177.17,36a39.13,39.13,0,0,1-3-5.46c-3,0-10.8,0-13.88,0a37.89,37.89,0,0,0,2.15,4h9.24a31.49,31.49,0,0,0,7.92,10.15,22.06,22.06,0,0,0,5.59-1A22.68,22.68,0,0,1,177.17,36Zm25.58-16.31c-6.56-10.73-23.46-1.35-17.75,9.85C191.62,41.82,209.92,31.76,202.75,19.66Zm-4.3,9.79c-5.28,5.33-14.27-2.78-9-8.39C195,14.72,204.4,23.53,198.45,29.45ZM218.38,21a9.26,9.26,0,0,0-5.61-4.76,21.14,21.14,0,0,1,.07,17.49C218.7,32.32,219.45,26.07,218.38,21Zm-15.63-1.37c-6.56-10.73-23.46-1.35-17.75,9.85C191.62,41.82,209.92,31.76,202.75,19.66Zm-4.3,9.79c-5.28,5.33-14.27-2.78-9-8.39C195,14.72,204.4,23.53,198.45,29.45ZM44.91,65.61C37.69,53.89,19.72,66.05,28.13,77,35.85,87.07,51.58,76.5,44.91,65.61ZM40.26,75.67C34.85,80.4,26.34,72.35,31.68,67,37.5,60.43,46.73,70,40.26,75.67ZM17.42,62.74c-7,3.07-7.11,13.48,0,16.46A21.13,21.13,0,0,1,17.42,62.74Zm27.49,2.87C37.69,53.89,19.72,66.05,28.13,77,35.85,87.07,51.58,76.5,44.91,65.61ZM40.26,75.67C34.85,80.4,26.34,72.35,31.68,67,37.5,60.43,46.73,70,40.26,75.67Zm19.93-9.31a9.13,9.13,0,0,0-5.53-4.25c2.72,6.42,2.8,12,.27,17.57C61.15,78.11,61.5,71.71,60.19,66.36Zm1.65-15,.14,0,4.58-4.74C65,48.18,63.44,49.74,61.84,51.33Zm112.8-19.81-.49-1h-2.33a9.51,9.51,0,0,0,3.8,2.91C175.28,32.81,175,32.18,174.64,31.52Zm-1.91-13a10.08,10.08,0,0,0-1.27,1.5h2.9a30,30,0,0,1,1.15-3.39A9.71,9.71,0,0,0,172.73,18.56Zm30,1.1c-6.56-10.73-23.46-1.35-17.75,9.85C191.62,41.82,209.92,31.76,202.75,19.66Zm-4.3,9.79c-5.28,5.33-14.27-2.78-9-8.39C195,14.72,204.4,23.53,198.45,29.45Zm4.3-9.79c-6.56-10.73-23.46-1.35-17.75,9.85C191.62,41.82,209.92,31.76,202.75,19.66Zm-4.3,9.79c-5.28,5.33-14.27-2.78-9-8.39C195,14.72,204.4,23.53,198.45,29.45ZM44.91,65.61C37.69,53.89,19.72,66.05,28.13,77,35.85,87.07,51.58,76.5,44.91,65.61ZM40.26,75.67C34.85,80.4,26.34,72.35,31.68,67,37.5,60.43,46.73,70,40.26,75.67ZM17.42,62.74c-7,3.07-7.11,13.48,0,16.46A21.13,21.13,0,0,1,17.42,62.74Zm27.49,2.87C37.69,53.89,19.72,66.05,28.13,77,35.85,87.07,51.58,76.5,44.91,65.61ZM40.26,75.67C34.85,80.4,26.34,72.35,31.68,67,37.5,60.43,46.73,70,40.26,75.67Zm19.93-9.31a9.13,9.13,0,0,0-5.53-4.25c2.72,6.42,2.8,12,.27,17.57C61.15,78.11,61.5,71.71,60.19,66.36Zm1.65-15,.14,0,4.58-4.74C65,48.18,63.44,49.74,61.84,51.33ZM174.43,31.09l-.28-.58h-2.33a10.78,10.78,0,0,0,.91,1h1.91Zm28.32-11.43c-6.56-10.73-23.46-1.35-17.75,9.85C191.62,41.82,209.92,31.76,202.75,19.66Zm-4.3,9.79c-5.28,5.33-14.27-2.78-9-8.39C195,14.72,204.4,23.53,198.45,29.45Zm4.3-9.79c-6.56-10.73-23.46-1.35-17.75,9.85C191.62,41.82,209.92,31.76,202.75,19.66Zm-4.3,9.79c-5.28,5.33-14.27-2.78-9-8.39C195,14.72,204.4,23.53,198.45,29.45ZM44.91,65.61C37.69,53.89,19.72,66.05,28.13,77,35.85,87.07,51.58,76.5,44.91,65.61ZM40.26,75.67C34.85,80.4,26.34,72.35,31.68,67,37.5,60.43,46.73,70,40.26,75.67ZM17.42,62.74c-7,3.07-7.11,13.48,0,16.46A21.13,21.13,0,0,1,17.42,62.74Zm27.49,2.87C37.69,53.89,19.72,66.05,28.13,77,35.85,87.07,51.58,76.5,44.91,65.61ZM40.26,75.67C34.85,80.4,26.34,72.35,31.68,67,37.5,60.43,46.73,70,40.26,75.67Zm19.93-9.31a9.13,9.13,0,0,0-5.53-4.25c2.72,6.42,2.8,12,.27,17.57C61.15,78.11,61.5,71.71,60.19,66.36Zm1.65-15,.14,0,4.58-4.74C65,48.18,63.44,49.74,61.84,51.33ZM202.75,19.66c-6.56-10.73-23.46-1.35-17.75,9.85C191.62,41.82,209.92,31.76,202.75,19.66Zm-4.3,9.79c-5.28,5.33-14.27-2.78-9-8.39C195,14.72,204.4,23.53,198.45,29.45Zm4.3-9.79c-6.56-10.73-23.46-1.35-17.75,9.85C191.62,41.82,209.92,31.76,202.75,19.66Zm-4.3,9.79c-5.28,5.33-14.27-2.78-9-8.39C195,14.72,204.4,23.53,198.45,29.45ZM44.91,65.61C37.69,53.89,19.72,66.05,28.13,77,35.85,87.07,51.58,76.5,44.91,65.61ZM40.26,75.67C34.85,80.4,26.34,72.35,31.68,67,37.5,60.43,46.73,70,40.26,75.67Z"/></svg>