<svg id="Finished" xmlns="http://www.w3.org/2000/svg" viewBox="0 0 428 95"><defs><style>.cls-1{fill:#4df4e4;}.cls-2{fill:red;}.cls-3{fill:#fff;}</style></defs><path class="cls-1" d="M417.88,24a11.39,11.39,0,0,1-4.11,8.91,21.31,21.31,0,0,0,.07-17.21A11.32,11.32,0,0,1,417.88,24Z"/><path class="cls-1" d="M428.41,25.07C428,37.94,415.34,48,403,45.59a21.8,21.8,0,0,0,2.57-1.73c27.21.65,27.63-39.71,0-39.19A22.81,22.81,0,0,0,403,3C416,.24,429.35,12.09,428.41,25.07Z"/><path class="cls-1" d="M210.28,33.39c-13.21,13.4-26.37,26.32-39.54,39.79-3.89,4.58-10.17,3.73-15.7,3.74a19.41,19.41,0,0,0,2.18-2c4.37.1,9.11.39,12.08-3.14,12.73-13,25.42-25.44,38.16-38.39Z"/><path class="cls-1" d="M71.21,79.86C66.42,89.15,57.78,93.64,48.12,92a19.46,19.46,0,0,0,2.48-1.7c7.72.43,14.23-3.2,18.32-10.44Z"/><path class="cls-1" d="M71,61.55H68.66c-5.22-7.91-10.94-11.17-18.45-10.38A25.28,25.28,0,0,0,48,49.49C57.58,47.68,64.78,51.45,71,61.55Z"/><path class="cls-2" d="M379,45.64c-9.16,1.41-16.64-2.69-22.28-12.19H359c4.64,7.25,10.49,10.74,17.47,10.42A24.32,24.32,0,0,0,379,45.64Z"/><path class="cls-2" d="M378.73,2.84a21.52,21.52,0,0,0-2.65,1.78A19.06,19.06,0,0,0,358.8,15h-2.28C361,6.07,369.49,1.59,378.73,2.84Z"/><path class="cls-2" d="M187.92,17.91a20.8,20.8,0,0,0-2.11,2c-3.95-.07-8-.4-10.79,2.84-13,13.25-25.66,25.72-38.62,38.86h-2.81C147,48,160.17,35,173.6,21.35,177.26,17.1,182.84,17.94,187.92,17.91Z"/><path class="cls-2" d="M21,90.35a24,24,0,0,0,2.74,1.8c-32.2,2.85-32-45.78.2-42.93a22.72,22.72,0,0,0-2.79,1.83C-4.83,51.55-4.91,89.82,21,90.35Z"/><path class="cls-2" d="M11.44,69.69a25.49,25.49,0,0,0,1.06,8.24,10.81,10.81,0,0,1,0-14.48A23.32,23.32,0,0,0,11.44,69.69Z"/><path class="cls-3" d="M45.24,66.55c-6.52-13.3-26.09-1.81-17.45,10.19C34.53,86.31,50.49,77.15,45.24,66.55ZM36,76.82c-8.18-.14-8.17-12,0-12.28C44,64.73,44.11,76.58,36,76.82Zm363.33-58a10.51,10.51,0,0,0-4-3.72h0c-9.05-5.17-19.28,7-12.76,15.09C390.1,40.77,406.08,29.57,399.33,18.86ZM395,28.66c-5.31,5.62-14-2.95-8.85-8.46C391.41,13.62,401.05,23,395,28.66Zm4.36-9.8a10.51,10.51,0,0,0-4-3.72h0c-9.05-5.17-19.28,7-12.76,15.09C390.1,40.77,406.08,29.57,399.33,18.86ZM395,28.66c-5.31,5.62-14-2.95-8.85-8.46C391.41,13.62,401.05,23,395,28.66ZM45.24,66.55c-6.52-13.3-26.09-1.81-17.45,10.19C34.53,86.31,50.49,77.15,45.24,66.55ZM36,76.82c-8.18-.14-8.17-12,0-12.28C44,64.73,44.11,76.58,36,76.82Zm9.24-10.27c-6.52-13.3-26.09-1.81-17.45,10.19C34.53,86.31,50.49,77.15,45.24,66.55ZM36,76.82c-8.18-.14-8.17-12,0-12.28C44,64.73,44.11,76.58,36,76.82Zm363.33-58a10.51,10.51,0,0,0-4-3.72h0c-9.05-5.17-19.28,7-12.76,15.09C390.1,40.77,406.08,29.57,399.33,18.86ZM395,28.66c-5.31,5.62-14-2.95-8.85-8.46C391.41,13.62,401.05,23,395,28.66Zm4.36-9.8a10.51,10.51,0,0,0-4-3.72h0c-9.05-5.17-19.28,7-12.76,15.09C390.1,40.77,406.08,29.57,399.33,18.86ZM395,28.66c-5.31,5.62-14-2.95-8.85-8.46C391.41,13.62,401.05,23,395,28.66ZM45.24,66.55c-6.52-13.3-26.09-1.81-17.45,10.19C34.53,86.31,50.49,77.15,45.24,66.55ZM36,76.82c-8.18-.14-8.17-12,0-12.28C44,64.73,44.11,76.58,36,76.82Zm9.24-10.27c-6.52-13.3-26.09-1.81-17.45,10.19C34.53,86.31,50.49,77.15,45.24,66.55ZM36,76.82c-8.18-.14-8.17-12,0-12.28C44,64.73,44.11,76.58,36,76.82Zm363.33-58a10.51,10.51,0,0,0-4-3.72h0c-9.05-5.17-19.28,7-12.76,15.09C390.1,40.77,406.08,29.57,399.33,18.86ZM395,28.66c-5.31,5.62-14-2.95-8.85-8.46C391.41,13.62,401.05,23,395,28.66Zm4.36-9.8a10.51,10.51,0,0,0-4-3.72h0c-9.05-5.17-19.28,7-12.76,15.09C390.1,40.77,406.08,29.57,399.33,18.86ZM395,28.66c-5.31,5.62-14-2.95-8.85-8.46C391.41,13.62,401.05,23,395,28.66ZM56,75.86a39.68,39.68,0,0,1-1.75,3.65A9.31,9.31,0,0,0,58.57,77h0a12.15,12.15,0,0,0,.93-1.11Zm2.69-11.31A9.61,9.61,0,0,0,54,61.79c.73,1.16,1.48,2.49,2.15,3.76H59.5A11.06,11.06,0,0,0,58.69,64.55Zm-13.45,2c-6.52-13.3-26.09-1.81-17.45,10.19C34.53,86.31,50.49,77.15,45.24,66.55ZM36,76.82c-8.18-.14-8.17-12,0-12.28C44,64.73,44.11,76.58,36,76.82Zm-20.56-7a19.77,19.77,0,0,1,1.7-7.4c-7.13,3-7.07,13.6,0,16.54A21.39,21.39,0,0,1,15.44,69.82Zm29.8-3.27c-6.52-13.3-26.09-1.81-17.45,10.19C34.53,86.31,50.49,77.15,45.24,66.55ZM36,76.82c-8.18-.14-8.17-12,0-12.28C44,64.73,44.11,76.58,36,76.82Zm363.33-58a10.51,10.51,0,0,0-4-3.72h0c-9.05-5.17-19.28,7-12.76,15.09C390.1,40.77,406.08,29.57,399.33,18.86ZM395,28.66c-5.31,5.62-14-2.95-8.85-8.46C391.41,13.62,401.05,23,395,28.66Zm4.36-9.8a10.51,10.51,0,0,0-4-3.72h0c-9.05-5.17-19.28,7-12.76,15.09C390.1,40.77,406.08,29.57,399.33,18.86ZM395,28.66c-5.31,5.62-14-2.95-8.85-8.46C391.41,13.62,401.05,23,395,28.66ZM56,75.86a39.68,39.68,0,0,1-1.75,3.65A9.31,9.31,0,0,0,58.57,77h0a12.15,12.15,0,0,0,.93-1.11Zm2.69-11.31A9.61,9.61,0,0,0,54,61.79c.73,1.16,1.48,2.49,2.15,3.76H59.5A11.06,11.06,0,0,0,58.69,64.55Zm-13.45,2c-6.52-13.3-26.09-1.81-17.45,10.19C34.53,86.31,50.49,77.15,45.24,66.55ZM36,76.82c-8.18-.14-8.17-12,0-12.28C44,64.73,44.11,76.58,36,76.82Zm-20.56-7a19.77,19.77,0,0,1,1.7-7.4c-7.13,3-7.07,13.6,0,16.54A21.39,21.39,0,0,1,15.44,69.82Zm29.8-3.27c-6.52-13.3-26.09-1.81-17.45,10.19C34.53,86.31,50.49,77.15,45.24,66.55ZM36,76.82c-8.18-.14-8.17-12,0-12.28C44,64.73,44.11,76.58,36,76.82Zm363.33-58a10.51,10.51,0,0,0-4-3.72h0c-9.05-5.17-19.28,7-12.76,15.09C390.1,40.77,406.08,29.57,399.33,18.86ZM395,28.66c-5.31,5.62-14-2.95-8.85-8.46C391.41,13.62,401.05,23,395,28.66Zm4.36-9.8a10.51,10.51,0,0,0-4-3.72h0c-9.05-5.17-19.28,7-12.76,15.09C390.1,40.77,406.08,29.57,399.33,18.86ZM395,28.66c-5.31,5.62-14-2.95-8.85-8.46C391.41,13.62,401.05,23,395,28.66ZM56,75.86a39.68,39.68,0,0,1-1.75,3.65A9.31,9.31,0,0,0,58.57,77h0a12.15,12.15,0,0,0,.93-1.11Zm2.69-11.31A9.61,9.61,0,0,0,54,61.79c.73,1.16,1.48,2.49,2.15,3.76H59.5A11.06,11.06,0,0,0,58.69,64.55Zm-13.45,2c-6.52-13.3-26.09-1.81-17.45,10.19C34.53,86.31,50.49,77.15,45.24,66.55ZM36,76.82c-8.18-.14-8.17-12,0-12.28C44,64.73,44.11,76.58,36,76.82Zm-20.56-7a19.77,19.77,0,0,1,1.7-7.4c-7.13,3-7.07,13.6,0,16.54A21.39,21.39,0,0,1,15.44,69.82Zm29.8-3.27c-6.52-13.3-26.09-1.81-17.45,10.19C34.53,86.31,50.49,77.15,45.24,66.55ZM36,76.82c-8.18-.14-8.17-12,0-12.28C44,64.73,44.11,76.58,36,76.82Zm363.33-58a10.51,10.51,0,0,0-4-3.72h0c-9.05-5.17-19.28,7-12.76,15.09C390.1,40.77,406.08,29.57,399.33,18.86ZM395,28.66c-5.31,5.62-14-2.95-8.85-8.46C391.41,13.62,401.05,23,395,28.66Zm4.36-9.8a10.51,10.51,0,0,0-4-3.72h0c-9.05-5.17-19.28,7-12.76,15.09C390.1,40.77,406.08,29.57,399.33,18.86ZM395,28.66c-5.31,5.62-14-2.95-8.85-8.46C391.41,13.62,401.05,23,395,28.66ZM56,75.86a39.68,39.68,0,0,1-1.75,3.65A9.31,9.31,0,0,0,58.57,77h0a12.15,12.15,0,0,0,.93-1.11Zm2.69-11.31A9.61,9.61,0,0,0,54,61.79c.73,1.16,1.48,2.49,2.15,3.76H59.5A11.06,11.06,0,0,0,58.69,64.55Zm-13.45,2c-6.52-13.3-26.09-1.81-17.45,10.19C34.53,86.31,50.49,77.15,45.24,66.55ZM36,76.82c-8.18-.14-8.17-12,0-12.28C44,64.73,44.11,76.58,36,76.82Zm-20.56-7a19.77,19.77,0,0,1,1.7-7.4c-7.13,3-7.07,13.6,0,16.54A21.39,21.39,0,0,1,15.44,69.82Zm29.8-3.27c-6.52-13.3-26.09-1.81-17.45,10.19C34.53,86.31,50.49,77.15,45.24,66.55ZM36,76.82c-8.18-.14-8.17-12,0-12.28C44,64.73,44.11,76.58,36,76.82Zm363.33-58a10.51,10.51,0,0,0-4-3.72h0c-9.05-5.17-19.28,7-12.76,15.09C390.1,40.77,406.08,29.57,399.33,18.86ZM395,28.66c-5.31,5.62-14-2.95-8.85-8.46C391.41,13.62,401.05,23,395,28.66Zm4.36-9.8a10.51,10.51,0,0,0-4-3.72h0c-9.05-5.17-19.28,7-12.76,15.09C390.1,40.77,406.08,29.57,399.33,18.86ZM395,28.66c-5.31,5.62-14-2.95-8.85-8.46C391.41,13.62,401.05,23,395,28.66ZM56,75.86a39.68,39.68,0,0,1-1.75,3.65A9.31,9.31,0,0,0,58.57,77h0a12.15,12.15,0,0,0,.93-1.11Zm2.69-11.31A9.61,9.61,0,0,0,54,61.79c.73,1.16,1.48,2.49,2.15,3.76H59.5A11.06,11.06,0,0,0,58.69,64.55Zm-13.45,2c-6.52-13.3-26.09-1.81-17.45,10.19C34.53,86.31,50.49,77.15,45.24,66.55ZM36,76.82c-8.18-.14-8.17-12,0-12.28C44,64.73,44.11,76.58,36,76.82Zm-20.56-7a19.77,19.77,0,0,1,1.7-7.4c-7.13,3-7.07,13.6,0,16.54A21.39,21.39,0,0,1,15.44,69.82Zm29.8-3.27c-6.52-13.3-26.09-1.81-17.45,10.19C34.53,86.31,50.49,77.15,45.24,66.55ZM36,76.82c-8.18-.14-8.17-12,0-12.28C44,64.73,44.11,76.58,36,76.82Zm363.33-58a10.51,10.51,0,0,0-4-3.72h0c-9.05-5.17-19.28,7-12.76,15.09C390.1,40.77,406.08,29.57,399.33,18.86ZM395,28.66c-5.31,5.62-14-2.95-8.85-8.46C391.41,13.62,401.05,23,395,28.66Zm4.36-9.8a10.51,10.51,0,0,0-4-3.72h0c-9.05-5.17-19.28,7-12.76,15.09C390.1,40.77,406.08,29.57,399.33,18.86ZM395,28.66c-5.31,5.62-14-2.95-8.85-8.46C391.41,13.62,401.05,23,395,28.66ZM370.92,30l-.28-.55h-2.37a8.55,8.55,0,0,0,.8,1h2.08ZM56,75.86a39.68,39.68,0,0,1-1.75,3.65A9.31,9.31,0,0,0,58.57,77h0a12.15,12.15,0,0,0,.93-1.11Zm2.69-11.31A9.61,9.61,0,0,0,54,61.79c.73,1.16,1.48,2.49,2.15,3.76H59.5A11.06,11.06,0,0,0,58.69,64.55Zm-13.45,2c-6.52-13.3-26.09-1.81-17.45,10.19C34.53,86.31,50.49,77.15,45.24,66.55ZM36,76.82c-8.18-.14-8.17-12,0-12.28C44,64.73,44.11,76.58,36,76.82Zm-20.56-7a19.77,19.77,0,0,1,1.7-7.4c-7.13,3-7.07,13.6,0,16.54A21.39,21.39,0,0,1,15.44,69.82Zm29.8-3.27c-6.52-13.3-26.09-1.81-17.45,10.19C34.53,86.31,50.49,77.15,45.24,66.55ZM36,76.82c-8.18-.14-8.17-12,0-12.28C44,64.73,44.11,76.58,36,76.82Zm363.33-58a10.51,10.51,0,0,0-4-3.72h0c-9.05-5.17-19.28,7-12.76,15.09C390.1,40.77,406.08,29.57,399.33,18.86ZM395,28.66c-5.31,5.62-14-2.95-8.85-8.46C391.41,13.62,401.05,23,395,28.66Zm4.36-9.8a10.51,10.51,0,0,0-4-3.72h0c-9.05-5.17-19.28,7-12.76,15.09C390.1,40.77,406.08,29.57,399.33,18.86ZM395,28.66c-5.31,5.62-14-2.95-8.85-8.46C391.41,13.62,401.05,23,395,28.66ZM369.06,18a9.82,9.82,0,0,0-.81,1h2.52c.11-.27.32-.75.43-1Zm2.09,12.48-.51-1h-2.37a9.52,9.52,0,0,0,4.17,3.36C372,32.06,371.57,31.27,371.15,30.45ZM56,75.86a39.68,39.68,0,0,1-1.75,3.65A9.31,9.31,0,0,0,58.57,77h0a12.15,12.15,0,0,0,.93-1.11Zm2.69-11.31A9.61,9.61,0,0,0,54,61.79c.73,1.16,1.48,2.49,2.15,3.76H59.5A11.06,11.06,0,0,0,58.69,64.55Zm-13.45,2c-6.52-13.3-26.09-1.81-17.45,10.19C34.53,86.31,50.49,77.15,45.24,66.55ZM36,76.82c-8.18-.14-8.17-12,0-12.28C44,64.73,44.11,76.58,36,76.82Zm-20.56-7a19.77,19.77,0,0,1,1.7-7.4c-7.13,3-7.07,13.6,0,16.54A21.39,21.39,0,0,1,15.44,69.82Zm29.8-3.27c-6.52-13.3-26.09-1.81-17.45,10.19C34.53,86.31,50.49,77.15,45.24,66.55ZM36,76.82c-8.18-.14-8.17-12,0-12.28C44,64.73,44.11,76.58,36,76.82Zm363.33-58a10.51,10.51,0,0,0-4-3.72h0c-9.05-5.17-19.28,7-12.76,15.09C390.1,40.77,406.08,29.57,399.33,18.86ZM395,28.66c-5.31,5.62-14-2.95-8.85-8.46C391.41,13.62,401.05,23,395,28.66Zm20.22-7.89a9.52,9.52,0,0,0-5.82-5.39,20,20,0,0,1-.05,17.7C414.78,31.57,416.27,25.76,415.19,20.77Zm-15.86-1.91a10.51,10.51,0,0,0-4-3.72h0c-9.05-5.17-19.28,7-12.76,15.09C390.1,40.77,406.08,29.57,399.33,18.86ZM395,28.66c-5.31,5.62-14-2.95-8.85-8.46C391.41,13.62,401.05,23,395,28.66ZM369.06,18a9.82,9.82,0,0,0-.81,1h2.52c.46-1.1,1-2.27,1.5-3.28A9.5,9.5,0,0,0,369.06,18Zm2.09,12.48-.51-1h-2.37a9.52,9.52,0,0,0,4.17,3.36C372,32.06,371.57,31.27,371.15,30.45ZM56,75.86a39.68,39.68,0,0,1-1.75,3.65A9.31,9.31,0,0,0,58.57,77h0a12.15,12.15,0,0,0,.93-1.11Zm2.69-11.31A9.61,9.61,0,0,0,54,61.79c.73,1.16,1.48,2.49,2.15,3.76H59.5A11.06,11.06,0,0,0,58.69,64.55Zm-13.45,2c-6.52-13.3-26.09-1.81-17.45,10.19C34.53,86.31,50.49,77.15,45.24,66.55ZM36,76.82c-8.18-.14-8.17-12,0-12.28C44,64.73,44.11,76.58,36,76.82Zm-20.56-7a19.77,19.77,0,0,1,1.7-7.4c-7.13,3-7.07,13.6,0,16.54A21.39,21.39,0,0,1,15.44,69.82Zm29.8-3.27c-6.52-13.3-26.09-1.81-17.45,10.19C34.53,86.31,50.49,77.15,45.24,66.55ZM36,76.82c-8.18-.14-8.17-12,0-12.28C44,64.73,44.11,76.58,36,76.82Zm363.33-58a10.51,10.51,0,0,0-4-3.72h0c-9.05-5.17-19.28,7-12.76,15.09C390.1,40.77,406.08,29.57,399.33,18.86ZM395,28.66c-5.31,5.62-14-2.95-8.85-8.46C391.41,13.62,401.05,23,395,28.66Zm20.22-7.89a9.52,9.52,0,0,0-5.82-5.39,20,20,0,0,1-.05,17.7C414.78,31.57,416.27,25.76,415.19,20.77Zm-15.86-1.91a10.51,10.51,0,0,0-4-3.72h0c-9.05-5.17-19.28,7-12.76,15.09C390.1,40.77,406.08,29.57,399.33,18.86ZM395,28.66c-5.31,5.62-14-2.95-8.85-8.46C391.41,13.62,401.05,23,395,28.66ZM369.06,18a9.82,9.82,0,0,0-.81,1h2.52c.46-1.1,1-2.27,1.5-3.28A9.5,9.5,0,0,0,369.06,18Zm2.09,12.48-.51-1h-2.37a9.52,9.52,0,0,0,4.17,3.36C372,32.06,371.57,31.27,371.15,30.45ZM56,75.86a39.68,39.68,0,0,1-1.75,3.65A9.31,9.31,0,0,0,58.57,77h0a12.15,12.15,0,0,0,.93-1.11Zm2.69-11.31A9.61,9.61,0,0,0,54,61.79c.73,1.16,1.48,2.49,2.15,3.76H59.5A11.06,11.06,0,0,0,58.69,64.55Zm-13.45,2c-6.52-13.3-26.09-1.81-17.45,10.19C34.53,86.31,50.49,77.15,45.24,66.55ZM36,76.82c-8.18-.14-8.17-12,0-12.28C44,64.73,44.11,76.58,36,76.82Zm-20.56-7a19.77,19.77,0,0,1,1.7-7.4c-7.13,3-7.07,13.6,0,16.54A21.39,21.39,0,0,1,15.44,69.82Zm29.8-3.27c-6.52-13.3-26.09-1.81-17.45,10.19C34.53,86.31,50.49,77.15,45.24,66.55ZM36,76.82c-8.18-.14-8.17-12,0-12.28C44,64.73,44.11,76.58,36,76.82Zm363.33-58a10.51,10.51,0,0,0-4-3.72h0c-9.05-5.17-19.28,7-12.76,15.09C390.1,40.77,406.08,29.57,399.33,18.86ZM395,28.66c-5.31,5.62-14-2.95-8.85-8.46C391.41,13.62,401.05,23,395,28.66Zm20.22-7.89a9.52,9.52,0,0,0-5.82-5.39,20,20,0,0,1-.05,17.7C414.78,31.57,416.27,25.76,415.19,20.77Zm-15.86-1.91a10.51,10.51,0,0,0-4-3.72h0c-9.05-5.17-19.28,7-12.76,15.09C390.1,40.77,406.08,29.57,399.33,18.86ZM395,28.66c-5.31,5.62-14-2.95-8.85-8.46C391.41,13.62,401.05,23,395,28.66ZM369.06,18a9.82,9.82,0,0,0-.81,1h2.52c.46-1.1,1-2.27,1.5-3.28A9.5,9.5,0,0,0,369.06,18Zm2.09,12.48-.51-1h-2.37a9.52,9.52,0,0,0,4.17,3.36C372,32.06,371.57,31.27,371.15,30.45ZM56,75.86a39.68,39.68,0,0,1-1.75,3.65A9.31,9.31,0,0,0,58.57,77h0a12.15,12.15,0,0,0,.93-1.11Zm2.69-11.31A9.61,9.61,0,0,0,54,61.79c.73,1.16,1.48,2.49,2.15,3.76H59.5A11.06,11.06,0,0,0,58.69,64.55Zm-13.45,2c-6.52-13.3-26.09-1.81-17.45,10.19C34.53,86.31,50.49,77.15,45.24,66.55ZM36,76.82c-8.18-.14-8.17-12,0-12.28C44,64.73,44.11,76.58,36,76.82Zm-20.56-7a19.77,19.77,0,0,1,1.7-7.4c-7.13,3-7.07,13.6,0,16.54A21.39,21.39,0,0,1,15.44,69.82Zm29.8-3.27c-6.52-13.3-26.09-1.81-17.45,10.19C34.53,86.31,50.49,77.15,45.24,66.55ZM36,76.82c-8.18-.14-8.17-12,0-12.28C44,64.73,44.11,76.58,36,76.82Zm363.33-58a10.51,10.51,0,0,0-4-3.72h0c-9.05-5.17-19.28,7-12.76,15.09C390.1,40.77,406.08,29.57,399.33,18.86ZM395,28.66c-5.31,5.62-14-2.95-8.85-8.46C391.41,13.62,401.05,23,395,28.66Zm20.22-7.89a9.52,9.52,0,0,0-5.82-5.39,20,20,0,0,1-.05,17.7C414.78,31.57,416.27,25.76,415.19,20.77Zm-15.86-1.91a10.51,10.51,0,0,0-4-3.72h0c-9.05-5.17-19.28,7-12.76,15.09C390.1,40.77,406.08,29.57,399.33,18.86ZM395,28.66c-5.31,5.62-14-2.95-8.85-8.46C391.41,13.62,401.05,23,395,28.66ZM369.06,18a9.82,9.82,0,0,0-.81,1h2.52c.46-1.1,1-2.27,1.5-3.28A9.5,9.5,0,0,0,369.06,18Zm2.09,12.48-.51-1h-2.37a9.52,9.52,0,0,0,4.17,3.36C372,32.06,371.57,31.27,371.15,30.45ZM56,75.86a39.68,39.68,0,0,1-1.75,3.65A9.31,9.31,0,0,0,58.57,77h0a12.15,12.15,0,0,0,.93-1.11Zm2.69-11.31A9.61,9.61,0,0,0,54,61.79c.73,1.16,1.48,2.49,2.15,3.76H59.5A11.06,11.06,0,0,0,58.69,64.55Zm-13.45,2c-6.52-13.3-26.09-1.81-17.45,10.19C34.53,86.31,50.49,77.15,45.24,66.55ZM36,76.82c-8.18-.14-8.17-12,0-12.28C44,64.73,44.11,76.58,36,76.82Zm-20.56-7a19.77,19.77,0,0,1,1.7-7.4c-7.13,3-7.07,13.6,0,16.54A21.39,21.39,0,0,1,15.44,69.82Zm29.8-3.27c-6.52-13.3-26.09-1.81-17.45,10.19C34.53,86.31,50.49,77.15,45.24,66.55ZM36,76.82c-8.18-.14-8.17-12,0-12.28C44,64.73,44.11,76.58,36,76.82Zm363.33-58a10.51,10.51,0,0,0-4-3.72h0c-9.05-5.17-19.28,7-12.76,15.09C390.1,40.77,406.08,29.57,399.33,18.86ZM395,28.66c-5.31,5.62-14-2.95-8.85-8.46C391.41,13.62,401.05,23,395,28.66Zm20.22-7.89a9.52,9.52,0,0,0-5.82-5.39,20,20,0,0,1-.05,17.7C414.78,31.57,416.27,25.76,415.19,20.77Zm-17.11-3.54a10.62,10.62,0,0,0-2.72-2.09h0c-10.09-5.65-20.2,9.15-11.41,16.6C393.31,40.6,406.88,26.35,398.08,17.23ZM395,28.66c-5.31,5.62-14-2.95-8.85-8.46C391.41,13.62,401.05,23,395,28.66ZM371,18.36c.39-.91.81-1.84,1.24-2.67a9.54,9.54,0,0,0-4,3.28h2.52ZM370.92,30l-.28-.55h-2.37a9.52,9.52,0,0,0,4.17,3.36C371.92,31.92,371.4,31,370.92,30ZM55.74,76.46c-.46,1-1,2.1-1.49,3.05A9.31,9.31,0,0,0,58.57,77h0a12.15,12.15,0,0,0,.93-1.11H56ZM55.87,65l.28.52H59.5A9.55,9.55,0,0,0,54,61.79C54.63,62.8,55.28,63.92,55.87,65Zm-11.31.29c-7.41-11.62-25.1.44-16.77,11.42C35.33,86.9,51.55,76.06,44.56,65.32ZM36,76.82c-8.18-.14-8.17-12,0-12.28C44,64.73,44.11,76.58,36,76.82ZM17.14,62.42c-7.13,3-7.07,13.6,0,16.54A21,21,0,0,1,17.14,62.42ZM415.19,20.77c-3.67-24.28-37.4-29.07-47-5.8C313,15,252.93,15,197,14.9a13.94,13.94,0,0,0-11.16,5C172.82,33.15,160,45.79,147,59a7.65,7.65,0,0,1-6.18,2.66c-25.11-.16-55.93-.08-82.27-.09C47.19,37.19,13.24,43.34,11.44,69.69c-1,27.29,36.45,35.63,47.14,10.17,26.89,0,62-.06,86.89.08a14.83,14.83,0,0,0,11.75-5C164,68,171,61,177.76,54.25c6-6,12.17-12.17,18.22-18.33,2.89-3.39,7.47-2.41,11.48-2.53,52.15,0,109.28.07,160.75.06C380.49,60.18,418.19,49.2,415.19,20.77ZM400.13,42.63c-5.54,2.81-12.51,3.16-18,.19-5.24-2.75-8.93-8.08-11.51-13.37-54.92.29-116.84-.53-171.43.21a11.54,11.54,0,0,0-6.08,3.46c-6,6.14-12.22,12.32-18.2,18.3-6.88,6.88-14,14-20.91,21.06-4.61,5.15-11.94,3-18,3.42-25.75-.09-54.14,0-80,0-7.53,23.42-41,18.69-40.56-6,2.41-24.11,31.86-26.56,40.71-4.27,24.41,0,50.75,0,75.07,0,6.43-.28,13.8,1.66,18.6-3.8,10.88-11.06,21.57-21.61,32.48-32.62,4.57-3.93,7.82-10.52,14.63-10.27C252.06,19,315.4,19,370.77,19,386.13-18.32,433.2,20.79,400.13,42.63Zm-2.05-25.4a10.62,10.62,0,0,0-2.72-2.09h0c-10.09-5.65-20.2,9.15-11.41,16.6C393.31,40.6,406.88,26.35,398.08,17.23ZM395,28.66c-5.31,5.62-14-2.95-8.85-8.46C391.41,13.62,401.05,23,395,28.66ZM44.56,65.32c-7.41-11.62-25.1.44-16.77,11.42C35.33,86.9,51.55,76.06,44.56,65.32ZM36,76.82c-8.18-.14-8.17-12,0-12.28C44,64.73,44.11,76.58,36,76.82Zm-20.56-7a19.77,19.77,0,0,1,1.7-7.4c-7.13,3-7.07,13.6,0,16.54A21.39,21.39,0,0,1,15.44,69.82Zm29.8-3.27c-6.52-13.3-26.09-1.81-17.45,10.19C34.53,86.31,50.49,77.15,45.24,66.55ZM36,76.82c-8.18-.14-8.17-12,0-12.28C44,64.73,44.11,76.58,36,76.82ZM58.69,64.55A9.61,9.61,0,0,0,54,61.79c.73,1.16,1.48,2.49,2.15,3.76H59.5A11.06,11.06,0,0,0,58.69,64.55ZM56,75.86a39.68,39.68,0,0,1-1.75,3.65A9.31,9.31,0,0,0,58.57,77h0a12.15,12.15,0,0,0,.93-1.11ZM371.15,30.45l-.51-1h-2.37a9.52,9.52,0,0,0,4.17,3.36C372,32.06,371.57,31.27,371.15,30.45ZM369.06,18a9.82,9.82,0,0,0-.81,1h2.52c.46-1.1,1-2.27,1.5-3.28A9.5,9.5,0,0,0,369.06,18Zm30.27.89a10.51,10.51,0,0,0-4-3.72h0c-9.05-5.17-19.28,7-12.76,15.09C390.1,40.77,406.08,29.57,399.33,18.86ZM395,28.66c-5.31,5.62-14-2.95-8.85-8.46C391.41,13.62,401.05,23,395,28.66Zm20.22-7.89a9.52,9.52,0,0,0-5.82-5.39,20,20,0,0,1-.05,17.7C414.78,31.57,416.27,25.76,415.19,20.77Zm-15.86-1.91a10.51,10.51,0,0,0-4-3.72h0c-9.05-5.17-19.28,7-12.76,15.09C390.1,40.77,406.08,29.57,399.33,18.86ZM395,28.66c-5.31,5.62-14-2.95-8.85-8.46C391.41,13.62,401.05,23,395,28.66ZM45.24,66.55c-6.52-13.3-26.09-1.81-17.45,10.19C34.53,86.31,50.49,77.15,45.24,66.55ZM36,76.82c-8.18-.14-8.17-12,0-12.28C44,64.73,44.11,76.58,36,76.82Zm-20.56-7a19.77,19.77,0,0,1,1.7-7.4c-7.13,3-7.07,13.6,0,16.54A21.39,21.39,0,0,1,15.44,69.82Zm29.8-3.27c-6.52-13.3-26.09-1.81-17.45,10.19C34.53,86.31,50.49,77.15,45.24,66.55ZM36,76.82c-8.18-.14-8.17-12,0-12.28C44,64.73,44.11,76.58,36,76.82ZM58.69,64.55A9.61,9.61,0,0,0,54,61.79c.73,1.16,1.48,2.49,2.15,3.76H59.5A11.06,11.06,0,0,0,58.69,64.55ZM56,75.86a39.68,39.68,0,0,1-1.75,3.65A9.31,9.31,0,0,0,58.57,77h0a12.15,12.15,0,0,0,.93-1.11ZM371.15,30.45l-.51-1h-2.37a9.52,9.52,0,0,0,4.17,3.36C372,32.06,371.57,31.27,371.15,30.45ZM369.06,18a9.82,9.82,0,0,0-.81,1h2.52c.46-1.1,1-2.27,1.5-3.28A9.5,9.5,0,0,0,369.06,18Zm30.27.89a10.51,10.51,0,0,0-4-3.72h0c-9.05-5.17-19.28,7-12.76,15.09C390.1,40.77,406.08,29.57,399.33,18.86ZM395,28.66c-5.31,5.62-14-2.95-8.85-8.46C391.41,13.62,401.05,23,395,28.66Zm20.22-7.89a9.52,9.52,0,0,0-5.82-5.39,20,20,0,0,1-.05,17.7C414.78,31.57,416.27,25.76,415.19,20.77Zm-15.86-1.91a10.51,10.51,0,0,0-4-3.72h0c-9.05-5.17-19.28,7-12.76,15.09C390.1,40.77,406.08,29.57,399.33,18.86ZM395,28.66c-5.31,5.62-14-2.95-8.85-8.46C391.41,13.62,401.05,23,395,28.66ZM45.24,66.55c-6.52-13.3-26.09-1.81-17.45,10.19C34.53,86.31,50.49,77.15,45.24,66.55ZM36,76.82c-8.18-.14-8.17-12,0-12.28C44,64.73,44.11,76.58,36,76.82Zm-20.56-7a19.77,19.77,0,0,1,1.7-7.4c-7.13,3-7.07,13.6,0,16.54A21.39,21.39,0,0,1,15.44,69.82Zm29.8-3.27c-6.52-13.3-26.09-1.81-17.45,10.19C34.53,86.31,50.49,77.15,45.24,66.55ZM36,76.82c-8.18-.14-8.17-12,0-12.28C44,64.73,44.11,76.58,36,76.82ZM58.69,64.55A9.61,9.61,0,0,0,54,61.79c.73,1.16,1.48,2.49,2.15,3.76H59.5A11.06,11.06,0,0,0,58.69,64.55ZM56,75.86a39.68,39.68,0,0,1-1.75,3.65A9.31,9.31,0,0,0,58.57,77h0a12.15,12.15,0,0,0,.93-1.11ZM371.15,30.45l-.51-1h-2.37a9.52,9.52,0,0,0,4.17,3.36C372,32.06,371.57,31.27,371.15,30.45ZM369.06,18a9.82,9.82,0,0,0-.81,1h2.52c.46-1.1,1-2.27,1.5-3.28A9.5,9.5,0,0,0,369.06,18Zm30.27.89a10.51,10.51,0,0,0-4-3.72h0c-9.05-5.17-19.28,7-12.76,15.09C390.1,40.77,406.08,29.57,399.33,18.86ZM395,28.66c-5.31,5.62-14-2.95-8.85-8.46C391.41,13.62,401.05,23,395,28.66Zm20.22-7.89a9.52,9.52,0,0,0-5.82-5.39,20,20,0,0,1-.05,17.7C414.78,31.57,416.27,25.76,415.19,20.77Zm-15.86-1.91a10.51,10.51,0,0,0-4-3.72h0c-9.05-5.17-19.28,7-12.76,15.09C390.1,40.77,406.08,29.57,399.33,18.86ZM395,28.66c-5.31,5.62-14-2.95-8.85-8.46C391.41,13.62,401.05,23,395,28.66ZM45.24,66.55c-6.52-13.3-26.09-1.81-17.45,10.19C34.53,86.31,50.49,77.15,45.24,66.55ZM36,76.82c-8.18-.14-8.17-12,0-12.28C44,64.73,44.11,76.58,36,76.82Zm-20.56-7a19.77,19.77,0,0,1,1.7-7.4c-7.13,3-7.07,13.6,0,16.54A21.39,21.39,0,0,1,15.44,69.82Zm29.8-3.27c-6.52-13.3-26.09-1.81-17.45,10.19C34.53,86.31,50.49,77.15,45.24,66.55ZM36,76.82c-8.18-.14-8.17-12,0-12.28C44,64.73,44.11,76.58,36,76.82ZM58.69,64.55A9.61,9.61,0,0,0,54,61.79c.73,1.16,1.48,2.49,2.15,3.76H59.5A11.06,11.06,0,0,0,58.69,64.55ZM56,75.86a39.68,39.68,0,0,1-1.75,3.65A9.31,9.31,0,0,0,58.57,77h0a12.15,12.15,0,0,0,.93-1.11ZM371.15,30.45l-.51-1h-2.37a9.52,9.52,0,0,0,4.17,3.36C372,32.06,371.57,31.27,371.15,30.45ZM369.06,18a9.82,9.82,0,0,0-.81,1h2.52c.46-1.1,1-2.27,1.5-3.28A9.5,9.5,0,0,0,369.06,18Zm30.27.89a10.51,10.51,0,0,0-4-3.72h0c-9.05-5.17-19.28,7-12.76,15.09C390.1,40.77,406.08,29.57,399.33,18.86ZM395,28.66c-5.31,5.62-14-2.95-8.85-8.46C391.41,13.62,401.05,23,395,28.66Zm20.22-7.89a9.52,9.52,0,0,0-5.82-5.39,20,20,0,0,1-.05,17.7C414.78,31.57,416.27,25.76,415.19,20.77Zm-15.86-1.91a10.51,10.51,0,0,0-4-3.72h0c-9.05-5.17-19.28,7-12.76,15.09C390.1,40.77,406.08,29.57,399.33,18.86ZM395,28.66c-5.31,5.62-14-2.95-8.85-8.46C391.41,13.62,401.05,23,395,28.66ZM45.24,66.55c-6.52-13.3-26.09-1.81-17.45,10.19C34.53,86.31,50.49,77.15,45.24,66.55ZM36,76.82c-8.18-.14-8.17-12,0-12.28C44,64.73,44.11,76.58,36,76.82Zm-20.56-7a19.77,19.77,0,0,1,1.7-7.4c-7.13,3-7.07,13.6,0,16.54A21.39,21.39,0,0,1,15.44,69.82Zm29.8-3.27c-6.52-13.3-26.09-1.81-17.45,10.19C34.53,86.31,50.49,77.15,45.24,66.55ZM36,76.82c-8.18-.14-8.17-12,0-12.28C44,64.73,44.11,76.58,36,76.82ZM58.69,64.55A9.61,9.61,0,0,0,54,61.79c.73,1.16,1.48,2.49,2.15,3.76H59.5A11.06,11.06,0,0,0,58.69,64.55ZM56,75.86a39.68,39.68,0,0,1-1.75,3.65A9.31,9.31,0,0,0,58.57,77h0a12.15,12.15,0,0,0,.93-1.11ZM371.15,30.45l-.51-1h-2.37a9.52,9.52,0,0,0,4.17,3.36C372,32.06,371.57,31.27,371.15,30.45ZM369.06,18a9.82,9.82,0,0,0-.81,1h2.52c.46-1.1,1-2.27,1.5-3.28A9.5,9.5,0,0,0,369.06,18Zm30.27.89a10.51,10.51,0,0,0-4-3.72h0c-9.05-5.17-19.28,7-12.76,15.09C390.1,40.77,406.08,29.57,399.33,18.86ZM395,28.66c-5.31,5.62-14-2.95-8.85-8.46C391.41,13.62,401.05,23,395,28.66Zm20.22-7.89a9.52,9.52,0,0,0-5.82-5.39,20,20,0,0,1-.05,17.7C414.78,31.57,416.27,25.76,415.19,20.77Zm-15.86-1.91a10.51,10.51,0,0,0-4-3.72h0c-9.05-5.17-19.28,7-12.76,15.09C390.1,40.77,406.08,29.57,399.33,18.86ZM395,28.66c-5.31,5.62-14-2.95-8.85-8.46C391.41,13.62,401.05,23,395,28.66ZM45.24,66.55c-6.52-13.3-26.09-1.81-17.45,10.19C34.53,86.31,50.49,77.15,45.24,66.55ZM36,76.82c-8.18-.14-8.17-12,0-12.28C44,64.73,44.11,76.58,36,76.82Zm-20.56-7a19.77,19.77,0,0,1,1.7-7.4c-7.13,3-7.07,13.6,0,16.54A21.39,21.39,0,0,1,15.44,69.82Zm29.8-3.27c-6.52-13.3-26.09-1.81-17.45,10.19C34.53,86.31,50.49,77.15,45.24,66.55ZM36,76.82c-8.18-.14-8.17-12,0-12.28C44,64.73,44.11,76.58,36,76.82ZM58.69,64.55A9.61,9.61,0,0,0,54,61.79c.73,1.16,1.48,2.49,2.15,3.76H59.5A11.06,11.06,0,0,0,58.69,64.55ZM56,75.86a39.68,39.68,0,0,1-1.75,3.65A9.31,9.31,0,0,0,58.57,77h0a12.15,12.15,0,0,0,.93-1.11ZM370.92,30l-.28-.55h-2.37a8.55,8.55,0,0,0,.8,1h2.08Zm28.41-11.14a10.51,10.51,0,0,0-4-3.72h0c-9.05-5.17-19.28,7-12.76,15.09C390.1,40.77,406.08,29.57,399.33,18.86ZM395,28.66c-5.31,5.62-14-2.95-8.85-8.46C391.41,13.62,401.05,23,395,28.66Zm4.36-9.8a10.51,10.51,0,0,0-4-3.72h0c-9.05-5.17-19.28,7-12.76,15.09C390.1,40.77,406.08,29.57,399.33,18.86ZM395,28.66c-5.31,5.62-14-2.95-8.85-8.46C391.41,13.62,401.05,23,395,28.66ZM45.24,66.55c-6.52-13.3-26.09-1.81-17.45,10.19C34.53,86.31,50.49,77.15,45.24,66.55ZM36,76.82c-8.18-.14-8.17-12,0-12.28C44,64.73,44.11,76.58,36,76.82Zm-20.56-7a19.77,19.77,0,0,1,1.7-7.4c-7.13,3-7.07,13.6,0,16.54A21.39,21.39,0,0,1,15.44,69.82Zm29.8-3.27c-6.52-13.3-26.09-1.81-17.45,10.19C34.53,86.31,50.49,77.15,45.24,66.55ZM36,76.82c-8.18-.14-8.17-12,0-12.28C44,64.73,44.11,76.58,36,76.82ZM58.69,64.55A9.61,9.61,0,0,0,54,61.79c.73,1.16,1.48,2.49,2.15,3.76H59.5A11.06,11.06,0,0,0,58.69,64.55ZM56,75.86a39.68,39.68,0,0,1-1.75,3.65A9.31,9.31,0,0,0,58.57,77h0a12.15,12.15,0,0,0,.93-1.11Zm343.33-57a10.51,10.51,0,0,0-4-3.72h0c-9.05-5.17-19.28,7-12.76,15.09C390.1,40.77,406.08,29.57,399.33,18.86ZM395,28.66c-5.31,5.62-14-2.95-8.85-8.46C391.41,13.62,401.05,23,395,28.66Zm4.36-9.8a10.51,10.51,0,0,0-4-3.72h0c-9.05-5.17-19.28,7-12.76,15.09C390.1,40.77,406.08,29.57,399.33,18.86ZM395,28.66c-5.31,5.62-14-2.95-8.85-8.46C391.41,13.62,401.05,23,395,28.66ZM45.24,66.55c-6.52-13.3-26.09-1.81-17.45,10.19C34.53,86.31,50.49,77.15,45.24,66.55ZM36,76.82c-8.18-.14-8.17-12,0-12.28C44,64.73,44.11,76.58,36,76.82Zm-20.56-7a19.77,19.77,0,0,1,1.7-7.4c-7.13,3-7.07,13.6,0,16.54A21.39,21.39,0,0,1,15.44,69.82Zm29.8-3.27c-6.52-13.3-26.09-1.81-17.45,10.19C34.53,86.31,50.49,77.15,45.24,66.55ZM36,76.82c-8.18-.14-8.17-12,0-12.28C44,64.73,44.11,76.58,36,76.82ZM58.69,64.55A9.61,9.61,0,0,0,54,61.79c.73,1.16,1.48,2.49,2.15,3.76H59.5A11.06,11.06,0,0,0,58.69,64.55ZM56,75.86a39.68,39.68,0,0,1-1.75,3.65A9.31,9.31,0,0,0,58.57,77h0a12.15,12.15,0,0,0,.93-1.11Zm343.33-57a10.51,10.51,0,0,0-4-3.72h0c-9.05-5.17-19.28,7-12.76,15.09C390.1,40.77,406.08,29.57,399.33,18.86ZM395,28.66c-5.31,5.62-14-2.95-8.85-8.46C391.41,13.62,401.05,23,395,28.66Zm4.36-9.8a10.51,10.51,0,0,0-4-3.72h0c-9.05-5.17-19.28,7-12.76,15.09C390.1,40.77,406.08,29.57,399.33,18.86ZM395,28.66c-5.31,5.62-14-2.95-8.85-8.46C391.41,13.62,401.05,23,395,28.66ZM45.24,66.55c-6.52-13.3-26.09-1.81-17.45,10.19C34.53,86.31,50.49,77.15,45.24,66.55ZM36,76.82c-8.18-.14-8.17-12,0-12.28C44,64.73,44.11,76.58,36,76.82Zm-20.56-7a19.77,19.77,0,0,1,1.7-7.4c-7.13,3-7.07,13.6,0,16.54A21.39,21.39,0,0,1,15.44,69.82Zm29.8-3.27c-6.52-13.3-26.09-1.81-17.45,10.19C34.53,86.31,50.49,77.15,45.24,66.55ZM36,76.82c-8.18-.14-8.17-12,0-12.28C44,64.73,44.11,76.58,36,76.82ZM58.69,64.55A9.61,9.61,0,0,0,54,61.79c.73,1.16,1.48,2.49,2.15,3.76H59.5A11.06,11.06,0,0,0,58.69,64.55ZM56,75.86a39.68,39.68,0,0,1-1.75,3.65A9.31,9.31,0,0,0,58.57,77h0a12.15,12.15,0,0,0,.93-1.11Zm343.33-57a10.51,10.51,0,0,0-4-3.72h0c-9.05-5.17-19.28,7-12.76,15.09C390.1,40.77,406.08,29.57,399.33,18.86ZM395,28.66c-5.31,5.62-14-2.95-8.85-8.46C391.41,13.62,401.05,23,395,28.66Zm4.36-9.8a10.51,10.51,0,0,0-4-3.72h0c-9.05-5.17-19.28,7-12.76,15.09C390.1,40.77,406.08,29.57,399.33,18.86ZM395,28.66c-5.31,5.62-14-2.95-8.85-8.46C391.41,13.62,401.05,23,395,28.66ZM45.24,66.55c-6.52-13.3-26.09-1.81-17.45,10.19C34.53,86.31,50.49,77.15,45.24,66.55ZM36,76.82c-8.18-.14-8.17-12,0-12.28C44,64.73,44.11,76.58,36,76.82Zm-20.56-7a19.77,19.77,0,0,1,1.7-7.4c-7.13,3-7.07,13.6,0,16.54A21.39,21.39,0,0,1,15.44,69.82Zm29.8-3.27c-6.52-13.3-26.09-1.81-17.45,10.19C34.53,86.31,50.49,77.15,45.24,66.55ZM36,76.82c-8.18-.14-8.17-12,0-12.28C44,64.73,44.11,76.58,36,76.82ZM58.69,64.55A9.61,9.61,0,0,0,54,61.79c.73,1.16,1.48,2.49,2.15,3.76H59.5A11.06,11.06,0,0,0,58.69,64.55ZM56,75.86a39.68,39.68,0,0,1-1.75,3.65A9.31,9.31,0,0,0,58.57,77h0a12.15,12.15,0,0,0,.93-1.11Zm343.33-57a10.51,10.51,0,0,0-4-3.72h0c-9.05-5.17-19.28,7-12.76,15.09C390.1,40.77,406.08,29.57,399.33,18.86ZM395,28.66c-5.31,5.62-14-2.95-8.85-8.46C391.41,13.62,401.05,23,395,28.66Zm4.36-9.8a10.51,10.51,0,0,0-4-3.72h0c-9.05-5.17-19.28,7-12.76,15.09C390.1,40.77,406.08,29.57,399.33,18.86ZM395,28.66c-5.31,5.62-14-2.95-8.85-8.46C391.41,13.62,401.05,23,395,28.66ZM45.24,66.55c-6.52-13.3-26.09-1.81-17.45,10.19C34.53,86.31,50.49,77.15,45.24,66.55ZM36,76.82c-8.18-.14-8.17-12,0-12.28C44,64.73,44.11,76.58,36,76.82Zm-20.56-7a19.77,19.77,0,0,1,1.7-7.4c-7.13,3-7.07,13.6,0,16.54A21.39,21.39,0,0,1,15.44,69.82Zm29.8-3.27c-6.52-13.3-26.09-1.81-17.45,10.19C34.53,86.31,50.49,77.15,45.24,66.55ZM36,76.82c-8.18-.14-8.17-12,0-12.28C44,64.73,44.11,76.58,36,76.82ZM58.69,64.55A9.61,9.61,0,0,0,54,61.79c.73,1.16,1.48,2.49,2.15,3.76H59.5A11.06,11.06,0,0,0,58.69,64.55ZM56,75.86a39.68,39.68,0,0,1-1.75,3.65A9.31,9.31,0,0,0,58.57,77h0a12.15,12.15,0,0,0,.93-1.11Zm343.33-57a10.51,10.51,0,0,0-4-3.72h0c-9.05-5.17-19.28,7-12.76,15.09C390.1,40.77,406.08,29.57,399.33,18.86ZM395,28.66c-5.31,5.62-14-2.95-8.85-8.46C391.41,13.62,401.05,23,395,28.66Zm4.36-9.8a10.51,10.51,0,0,0-4-3.72h0c-9.05-5.17-19.28,7-12.76,15.09C390.1,40.77,406.08,29.57,399.33,18.86ZM395,28.66c-5.31,5.62-14-2.95-8.85-8.46C391.41,13.62,401.05,23,395,28.66ZM45.24,66.55c-6.52-13.3-26.09-1.81-17.45,10.19C34.53,86.31,50.49,77.15,45.24,66.55ZM36,76.82c-8.18-.14-8.17-12,0-12.28C44,64.73,44.11,76.58,36,76.82Zm-20.56-7a19.77,19.77,0,0,1,1.7-7.4c-7.13,3-7.07,13.6,0,16.54A21.39,21.39,0,0,1,15.44,69.82Zm29.8-3.27c-6.52-13.3-26.09-1.81-17.45,10.19C34.53,86.31,50.49,77.15,45.24,66.55ZM36,76.82c-8.18-.14-8.17-12,0-12.28C44,64.73,44.11,76.58,36,76.82ZM58.69,64.55A9.61,9.61,0,0,0,54,61.79c.73,1.16,1.48,2.49,2.15,3.76H59.5A11.06,11.06,0,0,0,58.69,64.55ZM56,75.86a39.68,39.68,0,0,1-1.75,3.65A9.31,9.31,0,0,0,58.57,77h0a12.15,12.15,0,0,0,.93-1.11Zm343.33-57a10.51,10.51,0,0,0-4-3.72h0c-9.05-5.17-19.28,7-12.76,15.09C390.1,40.77,406.08,29.57,399.33,18.86ZM395,28.66c-5.31,5.62-14-2.95-8.85-8.46C391.41,13.62,401.05,23,395,28.66Zm4.36-9.8a10.51,10.51,0,0,0-4-3.72h0c-9.05-5.17-19.28,7-12.76,15.09C390.1,40.77,406.08,29.57,399.33,18.86ZM395,28.66c-5.31,5.62-14-2.95-8.85-8.46C391.41,13.62,401.05,23,395,28.66ZM45.24,66.55c-6.52-13.3-26.09-1.81-17.45,10.19C34.53,86.31,50.49,77.15,45.24,66.55ZM36,76.82c-8.18-.14-8.17-12,0-12.28C44,64.73,44.11,76.58,36,76.82Z"/></svg>