<svg id="Finished" xmlns="http://www.w3.org/2000/svg" viewBox="0 0 529 91"><defs><style>.cls-1{fill:#4df4e4;}.cls-2{fill:red;}.cls-3{fill:#fff;}</style></defs><path class="cls-1" d="M518.91,24.69a11.31,11.31,0,0,1-4.27,8.92,9.39,9.39,0,0,0,1-4.15,9.13,9.13,0,0,0,0-9.39,9.4,9.4,0,0,0-.88-4A11.18,11.18,0,0,1,518.91,24.69Z"/><path class="cls-1" d="M261.2,34c-11.47,11.53-23.37,23.32-34.58,34.76-4.21,4.91-10.28,4.1-16.09,4.08a19.22,19.22,0,0,0,2.23-2c4.64.1,9.15.36,12.42-3.49,10.74-11,22.26-22.21,33.12-33.36Z"/><path class="cls-1" d="M71.85,75.79C67.41,84.93,58.38,89.6,48.79,87.93a21.23,21.23,0,0,0,2.5-1.71A19,19,0,0,0,69.58,75.79Z"/><path class="cls-1" d="M71.73,57.53H69.35C63.92,49.6,58.24,46.31,50.77,47.16a25.61,25.61,0,0,0-2.22-1.66C58.05,43.58,65.23,47.54,71.73,57.53Z"/><path class="cls-1" d="M528.63,30.28c-3.31,11.49-13.36,17.5-24.24,15.81A20.93,20.93,0,0,0,507,44.3c26.1,1.13,27-39.77.18-39a21.29,21.29,0,0,0-2.76-1.83c11.08-1.39,21.48,4.33,24.19,15.86Z"/><path class="cls-2" d="M13.15,73.85a11.2,11.2,0,0,1,0-14.38A25.32,25.32,0,0,0,13.15,73.85Z"/><path class="cls-2" d="M239.33,18.45a18.17,18.17,0,0,0-2.48,2c-5-.21-9.11.78-12.19,4.25C213.9,36,203,46.46,192,57.61h-2.87C200.61,46.07,212,35,223.22,23.31,227.1,18.69,233.22,18.15,239.33,18.45Z"/><path class="cls-2" d="M21.64,86.27a23.74,23.74,0,0,0,2.71,1.82c-32.08,2.82-32-45.73.33-42.86A22.44,22.44,0,0,0,21.89,47C-4.29,47.67-4.18,85.78,21.64,86.27Z"/><path class="cls-2" d="M479.89,46.15c-9.73,1.08-16.65-2.55-22.06-12h2.34c4.44,7.21,9.77,10.37,17.15,10.21A21.25,21.25,0,0,0,479.89,46.15Z"/><path class="cls-2" d="M479.49,3.48A21.7,21.7,0,0,0,477,5.3c-7.36-.17-13,3.19-17,10.24h-2.28C462.57,6.29,469.73,2.35,479.49,3.48Z"/><path class="cls-3" d="M41.93,69.73a5.42,5.42,0,0,1-.81,1.06H42.3C42.16,70.44,42,70.09,41.93,69.73ZM487.16,28.79c0,.1-.08.21-.12.31h.42C487.35,29,487.26,28.9,487.16,28.79Zm-.09-8.25c0,.1.08.19.11.29a3.58,3.58,0,0,1,.26-.29ZM46.78,65.49c-.8-8.8-13.24-12.14-18.31-4.87h0c-4.65,5.85-.54,15.29,6.81,16.17C41.55,77.76,47.66,71.77,46.78,65.49Zm-6.07,5.7c-4.83,4.94-12.9-1.86-9.43-7.56C36,55.73,47.74,64.8,40.71,71.19ZM501.86,23.87a10.16,10.16,0,0,0-11.49-9.16c-7.44,1-11.6,10.67-6.43,16.43a10,10,0,0,0,11.6,3.18,10.57,10.57,0,0,0,5.76-6.06A10,10,0,0,0,501.86,23.87Zm-4.24,2.77c-2.29,7.59-13.58,4.22-11.82-3.26C488,15.31,500,18.59,497.62,26.64Zm18-6.57a9,9,0,0,0-5.22-4.1c1.8,2.21,1.15,11.5,1.26,14.16a27.06,27.06,0,0,1-1.41,3.59C517.78,31.35,515.23,26,515.59,20.07Zm-13.73,3.8a10.16,10.16,0,0,0-11.49-9.16c-7.44,1-11.6,10.67-6.43,16.43a10,10,0,0,0,11.6,3.18,10.57,10.57,0,0,0,5.76-6.06A10,10,0,0,0,501.86,23.87Zm-4.24,2.77c-2.29,7.59-13.58,4.22-11.82-3.26C488,15.31,500,18.59,497.62,26.64ZM472.37,31.1c-.13-.27-.35-.73-.49-1h-2.49a9.81,9.81,0,0,0,4.2,3.31C473.18,32.68,472.77,31.91,472.37,31.1ZM473,16.51a9.93,9.93,0,0,0-3.6,3h2.55c.46-1.09.95-2.2,1.49-3.22ZM243.35,34.38c-.72.74-1.45,1.49-2.19,2.23,1-1,2-2,3-3C243.87,33.86,243.61,34.11,243.35,34.38ZM56.55,71.79a37.47,37.47,0,0,1-1.71,3.8,9.87,9.87,0,0,0,5.34-3.8Zm2.84-11.26a9.1,9.1,0,0,0-4.65-2.7c.56.87,1.13,1.77,1.63,2.7h0c.17.29.4.7.56,1h3.27A8.53,8.53,0,0,0,59.39,60.53Zm-12.61,5c-.8-8.8-13.24-12.14-18.31-4.87h0c-4.65,5.85-.54,15.29,6.81,16.17C41.55,77.76,47.66,71.77,46.78,65.49Zm-6.07,5.7c-4.83,4.94-12.9-1.86-9.43-7.56C36,55.73,47.74,64.8,40.71,71.19ZM17.38,73.9a21,21,0,0,1,.37-15.48c-7,2.87-6.75,13.72.07,16.6C17.66,74.65,17.51,74.28,17.38,73.9Zm29.4-8.41c-.8-8.8-13.24-12.14-18.31-4.87h0c-4.65,5.85-.54,15.29,6.81,16.17C41.55,77.76,47.66,71.77,46.78,65.49Zm-6.07,5.7c-4.83,4.94-12.9-1.86-9.43-7.56C36,55.73,47.74,64.8,40.71,71.19ZM501.86,23.87a10.16,10.16,0,0,0-11.49-9.16c-7.44,1-11.6,10.67-6.43,16.43a10,10,0,0,0,11.6,3.18,10.57,10.57,0,0,0,5.76-6.06A10,10,0,0,0,501.86,23.87Zm-4.24,2.77c-2.29,7.59-13.58,4.22-11.82-3.26C488,15.31,500,18.59,497.62,26.64Zm18-6.57a9,9,0,0,0-5.22-4.1c1.8,2.21,1.15,11.5,1.26,14.16a27.06,27.06,0,0,1-1.41,3.59C517.78,31.35,515.23,26,515.59,20.07Zm-13.73,3.8a10.16,10.16,0,0,0-11.49-9.16c-7.44,1-11.6,10.67-6.43,16.43a10,10,0,0,0,11.6,3.18,10.57,10.57,0,0,0,5.76-6.06A10,10,0,0,0,501.86,23.87Zm-4.24,2.77c-2.29,7.59-13.58,4.22-11.82-3.26C488,15.31,500,18.59,497.62,26.64ZM482.1,42.84c-4.78-2.89-7.84-7.79-10.22-12.74H458c.66,1.35,1.43,2.78,2.18,4h9.24a33.21,33.21,0,0,0,7.91,10.21,20.23,20.23,0,0,0,5.83-.9Q482.63,43.14,482.1,42.84ZM479.24,5.46c-.77-.09-1.53-.14-2.27-.16a29.66,29.66,0,0,0-7.65,10.24H460a35.37,35.37,0,0,0-2,4h13.91c.46-1.09,1-2.2,1.49-3.23h0c2.15-4.22,5.24-8,9.48-10.13A22.68,22.68,0,0,0,479.24,5.46ZM253.75,30c-5.18-.32-9.33,2.83-12.59,6.6-8.49,8.7-16.95,17-25.47,25.59h0c-3.13,2.85-5.73,6.68-9.49,8.65l6.57,0c10.89-11.17,22.41-22.36,33.46-33.7,3.13-3.71,7.68-3.2,12.08-3.15a15.54,15.54,0,0,1,5.58-4Zm-16.9-9.57c-6.45,6.69-13.11,13.41-19.65,19.88-4.81,4.78-9.51,9.46-14.17,14.23-2.95,3.45-6.91,3.13-11,3.06a16,16,0,0,1-5.46,4c6.63-.18,14.46,1.46,19.31-4.24C215,48,224.13,39.2,233.25,29.88c3.53-3.22,6.26-7.65,10.81-9.43ZM71.78,61.5c-.75-1.36-1.6-2.76-2.43-4H59.26a39.47,39.47,0,0,0-8.49-10.37,21.91,21.91,0,0,0-5.12,1.26c4.66,2.78,8,7.36,10.72,12.11h0c.17.29.4.7.56,1H71.79ZM56.55,71.79a37.47,37.47,0,0,1-1.71,3.8h0a21,21,0,0,1-9.13,9.47,21.1,21.1,0,0,0,5.59,1.16A27.69,27.69,0,0,0,59.2,75.79H69.58a33.42,33.42,0,0,0,1.89-4Zm-9.77-6.3c-.8-8.8-13.24-12.14-18.31-4.87h0c-4.65,5.85-.54,15.29,6.81,16.17C41.55,77.76,47.66,71.77,46.78,65.49Zm-6.07,5.7c-4.83,4.94-12.9-1.86-9.43-7.56C36,55.73,47.74,64.8,40.71,71.19ZM24.28,83.26C12.14,74.61,14,54,27.82,48.12A15.46,15.46,0,0,0,21.89,47c-13,9-12.83,30-.25,39.25a18.43,18.43,0,0,0,6-1A19.92,19.92,0,0,1,24.28,83.26Zm22.5-17.77c-.8-8.8-13.24-12.14-18.31-4.87h0c-4.65,5.85-.54,15.29,6.81,16.17C41.55,77.76,47.66,71.77,46.78,65.49Zm-6.07,5.7c-4.83,4.94-12.9-1.86-9.43-7.56C36,55.73,47.74,64.8,40.71,71.19ZM501.86,23.87a10.16,10.16,0,0,0-11.49-9.16c-7.44,1-11.6,10.67-6.43,16.43a10,10,0,0,0,11.6,3.18,10.57,10.57,0,0,0,5.76-6.06A10,10,0,0,0,501.86,23.87Zm-4.24,2.77c-2.29,7.59-13.58,4.22-11.82-3.26C488,15.31,500,18.59,497.62,26.64Zm18-6.57a9,9,0,0,0-5.22-4.1c1.8,2.21,1.15,11.5,1.26,14.16a27.06,27.06,0,0,1-1.41,3.59C517.78,31.35,515.23,26,515.59,20.07Zm-13.73,3.8a10.16,10.16,0,0,0-11.49-9.16c-7.44,1-11.6,10.67-6.43,16.43a10,10,0,0,0,11.6,3.18,10.57,10.57,0,0,0,5.76-6.06A10,10,0,0,0,501.86,23.87Zm-4.24,2.77c-2.29,7.59-13.58,4.22-11.82-3.26C488,15.31,500,18.59,497.62,26.64ZM472.37,31.1c-.13-.27-.35-.73-.49-1h-2.49a9.81,9.81,0,0,0,4.2,3.31C473.18,32.68,472.77,31.91,472.37,31.1ZM473,16.51a9.93,9.93,0,0,0-3.6,3h2.55c.46-1.09.95-2.2,1.49-3.22ZM243.35,34.38c-.72.74-1.45,1.49-2.19,2.23,1-1,2-2,3-3C243.87,33.86,243.61,34.11,243.35,34.38ZM56.55,71.79a37.47,37.47,0,0,1-1.71,3.8,9.87,9.87,0,0,0,5.34-3.8Zm2.84-11.26a9.1,9.1,0,0,0-4.65-2.7c.56.87,1.13,1.77,1.63,2.7h0c.17.29.4.7.56,1h3.27A8.53,8.53,0,0,0,59.39,60.53Zm-12.61,5c-.8-8.8-13.24-12.14-18.31-4.87h0c-4.65,5.85-.54,15.29,6.81,16.17C41.55,77.76,47.66,71.77,46.78,65.49Zm-6.07,5.7c-4.83,4.94-12.9-1.86-9.43-7.56C36,55.73,47.74,64.8,40.71,71.19ZM17.38,73.9a21,21,0,0,1,.37-15.48c-7,2.87-6.75,13.72.07,16.6C17.66,74.65,17.51,74.28,17.38,73.9Zm29.4-8.41c-.8-8.8-13.24-12.14-18.31-4.87h0c-4.65,5.85-.54,15.29,6.81,16.17C41.55,77.76,47.66,71.77,46.78,65.49Zm-6.07,5.7c-4.83,4.94-12.9-1.86-9.43-7.56C36,55.73,47.74,64.8,40.71,71.19ZM501.86,23.87a10.16,10.16,0,0,0-11.49-9.16c-7.44,1-11.6,10.67-6.43,16.43a10,10,0,0,0,11.6,3.18,10.57,10.57,0,0,0,5.76-6.06A10,10,0,0,0,501.86,23.87Zm-4.24,2.77c-2.29,7.59-13.58,4.22-11.82-3.26C488,15.31,500,18.59,497.62,26.64Zm18-6.57a9,9,0,0,0-5.22-4.1c1.8,2.21,1.15,11.5,1.26,14.16a27.06,27.06,0,0,1-1.41,3.59C517.78,31.35,515.23,26,515.59,20.07Zm-13.73,3.8a10.16,10.16,0,0,0-11.49-9.16c-7.44,1-11.6,10.67-6.43,16.43a10,10,0,0,0,11.6,3.18,10.57,10.57,0,0,0,5.76-6.06A10,10,0,0,0,501.86,23.87Zm-4.24,2.77c-2.29,7.59-13.58,4.22-11.82-3.26C488,15.31,500,18.59,497.62,26.64ZM472.37,31.1c-.13-.27-.35-.73-.49-1h-2.49a9.81,9.81,0,0,0,4.2,3.31C473.18,32.68,472.77,31.91,472.37,31.1ZM473,16.51a9.93,9.93,0,0,0-3.6,3h2.55c.46-1.09.95-2.2,1.49-3.22ZM243.35,34.38c-.72.74-1.45,1.49-2.19,2.23,1-1,2-2,3-3C243.87,33.86,243.61,34.11,243.35,34.38ZM56.55,71.79a37.47,37.47,0,0,1-1.71,3.8,9.87,9.87,0,0,0,5.34-3.8Zm2.84-11.26a9.1,9.1,0,0,0-4.65-2.7c.56.87,1.13,1.77,1.63,2.7h0c.17.29.4.7.56,1h3.27A8.53,8.53,0,0,0,59.39,60.53Zm-12.61,5c-.8-8.8-13.24-12.14-18.31-4.87h0c-4.65,5.85-.54,15.29,6.81,16.17C41.55,77.76,47.66,71.77,46.78,65.49Zm-6.07,5.7c-4.83,4.94-12.9-1.86-9.43-7.56C36,55.73,47.74,64.8,40.71,71.19ZM17.38,73.9a21,21,0,0,1,.37-15.48c-7,2.87-6.75,13.72.07,16.6C17.66,74.65,17.51,74.28,17.38,73.9Zm29.4-8.41c-.8-8.8-13.24-12.14-18.31-4.87h0c-4.65,5.85-.54,15.29,6.81,16.17C41.55,77.76,47.66,71.77,46.78,65.49Zm-6.07,5.7c-4.83,4.94-12.9-1.86-9.43-7.56C36,55.73,47.74,64.8,40.71,71.19ZM501.86,23.87a10.16,10.16,0,0,0-11.49-9.16c-7.44,1-11.6,10.67-6.43,16.43a10,10,0,0,0,11.6,3.18,10.57,10.57,0,0,0,5.76-6.06A10,10,0,0,0,501.86,23.87Zm-4.24,2.77c-2.29,7.59-13.58,4.22-11.82-3.26C488,15.31,500,18.59,497.62,26.64Zm18-6.57a9,9,0,0,0-5.22-4.1c1.8,2.21,1.15,11.5,1.26,14.16a27.06,27.06,0,0,1-1.41,3.59C517.78,31.35,515.23,26,515.59,20.07Zm-13.73,3.8a10.16,10.16,0,0,0-11.49-9.16c-7.44,1-11.6,10.67-6.43,16.43a10,10,0,0,0,11.6,3.18,10.57,10.57,0,0,0,5.76-6.06A10,10,0,0,0,501.86,23.87Zm-4.24,2.77c-2.29,7.59-13.58,4.22-11.82-3.26C488,15.31,500,18.59,497.62,26.64ZM472.37,31.1c-.13-.27-.35-.73-.49-1h-2.49a9.81,9.81,0,0,0,4.2,3.31C473.18,32.68,472.77,31.91,472.37,31.1ZM473,16.51a9.93,9.93,0,0,0-3.6,3h2.55c.46-1.09.95-2.2,1.49-3.22ZM243.35,34.38c-.72.74-1.45,1.49-2.19,2.23,1-1,2-2,3-3C243.87,33.86,243.61,34.11,243.35,34.38ZM56.55,71.79a37.47,37.47,0,0,1-1.71,3.8,9.87,9.87,0,0,0,5.34-3.8Zm2.84-11.26a9.1,9.1,0,0,0-4.65-2.7c.56.87,1.13,1.77,1.63,2.7h0c.17.29.4.7.56,1h3.27A8.53,8.53,0,0,0,59.39,60.53Zm-12.61,5c-.8-8.8-13.24-12.14-18.31-4.87h0c-4.65,5.85-.54,15.29,6.81,16.17C41.55,77.76,47.66,71.77,46.78,65.49Zm-6.07,5.7c-4.83,4.94-12.9-1.86-9.43-7.56C36,55.73,47.74,64.8,40.71,71.19ZM17.38,73.9a21,21,0,0,1,.37-15.48c-7,2.87-6.75,13.72.07,16.6C17.66,74.65,17.51,74.28,17.38,73.9Zm29.4-8.41c-.8-8.8-13.24-12.14-18.31-4.87h0c-4.65,5.85-.54,15.29,6.81,16.17C41.55,77.76,47.66,71.77,46.78,65.49Zm-6.07,5.7c-4.83,4.94-12.9-1.86-9.43-7.56C36,55.73,47.74,64.8,40.71,71.19ZM501.86,23.87a10.16,10.16,0,0,0-11.49-9.16c-7.44,1-11.6,10.67-6.43,16.43a10,10,0,0,0,11.6,3.18,10.57,10.57,0,0,0,5.76-6.06A10,10,0,0,0,501.86,23.87Zm-4.24,2.77c-2.29,7.59-13.58,4.22-11.82-3.26C488,15.31,500,18.59,497.62,26.64Zm18-6.57a9,9,0,0,0-5.22-4.1c1.8,2.21,1.15,11.5,1.26,14.16a27.06,27.06,0,0,1-1.41,3.59C517.78,31.35,515.23,26,515.59,20.07Zm-13.73,3.8a10.16,10.16,0,0,0-11.49-9.16c-7.44,1-11.6,10.67-6.43,16.43a10,10,0,0,0,11.6,3.18,10.57,10.57,0,0,0,5.76-6.06A10,10,0,0,0,501.86,23.87Zm-4.24,2.77c-2.29,7.59-13.58,4.22-11.82-3.26C488,15.31,500,18.59,497.62,26.64ZM472.37,31.1c-.13-.27-.35-.73-.49-1h-2.49a9.81,9.81,0,0,0,4.2,3.31C473.18,32.68,472.77,31.91,472.37,31.1ZM473,16.51a9.93,9.93,0,0,0-3.6,3h2.55c.46-1.09.95-2.2,1.49-3.22ZM243.35,34.38c-.72.74-1.45,1.49-2.19,2.23,1-1,2-2,3-3C243.87,33.86,243.61,34.11,243.35,34.38ZM56.55,71.79a37.47,37.47,0,0,1-1.71,3.8,9.87,9.87,0,0,0,5.34-3.8Zm2.84-11.26a9.1,9.1,0,0,0-4.65-2.7c.56.87,1.13,1.77,1.63,2.7h0c.17.29.4.7.56,1h3.27A8.53,8.53,0,0,0,59.39,60.53Zm-12.61,5c-.8-8.8-13.24-12.14-18.31-4.87h0c-4.65,5.85-.54,15.29,6.81,16.17C41.55,77.76,47.66,71.77,46.78,65.49Zm-6.07,5.7c-4.83,4.94-12.9-1.86-9.43-7.56C36,55.73,47.74,64.8,40.71,71.19ZM17.38,73.9a21,21,0,0,1,.37-15.48c-7,2.87-6.75,13.72.07,16.6C17.66,74.65,17.51,74.28,17.38,73.9Zm29.4-8.41c-.8-8.8-13.24-12.14-18.31-4.87h0c-4.65,5.85-.54,15.29,6.81,16.17C41.55,77.76,47.66,71.77,46.78,65.49Zm-6.07,5.7c-4.83,4.94-12.9-1.86-9.43-7.56C36,55.73,47.74,64.8,40.71,71.19ZM501.86,23.87a10.16,10.16,0,0,0-11.49-9.16c-7.44,1-11.6,10.67-6.43,16.43a10,10,0,0,0,11.6,3.18,10.57,10.57,0,0,0,5.76-6.06A10,10,0,0,0,501.86,23.87Zm-4.24,2.77c-2.29,7.59-13.58,4.22-11.82-3.26C488,15.31,500,18.59,497.62,26.64Zm4.24-2.77a10.16,10.16,0,0,0-11.49-9.16c-7.44,1-11.6,10.67-6.43,16.43a10,10,0,0,0,11.6,3.18,10.57,10.57,0,0,0,5.76-6.06A10,10,0,0,0,501.86,23.87Zm-4.24,2.77c-2.29,7.59-13.58,4.22-11.82-3.26C488,15.31,500,18.59,497.62,26.64Zm-25.45-7.71c.39-.89.79-1.77,1.23-2.61a9.76,9.76,0,0,0-4,3.22h2.55Zm0,11.73-.27-.56h-2.49a9.81,9.81,0,0,0,4.2,3.31C473.11,32.55,472.62,31.59,472.15,30.66ZM46.72,65.05c-1.17-8.55-13.29-11.53-18.25-4.43h0c-4.77,6-.32,15.68,7.26,16.22C42,77.51,47.89,71.3,46.72,65.05Zm-6,6.14c-4.83,4.94-12.9-1.86-9.43-7.56C36,55.73,47.74,64.8,40.71,71.19ZM17.08,73a21,21,0,0,1,.67-14.6c-7,2.87-6.75,13.72.07,16.6C17.54,74.36,17.3,73.7,17.08,73ZM515.59,20.07C512.31-3.8,478-6.79,469.32,15.54c-72.28,0-140.18,0-219-.1-4.49,0-7.94,1-11,3-7.84,6.64-14.67,14.9-22.15,21.87-6.46,4.94-13.17,17-21.24,17.3-44.93-.14-91.38-.1-136.7-.09-11.69-24.51-46-18-47.18,8.75-.38,27,36.79,34.65,47.12,9.51,48.79,0,89.61-.06,141.8.09,12.17-.06,19.4-14.64,28.46-21.82,5.51-5.5,11.2-11.19,16.76-16.89,3.79-4.46,9.81-2.9,15-3.15,67.79.09,141,.08,208.21.08,9.54,21.74,40.3,19.67,46.22-3.36C515.62,30.32,515.61,20.82,515.59,20.07Zm-5.38,13.65c-8.85,17.81-31.78,14.2-38.33-3.62-67,0-141.42,0-208-.07-5.4.31-11.18-1-16.28,1.22-11.69,9-21.07,20.89-31.91,31h0c-4.31,4-8.05,10.12-14.68,9.68q-19.41-.06-38.84-.08c-33.95,0-71.54,0-105.61,0a37.47,37.47,0,0,1-1.71,3.8h0c-8.89,19-37.7,13.23-38.7-7.68C14.86,55.25,27.29,44.24,39.64,46.23c7.76,1.19,13,7.77,16.73,14.3h0c.17.29.4.7.56,1,27.17,0,56,0,83.09,0,15.5,0,31.07,0,46.55.06,5.3-.31,11.1,1.09,15.94-1.57,11-9.3,20.34-20.15,30.74-30.14,4.65-4.74,9.09-10.91,16.48-10.43,69.5.08,152.16.1,222.17.09.46-1.09,1-2.2,1.49-3.23h0c6.2-15.7,30.67-16,36.95-.34h0c1.8,2.21,1.15,11.5,1.26,14.16a27.06,27.06,0,0,1-1.41,3.59Zm-8.4-10.34a10.16,10.16,0,0,0-11.44-8.67c-7.44,1-11.6,10.67-6.43,16.43a10,10,0,0,0,11.6,3.18,10.57,10.57,0,0,0,5.76-6.06A10.13,10.13,0,0,0,501.81,23.38Zm-4.19,3.26c-2.29,7.59-13.58,4.22-11.82-3.26C488,15.31,500,18.59,497.62,26.64ZM46.72,65.05c-1.17-8.55-13.29-11.53-18.25-4.43h0c-4.77,6-.32,15.68,7.26,16.22C42,77.51,47.89,71.3,46.72,65.05Zm-6,6.14c-4.83,4.94-12.9-1.86-9.43-7.56C36,55.73,47.74,64.8,40.71,71.19ZM17.38,73.9a21,21,0,0,1,.37-15.48c-7,2.87-6.75,13.72.07,16.6C17.66,74.65,17.51,74.28,17.38,73.9Zm29.4-8.41c-.8-8.8-13.24-12.14-18.31-4.87h0c-4.65,5.85-.54,15.29,6.81,16.17C41.55,77.76,47.66,71.77,46.78,65.49Zm-6.07,5.7c-4.83,4.94-12.9-1.86-9.43-7.56C36,55.73,47.74,64.8,40.71,71.19ZM59.39,60.53a9.1,9.1,0,0,0-4.65-2.7c.56.87,1.13,1.77,1.63,2.7h0c.17.29.4.7.56,1h3.27A8.53,8.53,0,0,0,59.39,60.53ZM56.55,71.79a37.47,37.47,0,0,1-1.71,3.8,9.87,9.87,0,0,0,5.34-3.8Zm186.8-37.41c-.72.74-1.45,1.49-2.19,2.23,1-1,2-2,3-3C243.87,33.86,243.61,34.11,243.35,34.38ZM473,16.51a9.93,9.93,0,0,0-3.6,3h2.55c.46-1.09.95-2.2,1.49-3.22Zm-.59,14.59c-.13-.27-.35-.73-.49-1h-2.49a9.81,9.81,0,0,0,4.2,3.31C473.18,32.68,472.77,31.91,472.37,31.1Zm29.49-7.23a10.16,10.16,0,0,0-11.49-9.16c-7.44,1-11.6,10.67-6.43,16.43a10,10,0,0,0,11.6,3.18,10.57,10.57,0,0,0,5.76-6.06A10,10,0,0,0,501.86,23.87Zm-4.24,2.77c-2.29,7.59-13.58,4.22-11.82-3.26C488,15.31,500,18.59,497.62,26.64Zm4.24-2.77a10.16,10.16,0,0,0-11.49-9.16c-7.44,1-11.6,10.67-6.43,16.43a10,10,0,0,0,11.6,3.18,10.57,10.57,0,0,0,5.76-6.06A10,10,0,0,0,501.86,23.87Zm-4.24,2.77c-2.29,7.59-13.58,4.22-11.82-3.26C488,15.31,500,18.59,497.62,26.64ZM46.78,65.49c-.8-8.8-13.24-12.14-18.31-4.87h0c-4.65,5.85-.54,15.29,6.81,16.17C41.55,77.76,47.66,71.77,46.78,65.49Zm-6.07,5.7c-4.83,4.94-12.9-1.86-9.43-7.56C36,55.73,47.74,64.8,40.71,71.19ZM17.38,73.9a21,21,0,0,1,.37-15.48c-7,2.87-6.75,13.72.07,16.6C17.66,74.65,17.51,74.28,17.38,73.9Zm29.4-8.41c-.8-8.8-13.24-12.14-18.31-4.87h0c-4.65,5.85-.54,15.29,6.81,16.17C41.55,77.76,47.66,71.77,46.78,65.49Zm-6.07,5.7c-4.83,4.94-12.9-1.86-9.43-7.56C36,55.73,47.74,64.8,40.71,71.19ZM59.39,60.53a9.1,9.1,0,0,0-4.65-2.7c.56.87,1.13,1.77,1.63,2.7h0c.17.29.4.7.56,1h3.27A8.53,8.53,0,0,0,59.39,60.53ZM56.55,71.79a37.47,37.47,0,0,1-1.71,3.8,9.87,9.87,0,0,0,5.34-3.8Zm186.8-37.41c-.72.74-1.45,1.49-2.19,2.23,1-1,2-2,3-3C243.87,33.86,243.61,34.11,243.35,34.38ZM473,16.51a9.93,9.93,0,0,0-3.6,3h2.55c.46-1.09.95-2.2,1.49-3.22Zm-.59,14.59c-.13-.27-.35-.73-.49-1h-2.49a9.81,9.81,0,0,0,4.2,3.31C473.18,32.68,472.77,31.91,472.37,31.1Zm29.49-7.23a10.16,10.16,0,0,0-11.49-9.16c-7.44,1-11.6,10.67-6.43,16.43a10,10,0,0,0,11.6,3.18,10.57,10.57,0,0,0,5.76-6.06A10,10,0,0,0,501.86,23.87Zm-4.24,2.77c-2.29,7.59-13.58,4.22-11.82-3.26C488,15.31,500,18.59,497.62,26.64Zm18-6.57a9,9,0,0,0-5.22-4.1c1.8,2.21,1.15,11.5,1.26,14.16a27.06,27.06,0,0,1-1.41,3.59C517.78,31.35,515.23,26,515.59,20.07Zm-13.73,3.8a10.16,10.16,0,0,0-11.49-9.16c-7.44,1-11.6,10.67-6.43,16.43a10,10,0,0,0,11.6,3.18,10.57,10.57,0,0,0,5.76-6.06A10,10,0,0,0,501.86,23.87Zm-4.24,2.77c-2.29,7.59-13.58,4.22-11.82-3.26C488,15.31,500,18.59,497.62,26.64ZM46.78,65.49c-.8-8.8-13.24-12.14-18.31-4.87h0c-4.65,5.85-.54,15.29,6.81,16.17C41.55,77.76,47.66,71.77,46.78,65.49Zm-6.07,5.7c-4.83,4.94-12.9-1.86-9.43-7.56C36,55.73,47.74,64.8,40.71,71.19ZM17.38,73.9a21,21,0,0,1,.37-15.48c-7,2.87-6.75,13.72.07,16.6C17.66,74.65,17.51,74.28,17.38,73.9Zm29.4-8.41c-.8-8.8-13.24-12.14-18.31-4.87h0c-4.65,5.85-.54,15.29,6.81,16.17C41.55,77.76,47.66,71.77,46.78,65.49Zm-6.07,5.7c-4.83,4.94-12.9-1.86-9.43-7.56C36,55.73,47.74,64.8,40.71,71.19ZM59.39,60.53a9.1,9.1,0,0,0-4.65-2.7c.56.87,1.13,1.77,1.63,2.7h0c.17.29.4.7.56,1h3.27A8.53,8.53,0,0,0,59.39,60.53ZM56.55,71.79a37.47,37.47,0,0,1-1.71,3.8,9.87,9.87,0,0,0,5.34-3.8Zm186.8-37.41c-.72.74-1.45,1.49-2.19,2.23,1-1,2-2,3-3C243.87,33.86,243.61,34.11,243.35,34.38ZM473,16.51a9.93,9.93,0,0,0-3.6,3h2.55c.46-1.09.95-2.2,1.49-3.22Zm-.59,14.59c-.13-.27-.35-.73-.49-1h-2.49a9.81,9.81,0,0,0,4.2,3.31C473.18,32.68,472.77,31.91,472.37,31.1Zm29.49-7.23a10.16,10.16,0,0,0-11.49-9.16c-7.44,1-11.6,10.67-6.43,16.43a10,10,0,0,0,11.6,3.18,10.57,10.57,0,0,0,5.76-6.06A10,10,0,0,0,501.86,23.87Zm-4.24,2.77c-2.29,7.59-13.58,4.22-11.82-3.26C488,15.31,500,18.59,497.62,26.64Zm18-6.57a9,9,0,0,0-5.22-4.1c1.8,2.21,1.15,11.5,1.26,14.16a27.06,27.06,0,0,1-1.41,3.59C517.78,31.35,515.23,26,515.59,20.07Zm-13.73,3.8a10.16,10.16,0,0,0-11.49-9.16c-7.44,1-11.6,10.67-6.43,16.43a10,10,0,0,0,11.6,3.18,10.57,10.57,0,0,0,5.76-6.06A10,10,0,0,0,501.86,23.87Zm-4.24,2.77c-2.29,7.59-13.58,4.22-11.82-3.26C488,15.31,500,18.59,497.62,26.64ZM46.78,65.49c-.8-8.8-13.24-12.14-18.31-4.87h0c-4.65,5.85-.54,15.29,6.81,16.17C41.55,77.76,47.66,71.77,46.78,65.49Zm-6.07,5.7c-4.83,4.94-12.9-1.86-9.43-7.56C36,55.73,47.74,64.8,40.71,71.19ZM17.38,73.9a21,21,0,0,1,.37-15.48c-7,2.87-6.75,13.72.07,16.6C17.66,74.65,17.51,74.28,17.38,73.9Zm29.4-8.41c-.8-8.8-13.24-12.14-18.31-4.87h0c-4.65,5.85-.54,15.29,6.81,16.17C41.55,77.76,47.66,71.77,46.78,65.49Zm-6.07,5.7c-4.83,4.94-12.9-1.86-9.43-7.56C36,55.73,47.74,64.8,40.71,71.19ZM59.39,60.53a9.1,9.1,0,0,0-4.65-2.7c.56.87,1.13,1.77,1.63,2.7h0c.17.29.4.7.56,1h3.27A8.53,8.53,0,0,0,59.39,60.53ZM56.55,71.79a37.47,37.47,0,0,1-1.71,3.8,9.87,9.87,0,0,0,5.34-3.8Zm186.8-37.41c-.72.74-1.45,1.49-2.19,2.23,1-1,2-2,3-3C243.87,33.86,243.61,34.11,243.35,34.38ZM473,16.51a9.93,9.93,0,0,0-3.6,3h2.55c.46-1.09.95-2.2,1.49-3.22Zm-.59,14.59c-.13-.27-.35-.73-.49-1h-2.49a9.81,9.81,0,0,0,4.2,3.31C473.18,32.68,472.77,31.91,472.37,31.1Zm29.49-7.23a10.16,10.16,0,0,0-11.49-9.16c-7.44,1-11.6,10.67-6.43,16.43a10,10,0,0,0,11.6,3.18,10.57,10.57,0,0,0,5.76-6.06A10,10,0,0,0,501.86,23.87Zm-4.24,2.77c-2.29,7.59-13.58,4.22-11.82-3.26C488,15.31,500,18.59,497.62,26.64Zm18-6.57a9,9,0,0,0-5.22-4.1c1.8,2.21,1.15,11.5,1.26,14.16a27.06,27.06,0,0,1-1.41,3.59C517.78,31.35,515.23,26,515.59,20.07Zm-13.73,3.8a10.16,10.16,0,0,0-11.49-9.16c-7.44,1-11.6,10.67-6.43,16.43a10,10,0,0,0,11.6,3.18,10.57,10.57,0,0,0,5.76-6.06A10,10,0,0,0,501.86,23.87Zm-4.24,2.77c-2.29,7.59-13.58,4.22-11.82-3.26C488,15.31,500,18.59,497.62,26.64ZM46.78,65.49c-.8-8.8-13.24-12.14-18.31-4.87h0c-4.65,5.85-.54,15.29,6.81,16.17C41.55,77.76,47.66,71.77,46.78,65.49Zm-6.07,5.7c-4.83,4.94-12.9-1.86-9.43-7.56C36,55.73,47.74,64.8,40.71,71.19ZM17.38,73.9a21,21,0,0,1,.37-15.48c-7,2.87-6.75,13.72.07,16.6C17.66,74.65,17.51,74.28,17.38,73.9Zm29.4-8.41c-.8-8.8-13.24-12.14-18.31-4.87h0c-4.65,5.85-.54,15.29,6.81,16.17C41.55,77.76,47.66,71.77,46.78,65.49Zm-6.07,5.7c-4.83,4.94-12.9-1.86-9.43-7.56C36,55.73,47.74,64.8,40.71,71.19ZM59.39,60.53a9.1,9.1,0,0,0-4.65-2.7c.56.87,1.13,1.77,1.63,2.7h0c.17.29.4.7.56,1h3.27A8.53,8.53,0,0,0,59.39,60.53ZM56.55,71.79a37.47,37.47,0,0,1-1.71,3.8,9.87,9.87,0,0,0,5.34-3.8Zm186.8-37.41c-.72.74-1.45,1.49-2.19,2.23,1-1,2-2,3-3C243.87,33.86,243.61,34.11,243.35,34.38ZM473,16.51a9.93,9.93,0,0,0-3.6,3h2.55c.46-1.09.95-2.2,1.49-3.22Zm-.59,14.59c-.13-.27-.35-.73-.49-1h-2.49a9.81,9.81,0,0,0,4.2,3.31C473.18,32.68,472.77,31.91,472.37,31.1Zm29.49-7.23a10.16,10.16,0,0,0-11.49-9.16c-7.44,1-11.6,10.67-6.43,16.43a10,10,0,0,0,11.6,3.18,10.57,10.57,0,0,0,5.76-6.06A10,10,0,0,0,501.86,23.87Zm-4.24,2.77c-2.29,7.59-13.58,4.22-11.82-3.26C488,15.31,500,18.59,497.62,26.64Zm18-6.57a9,9,0,0,0-5.22-4.1c1.8,2.21,1.15,11.5,1.26,14.16a27.06,27.06,0,0,1-1.41,3.59C517.78,31.35,515.23,26,515.59,20.07Zm-13.73,3.8a10.16,10.16,0,0,0-11.49-9.16c-7.44,1-11.6,10.67-6.43,16.43a10,10,0,0,0,11.6,3.18,10.57,10.57,0,0,0,5.76-6.06A10,10,0,0,0,501.86,23.87Zm-4.24,2.77c-2.29,7.59-13.58,4.22-11.82-3.26C488,15.31,500,18.59,497.62,26.64ZM46.78,65.49c-.8-8.8-13.24-12.14-18.31-4.87h0c-4.65,5.85-.54,15.29,6.81,16.17C41.55,77.76,47.66,71.77,46.78,65.49Zm-6.07,5.7c-4.83,4.94-12.9-1.86-9.43-7.56C36,55.73,47.74,64.8,40.71,71.19ZM17.38,73.9a21,21,0,0,1,.37-15.48c-7,2.87-6.75,13.72.07,16.6C17.66,74.65,17.51,74.28,17.38,73.9Zm29.4-8.41c-.8-8.8-13.24-12.14-18.31-4.87h0c-4.65,5.85-.54,15.29,6.81,16.17C41.55,77.76,47.66,71.77,46.78,65.49Zm-6.07,5.7c-4.83,4.94-12.9-1.86-9.43-7.56C36,55.73,47.74,64.8,40.71,71.19ZM59.39,60.53a9.1,9.1,0,0,0-4.65-2.7c.56.87,1.13,1.77,1.63,2.7h0c.17.29.4.7.56,1h3.27A8.53,8.53,0,0,0,59.39,60.53ZM56.55,71.79a37.47,37.47,0,0,1-1.71,3.8,9.87,9.87,0,0,0,5.34-3.8Zm186.8-37.41c-.72.74-1.45,1.49-2.19,2.23,1-1,2-2,3-3C243.87,33.86,243.61,34.11,243.35,34.38ZM473,16.51a9.93,9.93,0,0,0-3.6,3h2.55c.46-1.09.95-2.2,1.49-3.22Zm-.59,14.59c-.13-.27-.35-.73-.49-1h-2.49a9.81,9.81,0,0,0,4.2,3.31C473.18,32.68,472.77,31.91,472.37,31.1Zm29.49-7.23a10.16,10.16,0,0,0-11.49-9.16c-7.44,1-11.6,10.67-6.43,16.43a10,10,0,0,0,11.6,3.18,10.57,10.57,0,0,0,5.76-6.06A10,10,0,0,0,501.86,23.87Zm-4.24,2.77c-2.29,7.59-13.58,4.22-11.82-3.26C488,15.31,500,18.59,497.62,26.64Zm18-6.57a9,9,0,0,0-5.22-4.1c1.8,2.21,1.15,11.5,1.26,14.16a27.06,27.06,0,0,1-1.41,3.59C517.78,31.35,515.23,26,515.59,20.07Zm-13.73,3.8a10.16,10.16,0,0,0-11.49-9.16c-7.44,1-11.6,10.67-6.43,16.43a10,10,0,0,0,11.6,3.18,10.57,10.57,0,0,0,5.76-6.06A10,10,0,0,0,501.86,23.87Zm-4.24,2.77c-2.29,7.59-13.58,4.22-11.82-3.26C488,15.31,500,18.59,497.62,26.64ZM46.78,65.49c-.8-8.8-13.24-12.14-18.31-4.87h0c-4.65,5.85-.54,15.29,6.81,16.17C41.55,77.76,47.66,71.77,46.78,65.49Zm-6.07,5.7c-4.83,4.94-12.9-1.86-9.43-7.56C36,55.73,47.74,64.8,40.71,71.19ZM17.38,73.9a21,21,0,0,1,.37-15.48c-7,2.87-6.75,13.72.07,16.6C17.66,74.65,17.51,74.28,17.38,73.9Zm29.4-8.41c-.8-8.8-13.24-12.14-18.31-4.87h0c-4.65,5.85-.54,15.29,6.81,16.17C41.55,77.76,47.66,71.77,46.78,65.49Zm-6.07,5.7c-4.83,4.94-12.9-1.86-9.43-7.56C36,55.73,47.74,64.8,40.71,71.19ZM59.39,60.53a9.1,9.1,0,0,0-4.65-2.7c.56.87,1.13,1.77,1.63,2.7h0c.17.29.4.7.56,1h3.27A8.53,8.53,0,0,0,59.39,60.53ZM56.55,71.79a37.47,37.47,0,0,1-1.71,3.8,9.87,9.87,0,0,0,5.34-3.8Zm186.8-37.41c-.72.74-1.45,1.49-2.19,2.23,1-1,2-2,3-3C243.87,33.86,243.61,34.11,243.35,34.38ZM473,16.51a9.93,9.93,0,0,0-3.6,3h2.55c.46-1.09.95-2.2,1.49-3.22Zm-.59,14.59c-.13-.27-.35-.73-.49-1h-2.49a9.81,9.81,0,0,0,4.2,3.31C473.18,32.68,472.77,31.91,472.37,31.1Zm29.49-7.23a10.16,10.16,0,0,0-11.49-9.16c-7.44,1-11.6,10.67-6.43,16.43a10,10,0,0,0,11.6,3.18,10.57,10.57,0,0,0,5.76-6.06A10,10,0,0,0,501.86,23.87Zm-4.24,2.77c-2.29,7.59-13.58,4.22-11.82-3.26C488,15.31,500,18.59,497.62,26.64Zm18-6.57a9,9,0,0,0-5.22-4.1c1.8,2.21,1.15,11.5,1.26,14.16a27.06,27.06,0,0,1-1.41,3.59C517.78,31.35,515.23,26,515.59,20.07Zm-13.73,3.8a10.16,10.16,0,0,0-11.49-9.16c-7.44,1-11.6,10.67-6.43,16.43a10,10,0,0,0,11.6,3.18,10.57,10.57,0,0,0,5.76-6.06A10,10,0,0,0,501.86,23.87Zm-4.24,2.77c-2.29,7.59-13.58,4.22-11.82-3.26C488,15.31,500,18.59,497.62,26.64ZM46.78,65.49c-.8-8.8-13.24-12.14-18.31-4.87h0c-4.65,5.85-.54,15.29,6.81,16.17C41.55,77.76,47.66,71.77,46.78,65.49Zm-6.07,5.7c-4.83,4.94-12.9-1.86-9.43-7.56C36,55.73,47.74,64.8,40.71,71.19Zm6.07-5.7c-.8-8.8-13.24-12.14-18.31-4.87h0c-4.65,5.85-.54,15.29,6.81,16.17C41.55,77.76,47.66,71.77,46.78,65.49Zm-6.07,5.7c-4.83,4.94-12.9-1.86-9.43-7.56C36,55.73,47.74,64.8,40.71,71.19ZM501.86,23.87a10.16,10.16,0,0,0-11.49-9.16c-7.44,1-11.6,10.67-6.43,16.43a10,10,0,0,0,11.6,3.18,10.57,10.57,0,0,0,5.76-6.06A10,10,0,0,0,501.86,23.87Zm-4.24,2.77c-2.29,7.59-13.58,4.22-11.82-3.26C488,15.31,500,18.59,497.62,26.64Zm18-6.57a9,9,0,0,0-5.22-4.1c1.8,2.21,1.15,11.5,1.26,14.16a27.06,27.06,0,0,1-1.41,3.59C517.78,31.35,515.23,26,515.59,20.07Zm-13.73,3.8a10.16,10.16,0,0,0-11.49-9.16c-7.44,1-11.6,10.67-6.43,16.43a10,10,0,0,0,11.6,3.18,10.57,10.57,0,0,0,5.76-6.06A10,10,0,0,0,501.86,23.87Zm-4.24,2.77c-2.29,7.59-13.58,4.22-11.82-3.26C488,15.31,500,18.59,497.62,26.64ZM472.37,31.1c-.13-.27-.35-.73-.49-1h-2.49a9.81,9.81,0,0,0,4.2,3.31C473.18,32.68,472.77,31.91,472.37,31.1ZM473,16.51a9.93,9.93,0,0,0-3.6,3h2.55c.46-1.09,1-2.2,1.49-3.23ZM243.35,34.38c-.72.74-1.45,1.49-2.19,2.23,1-1,2-2,3-3C243.87,33.86,243.61,34.11,243.35,34.38ZM56.55,71.79a37.47,37.47,0,0,1-1.71,3.8,9.87,9.87,0,0,0,5.34-3.8Zm2.84-11.26a9.1,9.1,0,0,0-4.65-2.7c.56.87,1.13,1.77,1.63,2.7h0c.17.29.4.7.56,1h3.27A8.53,8.53,0,0,0,59.39,60.53Zm-12.61,5c-.8-8.8-13.24-12.14-18.31-4.87h0c-4.65,5.85-.54,15.29,6.81,16.17C41.55,77.76,47.66,71.77,46.78,65.49Zm-6.07,5.7c-4.83,4.94-12.9-1.86-9.43-7.56C36,55.73,47.74,64.8,40.71,71.19ZM17.38,73.9a21,21,0,0,1,.37-15.48c-7,2.87-6.75,13.72.07,16.6C17.66,74.65,17.51,74.28,17.38,73.9Z"/></svg>