<svg id="Finished" xmlns="http://www.w3.org/2000/svg" viewBox="0 0 418 126"><defs><style>.cls-1{fill:#4df4e4;}.cls-2{fill:red;}.cls-3{fill:#fff;}</style></defs><path class="cls-1" d="M71.51,15.64H69.16C64.29,8,58.21,4.59,50.72,5.26a20.38,20.38,0,0,0-2.37-1.72C58,1.8,65.65,5.77,71.51,15.64Z"/><path class="cls-1" d="M71.45,34.07c-6,9.75-13.9,13.85-23.14,11.94a25.83,25.83,0,0,0,2.32-1.67c7.19.77,13.49-2.74,18.45-10.27Z"/><path class="cls-1" d="M243.93,92.1H241.1c-22.89-22.94-45.38-45.39-68.47-68.64-3.14-3.62-7.56-2.86-11.82-2.89a20.94,20.94,0,0,0-2.14-2c5.44.12,11.33-1.15,15.38,3.48C197.59,45.77,220.58,68.68,243.93,92.1Z"/><path class="cls-1" d="M407.74,102.44a11.36,11.36,0,0,1-4.12,8.15,21.53,21.53,0,0,0,.12-17.22A11.31,11.31,0,0,1,407.74,102.44Z"/><path class="cls-1" d="M418.27,101.77c.2,13.29-12.6,24-25.43,21.56a25.14,25.14,0,0,0,2.6-1.75c27.11.67,27.69-39.68.09-39.16A23.4,23.4,0,0,0,393,80.71C405.67,78.18,418.58,89,418.27,101.77Z"/><path class="cls-2" d="M11.74,24.89a25.09,25.09,0,0,0,1,7.11,10.68,10.68,0,0,1,0-14.37A25,25,0,0,0,11.74,24.89Z"/><path class="cls-2" d="M24.33,46.27C-8.18,49-8,.56,24.16,3.3a23.43,23.43,0,0,0-2.82,1.88C-4.39,5.43-4.59,44,21.47,44.45A25.25,25.25,0,0,0,24.33,46.27Z"/><path class="cls-2" d="M221.66,107.47c-5.56.11-11.1.53-15.13-4.1-23.46-23.65-46-46.07-69.15-69.33l2.83,0C162.9,56.82,185,78.77,208,102c3.19,3.59,7.06,3.68,11.44,3.51A21.41,21.41,0,0,0,221.66,107.47Z"/><path class="cls-2" d="M368.54,80.58a20.25,20.25,0,0,0-2.64,1.81c-7,0-12.89,3.08-16.85,9.65h-2.32C351.47,83.36,359.53,79.47,368.54,80.58Z"/><path class="cls-2" d="M368.85,123.34c-9.56,1.45-16.55-2.62-22.72-13h2.35c5,8,10.77,11.59,18,11.2A21.54,21.54,0,0,0,368.85,123.34Z"/><path class="cls-3" d="M46.41,24.1c-.64-9.7-13.7-13-18.79-4.65h0c-4.93,6.83,1.9,16.68,10,15.32h0a10.19,10.19,0,0,0,6.65-3.7h0s0,0,0,0a9.82,9.82,0,0,0,1.21-1.94s0,0,0,0A9.94,9.94,0,0,0,46.41,24.1ZM36.22,30.87c-8.21-.17-8-12,.07-12.3C44.12,18.62,44.41,31,36.22,30.87ZM59,18.64a9.18,9.18,0,0,0-4.5-2.78l-.19-.29c.82,1.29,1.54,2.68,2.24,4.06h3.25A8.45,8.45,0,0,0,59,18.64ZM56.53,30.07l-.52,1h0c-.43.86-.94,1.71-1.42,2.51a9,9,0,0,0,5.18-3.51Zm334.19,71.22c-1.42-14.74-23.26-11-19.93,3.27C374.26,116.39,391.18,113.48,390.72,101.29Zm-6,5.19c-5.32,5.46-13.84-3.16-8.71-8.57C381.59,91.37,391,100.74,384.69,106.48ZM405,98.42a9.36,9.36,0,0,0-5.75-5.31,20.26,20.26,0,0,1-.1,17.69C404.65,109.25,406.1,103.43,405,98.42ZM46.41,24.1c-.64-9.7-13.7-13-18.79-4.65h0c-4.93,6.83,1.9,16.68,10,15.32h0a10.19,10.19,0,0,0,6.65-3.7h0s0,0,0,0a9.82,9.82,0,0,0,1.21-1.94s0,0,0,0A9.94,9.94,0,0,0,46.41,24.1ZM36.22,30.87c-8.21-.17-8-12,.07-12.3C44.12,18.62,44.41,31,36.22,30.87Zm354.5,70.42c-1.42-14.74-23.26-11-19.93,3.27C374.26,116.39,391.18,113.48,390.72,101.29Zm-6,5.19c-5.32,5.46-13.84-3.16-8.71-8.57C381.59,91.37,391,100.74,384.69,106.48ZM46.41,24.1c-.64-9.7-13.7-13-18.79-4.65h0c-4.93,6.83,1.9,16.68,10,15.32h0a10.19,10.19,0,0,0,6.65-3.7h0s0,0,0,0a9.82,9.82,0,0,0,1.21-1.94s0,0,0,0A9.94,9.94,0,0,0,46.41,24.1ZM36.22,30.87c-8.21-.17-8-12,.07-12.3C44.12,18.62,44.41,31,36.22,30.87Zm354.5,70.42c-1.42-14.74-23.26-11-19.93,3.27C374.26,116.39,391.18,113.48,390.72,101.29Zm-6,5.19c-5.32,5.46-13.84-3.16-8.71-8.57C381.59,91.37,391,100.74,384.69,106.48ZM405,98.42a9.36,9.36,0,0,0-5.75-5.31,20.26,20.26,0,0,1-.1,17.69C404.65,109.25,406.1,103.43,405,98.42Zm-14.31,2.87c-1.42-14.74-23.26-11-19.93,3.27C374.26,116.39,391.18,113.48,390.72,101.29Zm-6,5.19c-5.32,5.46-13.84-3.16-8.71-8.57C381.59,91.37,391,100.74,384.69,106.48Zm-22.52,3.68c-.75-1.21-1.43-2.49-2.09-3.77h-2.45a9.59,9.59,0,0,0,4.79,4.2C362.34,110.45,362.25,110.31,362.17,110.16ZM359.61,95a7.92,7.92,0,0,0-.95,1c.72-.08,1.5-.16,2.26-.22.37-.78.76-1.6,1.17-2.33A8.84,8.84,0,0,0,359.61,95Zm-303.08-65-.52,1h0c-.43.86-.94,1.71-1.42,2.51a9,9,0,0,0,5.18-3.51ZM59,18.64a9.18,9.18,0,0,0-4.5-2.78l-.19-.29c.82,1.29,1.54,2.68,2.24,4.06h3.25A8.45,8.45,0,0,0,59,18.64ZM46.41,24.1c-.64-9.7-13.7-13-18.79-4.65h0c-4.93,6.83,1.9,16.68,10,15.32h0a10.19,10.19,0,0,0,6.65-3.7h0s0,0,0,0a9.82,9.82,0,0,0,1.21-1.94s0,0,0,0A9.94,9.94,0,0,0,46.41,24.1ZM36.22,30.87c-8.21-.17-8-12,.07-12.3C44.12,18.62,44.41,31,36.22,30.87ZM46.41,24.1c-.64-9.7-13.7-13-18.79-4.65h0c-4.93,6.83,1.9,16.68,10,15.32h0a10.19,10.19,0,0,0,6.65-3.7h0s0,0,0,0a9.82,9.82,0,0,0,1.21-1.94s0,0,0,0A9.94,9.94,0,0,0,46.41,24.1ZM36.22,30.87c-8.21-.17-8-12,.07-12.3C44.12,18.62,44.41,31,36.22,30.87Zm354.5,70.42c-1.42-14.74-23.26-11-19.93,3.27C374.26,116.39,391.18,113.48,390.72,101.29Zm-6,5.19c-5.32,5.46-13.84-3.16-8.71-8.57C381.59,91.37,391,100.74,384.69,106.48ZM405,98.42a9.36,9.36,0,0,0-5.75-5.31,20.26,20.26,0,0,1-.1,17.69C404.65,109.25,406.1,103.43,405,98.42Zm-14.31,2.87c-1.42-14.74-23.26-11-19.93,3.27C374.26,116.39,391.18,113.48,390.72,101.29Zm-6,5.19c-5.32,5.46-13.84-3.16-8.71-8.57C381.59,91.37,391,100.74,384.69,106.48Zm-22.52,3.68c-.75-1.21-1.43-2.49-2.09-3.77h-2.45a9.59,9.59,0,0,0,4.79,4.2C362.34,110.45,362.25,110.31,362.17,110.16ZM359.61,95a7.92,7.92,0,0,0-.95,1c.72-.08,1.5-.16,2.26-.22.37-.78.76-1.6,1.17-2.33A8.84,8.84,0,0,0,359.61,95Zm-303.08-65-.52,1h0c-.43.86-.94,1.71-1.42,2.51a9,9,0,0,0,5.18-3.51ZM59,18.64a9.18,9.18,0,0,0-4.5-2.78l-.19-.29c.82,1.29,1.54,2.68,2.24,4.06h3.25A8.45,8.45,0,0,0,59,18.64ZM46.41,24.1c-.64-9.7-13.7-13-18.79-4.65h0c-4.93,6.83,1.9,16.68,10,15.32h0a10.19,10.19,0,0,0,6.65-3.7h0s0,0,0,0a9.82,9.82,0,0,0,1.21-1.94s0,0,0,0A9.94,9.94,0,0,0,46.41,24.1ZM36.22,30.87c-8.21-.17-8-12,.07-12.3C44.12,18.62,44.41,31,36.22,30.87ZM46.41,24.1c-.64-9.7-13.7-13-18.79-4.65h0c-4.93,6.83,1.9,16.68,10,15.32h0a10.19,10.19,0,0,0,6.65-3.7h0s0,0,0,0a9.82,9.82,0,0,0,1.21-1.94s0,0,0,0A9.94,9.94,0,0,0,46.41,24.1ZM36.22,30.87c-8.21-.17-8-12,.07-12.3C44.12,18.62,44.41,31,36.22,30.87Zm354.5,70.42c-1.42-14.74-23.26-11-19.93,3.27C374.26,116.39,391.18,113.48,390.72,101.29Zm-6,5.19c-5.32,5.46-13.84-3.16-8.71-8.57C381.59,91.37,391,100.74,384.69,106.48ZM405,98.42a9.36,9.36,0,0,0-5.75-5.31,20.26,20.26,0,0,1-.1,17.69C404.65,109.25,406.1,103.43,405,98.42Zm-14.31,2.87c-1.42-14.74-23.26-11-19.93,3.27C374.26,116.39,391.18,113.48,390.72,101.29Zm-6,5.19c-5.32,5.46-13.84-3.16-8.71-8.57C381.59,91.37,391,100.74,384.69,106.48Zm-22.52,3.68c-.75-1.21-1.43-2.49-2.09-3.77h-2.45a9.59,9.59,0,0,0,4.79,4.2C362.34,110.45,362.25,110.31,362.17,110.16ZM359.61,95a7.92,7.92,0,0,0-.95,1c.72-.08,1.5-.16,2.26-.22.37-.78.76-1.6,1.17-2.33A8.84,8.84,0,0,0,359.61,95Zm-303.08-65-.52,1h0c-.43.86-.94,1.71-1.42,2.51a9,9,0,0,0,5.18-3.51ZM59,18.64a9.18,9.18,0,0,0-4.5-2.78l-.19-.29c.82,1.29,1.54,2.68,2.24,4.06h3.25A8.45,8.45,0,0,0,59,18.64ZM46.41,24.1c-.64-9.7-13.7-13-18.79-4.65h0c-4.93,6.83,1.9,16.68,10,15.32h0a10.19,10.19,0,0,0,6.65-3.7h0s0,0,0,0a9.82,9.82,0,0,0,1.21-1.94s0,0,0,0A9.94,9.94,0,0,0,46.41,24.1ZM36.22,30.87c-8.21-.17-8-12,.07-12.3C44.12,18.62,44.41,31,36.22,30.87ZM17.47,16.47c-7,3-7.29,13.49-.1,16.52A21.23,21.23,0,0,1,17.47,16.47ZM46.41,24.1c-.64-9.7-13.7-13-18.79-4.65h0c-4.93,6.83,1.9,16.68,10,15.32h0a10.19,10.19,0,0,0,6.65-3.7h0s0,0,0,0a9.82,9.82,0,0,0,1.21-1.94s0,0,0,0A9.94,9.94,0,0,0,46.41,24.1ZM36.22,30.87c-8.21-.17-8-12,.07-12.3C44.12,18.62,44.41,31,36.22,30.87Zm354.5,70.42c-1.42-14.74-23.26-11-19.93,3.27C374.26,116.39,391.18,113.48,390.72,101.29Zm-6,5.19c-5.32,5.46-13.84-3.16-8.71-8.57C381.59,91.37,391,100.74,384.69,106.48ZM405,98.42a9.36,9.36,0,0,0-5.75-5.31,20.26,20.26,0,0,1-.1,17.69C404.65,109.25,406.1,103.43,405,98.42Zm-14.31,2.87c-1.42-14.74-23.26-11-19.93,3.27C374.26,116.39,391.18,113.48,390.72,101.29Zm-6,5.19c-5.32,5.46-13.84-3.16-8.71-8.57C381.59,91.37,391,100.74,384.69,106.48ZM370,119.21a27.43,27.43,0,0,1-5.86-6.11h0a52.51,52.51,0,0,1-4-6.7H346.21c.7,1.36,1.5,2.76,2.27,4h9.2a38.49,38.49,0,0,0,8.77,11.2,21.91,21.91,0,0,0,5.57-1A19.54,19.54,0,0,1,370,119.21Zm1.78-35.84a19,19,0,0,0-5.83-1A29.15,29.15,0,0,0,358.32,92l-.46,0h-8.81a38.74,38.74,0,0,0-2.14,4c2.36,0,11.85.14,14-.25,2.24-5.05,6.08-10.31,10.85-12.4ZM244.32,95.07a26.8,26.8,0,0,1-3.22-3c-3.9-.26-8.36,1.18-11.22-2.29L204.49,64.38C190.16,50,175.33,35.21,160.81,20.57l-6.29,0c3.52,2.16,6.21,5.85,9.27,8.66h0C186.1,51,207.29,74.12,230.22,95.09A8.77,8.77,0,0,0,233,96h0c4.3.3,8.67,0,13,.09A10.21,10.21,0,0,1,244.32,95.07Zm-22.08,7.6c-23-23.24-46-46.05-68.93-69.13-4.61-5.23-12-3.15-18.14-3.5a16.75,16.75,0,0,1,5,4c3.72.16,7.39-.94,10.27,2.34C160.85,46.79,171.2,57.15,180,65.91c12.68,12.68,26.16,26.18,39.43,39.57l6.62,0A13.15,13.15,0,0,1,222.24,102.67ZM71.37,19.53a41.64,41.64,0,0,0-2.21-3.9H59A34.55,34.55,0,0,0,50.72,5.26,20.84,20.84,0,0,0,45.35,6.4c5.17,2.9,8.6,8,11.19,13.23,3.38,0,11.42,0,14.88,0ZM56.53,30.07l-.52,1h0c-2.51,4.78-5.88,9.29-10.6,12a21.21,21.21,0,0,0,5.23,1.25,35.28,35.28,0,0,0,8.3-10.27H69.08a42.2,42.2,0,0,0,2.32-4Zm-10.12-6c-.64-9.7-13.7-13-18.79-4.65h0c-4.93,6.83,1.9,16.68,10,15.32h0a10.19,10.19,0,0,0,6.65-3.7h0s0,0,0,0a9.82,9.82,0,0,0,1.21-1.94s0,0,0,0A9.94,9.94,0,0,0,46.41,24.1ZM36.22,30.87c-8.21-.17-8-12,.07-12.3C44.12,18.62,44.41,31,36.22,30.87Zm-17.53,4.7h0c-6.25-9.9-2.1-24.57,8.66-29.42a17.05,17.05,0,0,0-6-1c-12.6,9.16-12.8,30.28.13,39.27a16.23,16.23,0,0,0,6-1.09A20.11,20.11,0,0,1,18.69,35.57ZM46.41,24.1c-.64-9.7-13.7-13-18.79-4.65h0c-4.93,6.83,1.9,16.68,10,15.32h0a10.19,10.19,0,0,0,6.65-3.7h0s0,0,0,0a9.82,9.82,0,0,0,1.21-1.94s0,0,0,0A9.94,9.94,0,0,0,46.41,24.1ZM36.22,30.87c-8.21-.17-8-12,.07-12.3C44.12,18.62,44.41,31,36.22,30.87Zm354.5,70.42c-1.42-14.74-23.26-11-19.93,3.27C374.26,116.39,391.18,113.48,390.72,101.29Zm-6,5.19c-5.32,5.46-13.84-3.16-8.71-8.57C381.59,91.37,391,100.74,384.69,106.48ZM405,98.42a9.36,9.36,0,0,0-5.75-5.31,20.26,20.26,0,0,1-.1,17.69C404.65,109.25,406.1,103.43,405,98.42Zm-14.31,2.87c-1.42-14.74-23.26-11-19.93,3.27C374.26,116.39,391.18,113.48,390.72,101.29Zm-6,5.19c-5.32,5.46-13.84-3.16-8.71-8.57C381.59,91.37,391,100.74,384.69,106.48ZM370,119.21a27.43,27.43,0,0,1-5.86-6.11h0a52.51,52.51,0,0,1-4-6.7H346.21c.7,1.36,1.5,2.76,2.27,4h9.2a38.49,38.49,0,0,0,8.77,11.2,21.91,21.91,0,0,0,5.57-1A19.54,19.54,0,0,1,370,119.21Zm1.78-35.84a19,19,0,0,0-5.83-1A29.15,29.15,0,0,0,358.32,92l-.46,0h-8.81a38.74,38.74,0,0,0-2.14,4c2.36,0,11.85.14,14-.25,2.24-5.05,6.08-10.31,10.85-12.4ZM244.32,95.07a26.8,26.8,0,0,1-3.22-3c-3.9-.26-8.36,1.18-11.22-2.29L204.49,64.38C190.16,50,175.33,35.21,160.81,20.57l-6.29,0c3.52,2.16,6.21,5.85,9.27,8.66h0C186.1,51,207.29,74.12,230.22,95.09A8.77,8.77,0,0,0,233,96h0c4.3.3,8.67,0,13,.09A10.21,10.21,0,0,1,244.32,95.07Zm-22.08,7.6c-23-23.24-46-46.05-68.93-69.13-4.61-5.23-12-3.15-18.14-3.5a16.75,16.75,0,0,1,5,4c3.72.16,7.39-.94,10.27,2.34C160.85,46.79,171.2,57.15,180,65.91c12.68,12.68,26.16,26.18,39.43,39.57l6.62,0A13.15,13.15,0,0,1,222.24,102.67ZM71.37,19.53a41.64,41.64,0,0,0-2.21-3.9H59A34.55,34.55,0,0,0,50.72,5.26,20.84,20.84,0,0,0,45.35,6.4c5.17,2.9,8.6,8,11.19,13.23,3.38,0,11.42,0,14.88,0ZM56.53,30.07l-.52,1h0c-2.51,4.78-5.88,9.29-10.6,12a21.21,21.21,0,0,0,5.23,1.25,35.28,35.28,0,0,0,8.3-10.27H69.08a42.2,42.2,0,0,0,2.32-4Zm-10.12-6c-.64-9.7-13.7-13-18.79-4.65h0c-4.93,6.83,1.9,16.68,10,15.32h0a10.19,10.19,0,0,0,6.65-3.7h0s0,0,0,0a9.82,9.82,0,0,0,1.21-1.94s0,0,0,0A9.94,9.94,0,0,0,46.41,24.1ZM36.22,30.87c-8.21-.17-8-12,.07-12.3C44.12,18.62,44.41,31,36.22,30.87Zm-17.53,4.7h0c-6.25-9.9-2.1-24.57,8.66-29.42a17.05,17.05,0,0,0-6-1c-12.6,9.16-12.8,30.28.13,39.27a16.23,16.23,0,0,0,6-1.09A20.11,20.11,0,0,1,18.69,35.57ZM46.41,24.1c-.64-9.7-13.7-13-18.79-4.65h0c-4.93,6.83,1.9,16.68,10,15.32h0a10.19,10.19,0,0,0,6.65-3.7h0s0,0,0,0a9.82,9.82,0,0,0,1.21-1.94s0,0,0,0A9.94,9.94,0,0,0,46.41,24.1ZM36.22,30.87c-8.21-.17-8-12,.07-12.3C44.12,18.62,44.41,31,36.22,30.87Zm354.5,70.42c-1.42-14.74-23.26-11-19.93,3.27C374.26,116.39,391.18,113.48,390.72,101.29Zm-6,5.19c-5.32,5.46-13.84-3.16-8.71-8.57C381.59,91.37,391,100.74,384.69,106.48ZM405,98.42a9.36,9.36,0,0,0-5.75-5.31,20.26,20.26,0,0,1-.1,17.69C404.65,109.25,406.1,103.43,405,98.42Zm-14.31,2.87c-1.42-14.74-23.26-11-19.93,3.27C374.26,116.39,391.18,113.48,390.72,101.29Zm-6,5.19c-5.32,5.46-13.84-3.16-8.71-8.57C381.59,91.37,391,100.74,384.69,106.48ZM370,119.21a27.43,27.43,0,0,1-5.86-6.11h0a52.51,52.51,0,0,1-4-6.7H346.21c.7,1.36,1.5,2.76,2.27,4h9.2a38.49,38.49,0,0,0,8.77,11.2,21.91,21.91,0,0,0,5.57-1A19.54,19.54,0,0,1,370,119.21Zm1.78-35.84a19,19,0,0,0-5.83-1A29.15,29.15,0,0,0,358.32,92l-.46,0h-8.81a38.74,38.74,0,0,0-2.14,4c2.36,0,11.85.14,14-.25,2.24-5.05,6.08-10.31,10.85-12.4ZM244.32,95.07a26.8,26.8,0,0,1-3.22-3c-3.9-.26-8.36,1.18-11.22-2.29L204.49,64.38C190.16,50,175.33,35.21,160.81,20.57l-6.29,0c3.52,2.16,6.21,5.85,9.27,8.66h0C186.1,51,207.29,74.12,230.22,95.09A8.77,8.77,0,0,0,233,96h0c4.3.3,8.67,0,13,.09A10.21,10.21,0,0,1,244.32,95.07Zm-22.08,7.6c-23-23.24-46-46.05-68.93-69.13-4.61-5.23-12-3.15-18.14-3.5a16.75,16.75,0,0,1,5,4c3.72.16,7.39-.94,10.27,2.34C160.85,46.79,171.2,57.15,180,65.91c12.68,12.68,26.16,26.18,39.43,39.57l6.62,0A13.15,13.15,0,0,1,222.24,102.67ZM71.37,19.53a41.64,41.64,0,0,0-2.21-3.9H59A34.55,34.55,0,0,0,50.72,5.26,20.84,20.84,0,0,0,45.35,6.4c5.17,2.9,8.6,8,11.19,13.23,3.38,0,11.42,0,14.88,0ZM56.53,30.07l-.52,1h0c-2.51,4.78-5.88,9.29-10.6,12a21.21,21.21,0,0,0,5.23,1.25,35.28,35.28,0,0,0,8.3-10.27H69.08a42.2,42.2,0,0,0,2.32-4Zm-10.12-6c-.64-9.7-13.7-13-18.79-4.65h0c-4.93,6.83,1.9,16.68,10,15.32h0a10.19,10.19,0,0,0,6.65-3.7h0s0,0,0,0a9.82,9.82,0,0,0,1.21-1.94s0,0,0,0A9.94,9.94,0,0,0,46.41,24.1ZM36.22,30.87c-8.21-.17-8-12,.07-12.3C44.12,18.62,44.41,31,36.22,30.87Zm-17.53,4.7h0c-6.25-9.9-2.1-24.57,8.66-29.42a17.05,17.05,0,0,0-6-1c-12.6,9.16-12.8,30.28.13,39.27a16.23,16.23,0,0,0,6-1.09A20.11,20.11,0,0,1,18.69,35.57ZM46.41,24.1c-.64-9.7-13.7-13-18.79-4.65h0c-4.93,6.83,1.9,16.68,10,15.32h0a10.19,10.19,0,0,0,6.65-3.7h0s0,0,0,0a9.82,9.82,0,0,0,1.21-1.94s0,0,0,0A9.94,9.94,0,0,0,46.41,24.1ZM36.22,30.87c-8.21-.17-8-12,.07-12.3C44.12,18.62,44.41,31,36.22,30.87Zm354.5,70.42c-1.42-14.74-23.26-11-19.93,3.27C374.26,116.39,391.18,113.48,390.72,101.29Zm-6,5.19c-5.32,5.46-13.84-3.16-8.71-8.57C381.59,91.37,391,100.74,384.69,106.48ZM405,98.42a9.36,9.36,0,0,0-5.75-5.31,20.26,20.26,0,0,1-.1,17.69C404.65,109.25,406.1,103.43,405,98.42Zm-14.31,2.87c-1.42-14.74-23.26-11-19.93,3.27C374.26,116.39,391.18,113.48,390.72,101.29Zm-6,5.19c-5.32,5.46-13.84-3.16-8.71-8.57C381.59,91.37,391,100.74,384.69,106.48ZM370,119.21a27.43,27.43,0,0,1-5.86-6.11h0a52.51,52.51,0,0,1-4-6.7H346.21c.7,1.36,1.5,2.76,2.27,4h9.2a38.49,38.49,0,0,0,8.77,11.2,21.91,21.91,0,0,0,5.57-1A19.54,19.54,0,0,1,370,119.21Zm1.78-35.84a19,19,0,0,0-5.83-1A29.15,29.15,0,0,0,358.32,92l-.46,0h-8.81a38.74,38.74,0,0,0-2.14,4c2.36,0,11.85.14,14-.25,2.24-5.05,6.08-10.31,10.85-12.4ZM244.32,95.07a26.8,26.8,0,0,1-3.22-3c-3.9-.26-8.36,1.18-11.22-2.29L204.49,64.38C190.16,50,175.33,35.21,160.81,20.57l-6.29,0c3.52,2.16,6.21,5.85,9.27,8.66h0C186.1,51,207.29,74.12,230.22,95.09A8.77,8.77,0,0,0,233,96h0c4.3.3,8.67,0,13,.09A10.21,10.21,0,0,1,244.32,95.07Zm-22.08,7.6c-23-23.24-46-46.05-68.93-69.13-4.61-5.23-12-3.15-18.14-3.5a16.75,16.75,0,0,1,5,4c3.72.16,7.39-.94,10.27,2.34C160.85,46.79,171.2,57.15,180,65.91c12.68,12.68,26.16,26.18,39.43,39.57l6.62,0A13.15,13.15,0,0,1,222.24,102.67ZM71.37,19.53a41.64,41.64,0,0,0-2.21-3.9H59A34.55,34.55,0,0,0,50.72,5.26,20.84,20.84,0,0,0,45.35,6.4c5.17,2.9,8.6,8,11.19,13.23,3.38,0,11.42,0,14.88,0ZM56.53,30.07l-.52,1h0c-2.51,4.78-5.88,9.29-10.6,12a21.21,21.21,0,0,0,5.23,1.25,35.28,35.28,0,0,0,8.3-10.27H69.08a42.2,42.2,0,0,0,2.32-4Zm-10.12-6c-.64-9.7-13.7-13-18.79-4.65h0c-4.93,6.83,1.9,16.68,10,15.32h0a10.19,10.19,0,0,0,6.65-3.7h0s0,0,0,0a9.82,9.82,0,0,0,1.21-1.94s0,0,0,0A9.94,9.94,0,0,0,46.41,24.1ZM36.22,30.87c-8.21-.17-8-12,.07-12.3C44.12,18.62,44.41,31,36.22,30.87Zm-17.53,4.7h0c-6.25-9.9-2.1-24.57,8.66-29.42a17.05,17.05,0,0,0-6-1c-12.6,9.16-12.8,30.28.13,39.27a16.23,16.23,0,0,0,6-1.09A20.11,20.11,0,0,1,18.69,35.57ZM46.41,24.1c-.64-9.7-13.7-13-18.79-4.65h0c-4.93,6.83,1.9,16.68,10,15.32h0a10.19,10.19,0,0,0,6.65-3.7h0s0,0,0,0a9.82,9.82,0,0,0,1.21-1.94s0,0,0,0A9.94,9.94,0,0,0,46.41,24.1ZM36.22,30.87c-8.21-.17-8-12,.07-12.3C44.12,18.62,44.41,31,36.22,30.87Zm354.5,70.42c-1.42-14.74-23.26-11-19.93,3.27C374.26,116.39,391.18,113.48,390.72,101.29Zm-6,5.19c-5.32,5.46-13.84-3.16-8.71-8.57C381.59,91.37,391,100.74,384.69,106.48ZM405,98.42a9.36,9.36,0,0,0-5.75-5.31,20.26,20.26,0,0,1-.1,17.69C404.65,109.25,406.1,103.43,405,98.42Zm-14.31,2.87c-1.42-14.74-23.26-11-19.93,3.27C374.26,116.39,391.18,113.48,390.72,101.29Zm-6,5.19c-5.32,5.46-13.84-3.16-8.71-8.57C381.59,91.37,391,100.74,384.69,106.48ZM370,119.21a27.43,27.43,0,0,1-5.86-6.11h0a52.51,52.51,0,0,1-4-6.7H346.21c.7,1.36,1.5,2.76,2.27,4h9.2a38.49,38.49,0,0,0,8.77,11.2,21.91,21.91,0,0,0,5.57-1A19.54,19.54,0,0,1,370,119.21Zm1.78-35.84a19,19,0,0,0-5.83-1A29.15,29.15,0,0,0,358.32,92l-.46,0h-8.81a38.74,38.74,0,0,0-2.14,4c2.36,0,11.85.14,14-.25,2.24-5.05,6.08-10.31,10.85-12.4ZM244.32,95.07a26.8,26.8,0,0,1-3.22-3c-3.9-.26-8.36,1.18-11.22-2.29L204.49,64.38C190.16,50,175.33,35.21,160.81,20.57l-6.29,0c3.52,2.16,6.21,5.85,9.27,8.66h0C186.1,51,207.29,74.12,230.22,95.09A8.77,8.77,0,0,0,233,96h0c4.3.3,8.67,0,13,.09A10.21,10.21,0,0,1,244.32,95.07Zm-22.08,7.6c-23-23.24-46-46.05-68.93-69.13-4.61-5.23-12-3.15-18.14-3.5a16.75,16.75,0,0,1,5,4c3.72.16,7.39-.94,10.27,2.34C160.85,46.79,171.2,57.15,180,65.91c12.68,12.68,26.16,26.18,39.43,39.57l6.62,0A13.15,13.15,0,0,1,222.24,102.67ZM71.37,19.53a41.64,41.64,0,0,0-2.21-3.9H59A34.55,34.55,0,0,0,50.72,5.26,20.84,20.84,0,0,0,45.35,6.4c5.17,2.9,8.6,8,11.19,13.23,3.38,0,11.42,0,14.88,0ZM56.53,30.07l-.52,1h0c-2.51,4.78-5.88,9.29-10.6,12a21.21,21.21,0,0,0,5.23,1.25,35.28,35.28,0,0,0,8.3-10.27H69.08a42.2,42.2,0,0,0,2.32-4Zm-10.12-6c-.64-9.7-13.7-13-18.79-4.65h0c-4.93,6.83,1.9,16.68,10,15.32h0a10.19,10.19,0,0,0,6.65-3.7h0s0,0,0,0a9.82,9.82,0,0,0,1.21-1.94s0,0,0,0A9.94,9.94,0,0,0,46.41,24.1ZM36.22,30.87c-8.21-.17-8-12,.07-12.3C44.12,18.62,44.41,31,36.22,30.87Zm-17.53,4.7h0c-6.25-9.9-2.1-24.57,8.66-29.42a17.05,17.05,0,0,0-6-1c-12.6,9.16-12.8,30.28.13,39.27a16.23,16.23,0,0,0,6-1.09A20.11,20.11,0,0,1,18.69,35.57ZM46.41,24.1c-.64-9.7-13.7-13-18.79-4.65h0c-4.93,6.83,1.9,16.68,10,15.32h0a10.19,10.19,0,0,0,6.65-3.7h0s0,0,0,0a9.82,9.82,0,0,0,1.21-1.94s0,0,0,0A9.94,9.94,0,0,0,46.41,24.1ZM36.22,30.87c-8.21-.17-8-12,.07-12.3C44.12,18.62,44.41,31,36.22,30.87Zm354.5,70.42c-1.42-14.74-23.26-11-19.93,3.27C374.26,116.39,391.18,113.48,390.72,101.29Zm-6,5.19c-5.32,5.46-13.84-3.16-8.71-8.57C381.59,91.37,391,100.74,384.69,106.48ZM405,98.42a9.36,9.36,0,0,0-5.75-5.31,20.26,20.26,0,0,1-.1,17.69C404.65,109.25,406.1,103.43,405,98.42Zm-14.37,2.27c-2.19-14.43-23.51-9.78-19.79,4.15C374.74,116.75,391.86,113,390.66,100.69Zm-6,5.79c-5.32,5.46-13.84-3.16-8.71-8.57C381.59,91.37,391,100.74,384.69,106.48Zm-15.31,12.3a28.28,28.28,0,0,1-5.29-5.68h0a52.51,52.51,0,0,1-4-6.7H346.21c.7,1.36,1.5,2.76,2.27,4h9.2a38.49,38.49,0,0,0,8.77,11.2,21.91,21.91,0,0,0,5.57-1A21.26,21.26,0,0,1,369.38,118.78ZM357.86,96c1,0,2-.18,3.06-.25,2.24-5.05,6.08-10.31,10.85-12.4a18.33,18.33,0,0,0-5.87-1A29.15,29.15,0,0,0,358.32,92l-.46,0h-8.81a38.74,38.74,0,0,0-2.14,4Zm-115.53-2.7L241.1,92.1c-3.9-.26-8.36,1.18-11.22-2.29L204.49,64.38C190.16,50,175.33,35.21,160.81,20.57l-6.29,0c3.52,2.16,6.21,5.85,9.27,8.66h0C186.1,51,207.29,74.12,230.22,95.09A8.77,8.77,0,0,0,233,96h0c4.3.3,8.67,0,13,.09A13.62,13.62,0,0,1,242.33,93.34Zm-26.14,3.24c-21.09-21.24-41.89-41.94-62.88-63-4.61-5.23-12-3.15-18.14-3.5a16.75,16.75,0,0,1,5,4c3.72.16,7.39-.94,10.27,2.34C160.85,46.79,171.2,57.15,180,65.91c12.68,12.68,26.16,26.18,39.43,39.57l6.62,0C222.26,103.54,219.35,99.45,216.19,96.58ZM70.91,18.64c-.56-1.07-1.15-2.07-1.75-3H59A34.55,34.55,0,0,0,50.72,5.26,20.84,20.84,0,0,0,45.35,6.4c5.17,2.9,8.6,8,11.19,13.23,3.38,0,11.42,0,14.88,0C71.26,19.3,71.09,19,70.91,18.64ZM56.53,30.07l-.52,1h0c-2.51,4.78-5.88,9.29-10.6,12a21.21,21.21,0,0,0,5.23,1.25,35.28,35.28,0,0,0,8.3-10.27H69.08a42.2,42.2,0,0,0,2.32-4Zm-11-1h0c5.1-11.46-11-20.33-17.87-9.63h0c-4.93,6.83,1.9,16.68,10,15.32h0a10.19,10.19,0,0,0,6.65-3.7h0s0,0,0,0a9.82,9.82,0,0,0,1.21-1.94A0,0,0,0,0,45.49,29.09Zm-9.27,1.78c-8.21-.17-8-12,.07-12.3C44.12,18.62,44.41,31,36.22,30.87Zm-17.53,4.7h0c-6.25-9.9-2.1-24.57,8.66-29.42a17.05,17.05,0,0,0-6-1c-12.6,9.16-12.8,30.28.13,39.27a16.23,16.23,0,0,0,6-1.09A20.11,20.11,0,0,1,18.69,35.57ZM405,98.42c-3.19-23.78-37-28.89-46.71-6.4-37.66,0-76.44,0-114.39.08-4.69-.54-10.49,1.7-14.05-2.29C206.09,66.1,182.7,42.33,158.67,18.58a13.45,13.45,0,0,0-8.95-3c-17.17.08-34.47.1-47.63.1-14,0-29.12,0-43.12,0C47.87-9.16,12-2.1,11.74,24.89c.34,26.5,35.68,34,47.19,9.18,27.08,0,49.91,0,78.45,0,4.54.41,9.52-1.53,13.1,2.32,24.39,24.53,44.87,44.85,68.92,69.13a15.39,15.39,0,0,0,11.82,5c46.47-.17,83-.1,126.46-.1C369.92,137.88,407.93,127.48,405,98.42Zm-7.81,15.67c-7.89,11.56-26,11.15-33.13-1h0a52.51,52.51,0,0,1-4-6.7c-31.18,0-65.34,0-96.36,0l-21.92,0c-6.69-.41-14.55,1.9-19.56-3.78C197.87,78.87,175,53.8,150,31c-4.61-2-9.9-.68-14.8-1-25.64.06-53,0-78.64,0l-.52,1h0c-7.12,16.28-27.19,19.87-37.31,4.5h0C4.83,7.58,44.56-10,56.54,19.63l45.55,0c15.8,0,31.79,0,47.64-.1a10,10,0,0,1,4.79,1.05c3.52,2.16,6.21,5.85,9.27,8.66h0C186.1,51,207.29,74.12,230.22,95.09A8.77,8.77,0,0,0,233,96h0c42.37,0,85.82.38,127.9-.21C373.05,66.07,414.38,87.62,397.22,114.09Zm-6.56-13.4c-2.19-14.43-23.51-9.78-19.79,4.15C374.74,116.75,391.86,113,390.66,100.69Zm-6,5.79c-5.32,5.46-13.84-3.16-8.71-8.57C381.59,91.37,391,100.74,384.69,106.48ZM46.37,23.72c-1-9.49-13.77-12.46-18.75-4.27h0c-4.93,6.83,1.9,16.68,10,15.32h0a10.19,10.19,0,0,0,6.65-3.7h0s0,0,0,0a9.82,9.82,0,0,0,1.21-1.94s0,0,0,0A9.89,9.89,0,0,0,46.37,23.72ZM36.22,30.87c-8.21-.17-8-12,.07-12.3C44.12,18.62,44.41,31,36.22,30.87Zm-17.53,4.7h0c-6.25-9.9-2.1-24.57,8.66-29.42a17.05,17.05,0,0,0-6-1c-12.6,9.16-12.8,30.28.13,39.27a16.23,16.23,0,0,0,6-1.09A20.11,20.11,0,0,1,18.69,35.57ZM46.41,24.1c-.64-9.7-13.7-13-18.79-4.65h0c-4.93,6.83,1.9,16.68,10,15.32h0a10.19,10.19,0,0,0,6.65-3.7h0s0,0,0,0a9.82,9.82,0,0,0,1.21-1.94s0,0,0,0A9.94,9.94,0,0,0,46.41,24.1ZM36.22,30.87c-8.21-.17-8-12,.07-12.3C44.12,18.62,44.41,31,36.22,30.87Zm20.31-.8-.52,1h0c-2.51,4.78-5.88,9.29-10.6,12a21.21,21.21,0,0,0,5.23,1.25,35.28,35.28,0,0,0,8.3-10.27H69.08a42.2,42.2,0,0,0,2.32-4ZM71.37,19.53a41.64,41.64,0,0,0-2.21-3.9H59A34.55,34.55,0,0,0,50.72,5.26,20.84,20.84,0,0,0,45.35,6.4c5.17,2.9,8.6,8,11.19,13.23,3.38,0,11.42,0,14.88,0Zm150.87,83.14c-23-23.24-46-46.05-68.93-69.13-4.61-5.23-12-3.15-18.14-3.5a16.75,16.75,0,0,1,5,4c3.72.16,7.39-.94,10.27,2.34C160.85,46.79,171.2,57.15,180,65.91c12.68,12.68,26.16,26.18,39.43,39.57l6.62,0A13.15,13.15,0,0,1,222.24,102.67Zm22.08-7.6a26.8,26.8,0,0,1-3.22-3c-3.9-.26-8.36,1.18-11.22-2.29L204.49,64.38C190.16,50,175.33,35.21,160.81,20.57l-6.29,0c3.52,2.16,6.21,5.85,9.27,8.66h0C186.1,51,207.29,74.12,230.22,95.09A8.77,8.77,0,0,0,233,96h0c4.3.3,8.67,0,13,.09A10.21,10.21,0,0,1,244.32,95.07Zm127.41-11.7a19,19,0,0,0-5.83-1A29.15,29.15,0,0,0,358.32,92l-.46,0h-8.81a38.74,38.74,0,0,0-2.14,4c2.36,0,11.85.14,14-.25,2.24-5.05,6.08-10.31,10.85-12.4ZM370,119.21a27.43,27.43,0,0,1-5.86-6.11h0a52.51,52.51,0,0,1-4-6.7H346.21c.7,1.36,1.5,2.76,2.27,4h9.2a38.49,38.49,0,0,0,8.77,11.2,21.91,21.91,0,0,0,5.57-1A19.54,19.54,0,0,1,370,119.21Zm20.77-17.92c-1.42-14.74-23.26-11-19.93,3.27C374.26,116.39,391.18,113.48,390.72,101.29Zm-6,5.19c-5.32,5.46-13.84-3.16-8.71-8.57C381.59,91.37,391,100.74,384.69,106.48ZM405,98.42a9.36,9.36,0,0,0-5.75-5.31,20.26,20.26,0,0,1-.1,17.69C404.65,109.25,406.1,103.43,405,98.42Zm-14.31,2.87c-1.42-14.74-23.26-11-19.93,3.27C374.26,116.39,391.18,113.48,390.72,101.29Zm-6,5.19c-5.32,5.46-13.84-3.16-8.71-8.57C381.59,91.37,391,100.74,384.69,106.48ZM46.41,24.1c-.64-9.7-13.7-13-18.79-4.65h0c-4.93,6.83,1.9,16.68,10,15.32h0a10.19,10.19,0,0,0,6.65-3.7h0s0,0,0,0a9.82,9.82,0,0,0,1.21-1.94s0,0,0,0A9.94,9.94,0,0,0,46.41,24.1ZM36.22,30.87c-8.21-.17-8-12,.07-12.3C44.12,18.62,44.41,31,36.22,30.87Zm-17.53,4.7h0c-6.25-9.9-2.1-24.57,8.66-29.42a17.05,17.05,0,0,0-6-1c-12.6,9.16-12.8,30.28.13,39.27a16.23,16.23,0,0,0,6-1.09A20.11,20.11,0,0,1,18.69,35.57ZM46.41,24.1c-.64-9.7-13.7-13-18.79-4.65h0c-4.93,6.83,1.9,16.68,10,15.32h0a10.19,10.19,0,0,0,6.65-3.7h0s0,0,0,0a9.82,9.82,0,0,0,1.21-1.94s0,0,0,0A9.94,9.94,0,0,0,46.41,24.1ZM36.22,30.87c-8.21-.17-8-12,.07-12.3C44.12,18.62,44.41,31,36.22,30.87Zm20.31-.8-.52,1h0c-2.51,4.78-5.88,9.29-10.6,12a21.21,21.21,0,0,0,5.23,1.25,35.28,35.28,0,0,0,8.3-10.27H69.08a42.2,42.2,0,0,0,2.32-4ZM71.37,19.53a41.64,41.64,0,0,0-2.21-3.9H59A34.55,34.55,0,0,0,50.72,5.26,20.84,20.84,0,0,0,45.35,6.4c5.17,2.9,8.6,8,11.19,13.23,3.38,0,11.42,0,14.88,0Zm150.87,83.14c-23-23.24-46-46.05-68.93-69.13-4.61-5.23-12-3.15-18.14-3.5a16.75,16.75,0,0,1,5,4c3.72.16,7.39-.94,10.27,2.34C160.85,46.79,171.2,57.15,180,65.91c12.68,12.68,26.16,26.18,39.43,39.57l6.62,0A13.15,13.15,0,0,1,222.24,102.67Zm22.08-7.6a26.8,26.8,0,0,1-3.22-3c-3.9-.26-8.36,1.18-11.22-2.29L204.49,64.38C190.16,50,175.33,35.21,160.81,20.57l-6.29,0c3.52,2.16,6.21,5.85,9.27,8.66h0C186.1,51,207.29,74.12,230.22,95.09A8.77,8.77,0,0,0,233,96h0c4.3.3,8.67,0,13,.09A10.21,10.21,0,0,1,244.32,95.07Zm127.41-11.7a19,19,0,0,0-5.83-1A29.15,29.15,0,0,0,358.32,92l-.46,0h-8.81a38.74,38.74,0,0,0-2.14,4c2.36,0,11.85.14,14-.25,2.24-5.05,6.08-10.31,10.85-12.4ZM370,119.21a27.43,27.43,0,0,1-5.86-6.11h0a52.51,52.51,0,0,1-4-6.7H346.21c.7,1.36,1.5,2.76,2.27,4h9.2a38.49,38.49,0,0,0,8.77,11.2,21.91,21.91,0,0,0,5.57-1A19.54,19.54,0,0,1,370,119.21Zm20.77-17.92c-1.42-14.74-23.26-11-19.93,3.27C374.26,116.39,391.18,113.48,390.72,101.29Zm-6,5.19c-5.32,5.46-13.84-3.16-8.71-8.57C381.59,91.37,391,100.74,384.69,106.48ZM405,98.42a9.36,9.36,0,0,0-5.75-5.31,20.26,20.26,0,0,1-.1,17.69C404.65,109.25,406.1,103.43,405,98.42Zm-14.31,2.87c-1.42-14.74-23.26-11-19.93,3.27C374.26,116.39,391.18,113.48,390.72,101.29Zm-6,5.19c-5.32,5.46-13.84-3.16-8.71-8.57C381.59,91.37,391,100.74,384.69,106.48ZM46.41,24.1c-.64-9.7-13.7-13-18.79-4.65h0c-4.93,6.83,1.9,16.68,10,15.32h0a10.19,10.19,0,0,0,6.65-3.7h0s0,0,0,0a9.82,9.82,0,0,0,1.21-1.94s0,0,0,0A9.94,9.94,0,0,0,46.41,24.1ZM36.22,30.87c-8.21-.17-8-12,.07-12.3C44.12,18.62,44.41,31,36.22,30.87Zm-17.53,4.7h0c-6.25-9.9-2.1-24.57,8.66-29.42a17.05,17.05,0,0,0-6-1c-12.6,9.16-12.8,30.28.13,39.27a16.23,16.23,0,0,0,6-1.09A20.11,20.11,0,0,1,18.69,35.57ZM46.41,24.1c-.64-9.7-13.7-13-18.79-4.65h0c-4.93,6.83,1.9,16.68,10,15.32h0a10.19,10.19,0,0,0,6.65-3.7h0s0,0,0,0a9.82,9.82,0,0,0,1.21-1.94s0,0,0,0A9.94,9.94,0,0,0,46.41,24.1ZM36.22,30.87c-8.21-.17-8-12,.07-12.3C44.12,18.62,44.41,31,36.22,30.87Zm20.31-.8-.52,1h0c-2.51,4.78-5.88,9.29-10.6,12a21.21,21.21,0,0,0,5.23,1.25,35.28,35.28,0,0,0,8.3-10.27H69.08a42.2,42.2,0,0,0,2.32-4ZM71.37,19.53a41.64,41.64,0,0,0-2.21-3.9H59A34.55,34.55,0,0,0,50.72,5.26,20.84,20.84,0,0,0,45.35,6.4c5.17,2.9,8.6,8,11.19,13.23,3.38,0,11.42,0,14.88,0Zm150.87,83.14c-23-23.24-46-46.05-68.93-69.13-4.61-5.23-12-3.15-18.14-3.5a16.75,16.75,0,0,1,5,4c3.72.16,7.39-.94,10.27,2.34C160.85,46.79,171.2,57.15,180,65.91c12.68,12.68,26.16,26.18,39.43,39.57l6.62,0A13.15,13.15,0,0,1,222.24,102.67Zm22.08-7.6a26.8,26.8,0,0,1-3.22-3c-3.9-.26-8.36,1.18-11.22-2.29L204.49,64.38C190.16,50,175.33,35.21,160.81,20.57l-6.29,0c3.52,2.16,6.21,5.85,9.27,8.66h0C186.1,51,207.29,74.12,230.22,95.09A8.77,8.77,0,0,0,233,96h0c4.3.3,8.67,0,13,.09A10.21,10.21,0,0,1,244.32,95.07Zm127.41-11.7a19,19,0,0,0-5.83-1A29.15,29.15,0,0,0,358.32,92l-.46,0h-8.81a38.74,38.74,0,0,0-2.14,4c2.36,0,11.85.14,14-.25,2.24-5.05,6.08-10.31,10.85-12.4ZM370,119.21a27.43,27.43,0,0,1-5.86-6.11h0a52.51,52.51,0,0,1-4-6.7H346.21c.7,1.36,1.5,2.76,2.27,4h9.2a38.49,38.49,0,0,0,8.77,11.2,21.91,21.91,0,0,0,5.57-1A19.54,19.54,0,0,1,370,119.21Zm20.77-17.92c-1.42-14.74-23.26-11-19.93,3.27C374.26,116.39,391.18,113.48,390.72,101.29Zm-6,5.19c-5.32,5.46-13.84-3.16-8.71-8.57C381.59,91.37,391,100.74,384.69,106.48ZM405,98.42a9.36,9.36,0,0,0-5.75-5.31,20.26,20.26,0,0,1-.1,17.69C404.65,109.25,406.1,103.43,405,98.42Zm-14.31,2.87c-1.42-14.74-23.26-11-19.93,3.27C374.26,116.39,391.18,113.48,390.72,101.29Zm-6,5.19c-5.32,5.46-13.84-3.16-8.71-8.57C381.59,91.37,391,100.74,384.69,106.48ZM46.41,24.1c-.64-9.7-13.7-13-18.79-4.65h0c-4.93,6.83,1.9,16.68,10,15.32h0a10.19,10.19,0,0,0,6.65-3.7h0s0,0,0,0a9.82,9.82,0,0,0,1.21-1.94s0,0,0,0A9.94,9.94,0,0,0,46.41,24.1ZM36.22,30.87c-8.21-.17-8-12,.07-12.3C44.12,18.62,44.41,31,36.22,30.87Zm-17.53,4.7h0c-6.25-9.9-2.1-24.57,8.66-29.42a17.05,17.05,0,0,0-6-1c-12.6,9.16-12.8,30.28.13,39.27a16.23,16.23,0,0,0,6-1.09A20.11,20.11,0,0,1,18.69,35.57ZM46.41,24.1c-.64-9.7-13.7-13-18.79-4.65h0c-4.93,6.83,1.9,16.68,10,15.32h0a10.19,10.19,0,0,0,6.65-3.7h0s0,0,0,0a9.82,9.82,0,0,0,1.21-1.94s0,0,0,0A9.94,9.94,0,0,0,46.41,24.1ZM36.22,30.87c-8.21-.17-8-12,.07-12.3C44.12,18.62,44.41,31,36.22,30.87Zm20.31-.8-.52,1h0c-2.51,4.78-5.88,9.29-10.6,12a21.21,21.21,0,0,0,5.23,1.25,35.28,35.28,0,0,0,8.3-10.27H69.08a42.2,42.2,0,0,0,2.32-4ZM71.37,19.53a41.64,41.64,0,0,0-2.21-3.9H59A34.55,34.55,0,0,0,50.72,5.26,20.84,20.84,0,0,0,45.35,6.4c5.17,2.9,8.6,8,11.19,13.23,3.38,0,11.42,0,14.88,0Zm150.87,83.14c-23-23.24-46-46.05-68.93-69.13-4.61-5.23-12-3.15-18.14-3.5a16.75,16.75,0,0,1,5,4c3.72.16,7.39-.94,10.27,2.34C160.85,46.79,171.2,57.15,180,65.91c12.68,12.68,26.16,26.18,39.43,39.57l6.62,0A13.15,13.15,0,0,1,222.24,102.67Zm22.08-7.6a26.8,26.8,0,0,1-3.22-3c-3.9-.26-8.36,1.18-11.22-2.29L204.49,64.38C190.16,50,175.33,35.21,160.81,20.57l-6.29,0c3.52,2.16,6.21,5.85,9.27,8.66h0C186.1,51,207.29,74.12,230.22,95.09A8.77,8.77,0,0,0,233,96h0c4.3.3,8.67,0,13,.09A10.21,10.21,0,0,1,244.32,95.07Zm127.41-11.7a19,19,0,0,0-5.83-1A29.15,29.15,0,0,0,358.32,92l-.46,0h-8.81a38.74,38.74,0,0,0-2.14,4c2.36,0,11.85.14,14-.25,2.24-5.05,6.08-10.31,10.85-12.4ZM370,119.21a27.43,27.43,0,0,1-5.86-6.11h0a52.51,52.51,0,0,1-4-6.7H346.21c.7,1.36,1.5,2.76,2.27,4h9.2a38.49,38.49,0,0,0,8.77,11.2,21.91,21.91,0,0,0,5.57-1A19.54,19.54,0,0,1,370,119.21Zm20.77-17.92c-1.42-14.74-23.26-11-19.93,3.27C374.26,116.39,391.18,113.48,390.72,101.29Zm-6,5.19c-5.32,5.46-13.84-3.16-8.71-8.57C381.59,91.37,391,100.74,384.69,106.48ZM405,98.42a9.36,9.36,0,0,0-5.75-5.31,20.26,20.26,0,0,1-.1,17.69C404.65,109.25,406.1,103.43,405,98.42Zm-14.31,2.87c-1.42-14.74-23.26-11-19.93,3.27C374.26,116.39,391.18,113.48,390.72,101.29Zm-6,5.19c-5.32,5.46-13.84-3.16-8.71-8.57C381.59,91.37,391,100.74,384.69,106.48ZM46.41,24.1c-.64-9.7-13.7-13-18.79-4.65h0c-4.93,6.83,1.9,16.68,10,15.32h0a10.19,10.19,0,0,0,6.65-3.7h0s0,0,0,0a9.82,9.82,0,0,0,1.21-1.94s0,0,0,0A9.94,9.94,0,0,0,46.41,24.1ZM36.22,30.87c-8.21-.17-8-12,.07-12.3C44.12,18.62,44.41,31,36.22,30.87Zm-17.53,4.7h0c-6.25-9.9-2.1-24.57,8.66-29.42a17.05,17.05,0,0,0-6-1c-12.6,9.16-12.8,30.28.13,39.27a16.23,16.23,0,0,0,6-1.09A20.11,20.11,0,0,1,18.69,35.57ZM46.41,24.1c-.64-9.7-13.7-13-18.79-4.65h0c-4.93,6.83,1.9,16.68,10,15.32h0a10.19,10.19,0,0,0,6.65-3.7h0s0,0,0,0a9.82,9.82,0,0,0,1.21-1.94s0,0,0,0A9.94,9.94,0,0,0,46.41,24.1ZM36.22,30.87c-8.21-.17-8-12,.07-12.3C44.12,18.62,44.41,31,36.22,30.87Zm20.31-.8-.52,1h0c-2.51,4.78-5.88,9.29-10.6,12a21.21,21.21,0,0,0,5.23,1.25,35.28,35.28,0,0,0,8.3-10.27H69.08a42.2,42.2,0,0,0,2.32-4ZM71.37,19.53a41.64,41.64,0,0,0-2.21-3.9H59A34.55,34.55,0,0,0,50.72,5.26,20.84,20.84,0,0,0,45.35,6.4c5.17,2.9,8.6,8,11.19,13.23,3.38,0,11.42,0,14.88,0Zm150.87,83.14c-23-23.24-46-46.05-68.93-69.13-4.61-5.23-12-3.15-18.14-3.5a16.75,16.75,0,0,1,5,4c3.72.16,7.39-.94,10.27,2.34C160.85,46.79,171.2,57.15,180,65.91c12.68,12.68,26.16,26.18,39.43,39.57l6.62,0A13.15,13.15,0,0,1,222.24,102.67Zm22.08-7.6a26.8,26.8,0,0,1-3.22-3c-3.9-.26-8.36,1.18-11.22-2.29L204.49,64.38C190.16,50,175.33,35.21,160.81,20.57l-6.29,0c3.52,2.16,6.21,5.85,9.27,8.66h0C186.1,51,207.29,74.12,230.22,95.09A8.77,8.77,0,0,0,233,96h0c4.3.3,8.67,0,13,.09A10.21,10.21,0,0,1,244.32,95.07Zm127.41-11.7a19,19,0,0,0-5.83-1A29.15,29.15,0,0,0,358.32,92l-.46,0h-8.81a38.74,38.74,0,0,0-2.14,4c2.36,0,11.85.14,14-.25,2.24-5.05,6.08-10.31,10.85-12.4ZM370,119.21a27.43,27.43,0,0,1-5.86-6.11h0a52.51,52.51,0,0,1-4-6.7H346.21c.7,1.36,1.5,2.76,2.27,4h9.2a38.49,38.49,0,0,0,8.77,11.2,21.91,21.91,0,0,0,5.57-1A19.54,19.54,0,0,1,370,119.21Zm20.77-17.92c-1.42-14.74-23.26-11-19.93,3.27C374.26,116.39,391.18,113.48,390.72,101.29Zm-6,5.19c-5.32,5.46-13.84-3.16-8.71-8.57C381.59,91.37,391,100.74,384.69,106.48ZM405,98.42a9.36,9.36,0,0,0-5.75-5.31,20.26,20.26,0,0,1-.1,17.69C404.65,109.25,406.1,103.43,405,98.42Zm-14.31,2.87c-1.42-14.74-23.26-11-19.93,3.27C374.26,116.39,391.18,113.48,390.72,101.29Zm-6,5.19c-5.32,5.46-13.84-3.16-8.71-8.57C381.59,91.37,391,100.74,384.69,106.48ZM46.41,24.1c-.64-9.7-13.7-13-18.79-4.65h0c-4.93,6.83,1.9,16.68,10,15.32h0a10.19,10.19,0,0,0,6.65-3.7h0s0,0,0,0a9.82,9.82,0,0,0,1.21-1.94s0,0,0,0A9.94,9.94,0,0,0,46.41,24.1ZM36.22,30.87c-8.21-.17-8-12,.07-12.3C44.12,18.62,44.41,31,36.22,30.87ZM17.47,16.47c-7,3-7.29,13.49-.1,16.52A21.23,21.23,0,0,1,17.47,16.47ZM46.41,24.1c-.64-9.7-13.7-13-18.79-4.65h0c-4.93,6.83,1.9,16.68,10,15.32h0a10.19,10.19,0,0,0,6.65-3.7h0s0,0,0,0a9.82,9.82,0,0,0,1.21-1.94s0,0,0,0A9.94,9.94,0,0,0,46.41,24.1ZM36.22,30.87c-8.21-.17-8-12,.07-12.3C44.12,18.62,44.41,31,36.22,30.87ZM59,18.64a9.18,9.18,0,0,0-4.5-2.78l-.19-.29c.82,1.29,1.54,2.68,2.24,4.06h3.25A8.45,8.45,0,0,0,59,18.64ZM56.53,30.07l-.52,1h0c-.43.86-.94,1.71-1.42,2.51a9,9,0,0,0,5.18-3.51ZM359.61,95a7.92,7.92,0,0,0-.95,1c.72-.08,1.5-.16,2.26-.22.37-.78.76-1.6,1.17-2.33A8.84,8.84,0,0,0,359.61,95Zm2.56,15.12c-.75-1.21-1.43-2.49-2.09-3.77h-2.45a9.59,9.59,0,0,0,4.79,4.2C362.34,110.45,362.25,110.31,362.17,110.16Zm28.55-8.87c-1.42-14.74-23.26-11-19.93,3.27C374.26,116.39,391.18,113.48,390.72,101.29Zm-6,5.19c-5.32,5.46-13.84-3.16-8.71-8.57C381.59,91.37,391,100.74,384.69,106.48ZM405,98.42a9.36,9.36,0,0,0-5.75-5.31,20.26,20.26,0,0,1-.1,17.69C404.65,109.25,406.1,103.43,405,98.42Zm-14.31,2.87c-1.42-14.74-23.26-11-19.93,3.27C374.26,116.39,391.18,113.48,390.72,101.29Zm-6,5.19c-5.32,5.46-13.84-3.16-8.71-8.57C381.59,91.37,391,100.74,384.69,106.48ZM46.41,24.1c-.64-9.7-13.7-13-18.79-4.65h0c-4.93,6.83,1.9,16.68,10,15.32h0a10.19,10.19,0,0,0,6.65-3.7h0s0,0,0,0a9.82,9.82,0,0,0,1.21-1.94s0,0,0,0A9.94,9.94,0,0,0,46.41,24.1ZM36.22,30.87c-8.21-.17-8-12,.07-12.3C44.12,18.62,44.41,31,36.22,30.87ZM46.41,24.1c-.64-9.7-13.7-13-18.79-4.65h0c-4.93,6.83,1.9,16.68,10,15.32h0a10.19,10.19,0,0,0,6.65-3.7h0s0,0,0,0a9.82,9.82,0,0,0,1.21-1.94s0,0,0,0A9.94,9.94,0,0,0,46.41,24.1ZM36.22,30.87c-8.21-.17-8-12,.07-12.3C44.12,18.62,44.41,31,36.22,30.87ZM59,18.64a9.18,9.18,0,0,0-4.5-2.78l-.19-.29c.82,1.29,1.54,2.68,2.24,4.06h3.25A8.45,8.45,0,0,0,59,18.64ZM56.53,30.07l-.52,1h0c-.43.86-.94,1.71-1.42,2.51a9,9,0,0,0,5.18-3.51ZM359.61,95a7.92,7.92,0,0,0-.95,1c.72-.08,1.5-.16,2.26-.22.37-.78.76-1.6,1.17-2.33A8.84,8.84,0,0,0,359.61,95Zm2.56,15.12c-.75-1.21-1.43-2.49-2.09-3.77h-2.45a9.59,9.59,0,0,0,4.79,4.2C362.34,110.45,362.25,110.31,362.17,110.16Zm28.55-8.87c-1.42-14.74-23.26-11-19.93,3.27C374.26,116.39,391.18,113.48,390.72,101.29Zm-6,5.19c-5.32,5.46-13.84-3.16-8.71-8.57C381.59,91.37,391,100.74,384.69,106.48ZM405,98.42a9.36,9.36,0,0,0-5.75-5.31,20.26,20.26,0,0,1-.1,17.69C404.65,109.25,406.1,103.43,405,98.42Zm-14.31,2.87c-1.42-14.74-23.26-11-19.93,3.27C374.26,116.39,391.18,113.48,390.72,101.29Zm-6,5.19c-5.32,5.46-13.84-3.16-8.71-8.57C381.59,91.37,391,100.74,384.69,106.48ZM46.41,24.1c-.64-9.7-13.7-13-18.79-4.65h0c-4.93,6.83,1.9,16.68,10,15.32h0a10.19,10.19,0,0,0,6.65-3.7h0s0,0,0,0a9.82,9.82,0,0,0,1.21-1.94s0,0,0,0A9.94,9.94,0,0,0,46.41,24.1ZM36.22,30.87c-8.21-.17-8-12,.07-12.3C44.12,18.62,44.41,31,36.22,30.87ZM46.41,24.1c-.64-9.7-13.7-13-18.79-4.65h0c-4.93,6.83,1.9,16.68,10,15.32h0a10.19,10.19,0,0,0,6.65-3.7h0s0,0,0,0a9.82,9.82,0,0,0,1.21-1.94s0,0,0,0A9.94,9.94,0,0,0,46.41,24.1ZM36.22,30.87c-8.21-.17-8-12,.07-12.3C44.12,18.62,44.41,31,36.22,30.87ZM59,18.64a9.18,9.18,0,0,0-4.5-2.78l-.19-.29c.82,1.29,1.54,2.68,2.24,4.06h3.25A8.45,8.45,0,0,0,59,18.64ZM56.53,30.07l-.52,1h0c-.43.86-.94,1.71-1.42,2.51a9,9,0,0,0,5.18-3.51ZM359.61,95a7.92,7.92,0,0,0-.95,1c.72-.08,1.5-.16,2.26-.22.37-.78.76-1.6,1.17-2.33A8.84,8.84,0,0,0,359.61,95Zm2.56,15.12c-.75-1.21-1.43-2.49-2.09-3.77h-2.45a9.59,9.59,0,0,0,4.79,4.2C362.34,110.45,362.25,110.31,362.17,110.16Zm28.55-8.87c-1.42-14.74-23.26-11-19.93,3.27C374.26,116.39,391.18,113.48,390.72,101.29Zm-6,5.19c-5.32,5.46-13.84-3.16-8.71-8.57C381.59,91.37,391,100.74,384.69,106.48ZM405,98.42a9.36,9.36,0,0,0-5.75-5.31,20.26,20.26,0,0,1-.1,17.69C404.65,109.25,406.1,103.43,405,98.42Zm-14.31,2.87c-1.42-14.74-23.26-11-19.93,3.27C374.26,116.39,391.18,113.48,390.72,101.29Zm-6,5.19c-5.32,5.46-13.84-3.16-8.71-8.57C381.59,91.37,391,100.74,384.69,106.48ZM46.41,24.1c-.64-9.7-13.7-13-18.79-4.65h0c-4.93,6.83,1.9,16.68,10,15.32h0a10.19,10.19,0,0,0,6.65-3.7h0s0,0,0,0a9.82,9.82,0,0,0,1.21-1.94s0,0,0,0A9.94,9.94,0,0,0,46.41,24.1ZM36.22,30.87c-8.21-.17-8-12,.07-12.3C44.12,18.62,44.41,31,36.22,30.87Zm340.22,66a28.45,28.45,0,0,1-3.13.2,9.34,9.34,0,0,1,1.31,3.41,6.43,6.43,0,0,1,2.65-3.68Z"/></svg>