<svg id="Finished" xmlns="http://www.w3.org/2000/svg" viewBox="0 0 491 91"><defs><style>.cls-1{fill:#4df4e4;}.cls-2{fill:red;}.cls-3{fill:#fff;}</style></defs><path class="cls-1" d="M480.13,65.88A11.41,11.41,0,0,1,476,74.81c2.56-7.08,2.55-10.12,0-17.19A11.35,11.35,0,0,1,480.13,65.88Z"/><path class="cls-1" d="M490.52,67.28c-.44,12.87-12.73,22.5-25.13,20.24a25.33,25.33,0,0,0,2.6-1.77c27.12.75,27.12-39.77-.08-39.13a22.86,22.86,0,0,0-2.6-1.71,21.15,21.15,0,0,1,9.3.46h0A21.34,21.34,0,0,1,490.52,67.28Z"/><path class="cls-1" d="M181.77,56.93H179c-10.2-10.25-20.72-20.65-30.73-30.87-3-3.53-7.48-2.57-11.59-2.65a25.66,25.66,0,0,0-2.06-2c5.27.18,11.19-1.26,15.09,3.24C160.12,35.36,171.12,46.2,181.77,56.93Z"/><path class="cls-1" d="M71,18.47H68.6C63.51,10.71,57.42,7.29,50.12,8.09a24.9,24.9,0,0,0-2.27-1.67C57.25,4.51,64.85,8.47,71,18.47Z"/><path class="cls-1" d="M70.9,37.09c-6.08,9.72-13.6,13.79-23,11.88a23.35,23.35,0,0,0,2.26-1.66c7.18.78,13.35-2.64,18.39-10.21Z"/><path class="cls-2" d="M440.9,87.58c-8.39.82-15.92-1.2-22.08-12.1h2.3c4.85,8.24,11.42,10.4,17.19,10.28A22.2,22.2,0,0,0,440.9,87.58Z"/><path class="cls-2" d="M441,44.82a20.67,20.67,0,0,0-2.64,1.78c-7.23-.11-13.51,3.62-17.24,10.25H418.8C423.21,48.15,431.73,43.5,441,44.82Z"/><path class="cls-2" d="M159.63,72.55c-5.46.13-11.23.43-15.06-4-10.37-10.7-20.88-21-31.34-31.48l2.83,0c10,10,20,19.87,29.95,30.1,2.91,3.41,7.11,3.62,11.37,3.44A18.66,18.66,0,0,0,159.63,72.55Z"/><path class="cls-2" d="M21.13,47.42a22.15,22.15,0,0,0,2.81,1.82C-8.44,52-8.32,3.34,24,6.14A23.58,23.58,0,0,0,21.17,8C-4.78,8.31-4.83,47.05,21.13,47.42Z"/><path class="cls-2" d="M11.44,27.37a26,26,0,0,0,1,7.49,10.79,10.79,0,0,1,0-14.35A24.44,24.44,0,0,0,11.44,27.37Z"/><path class="cls-3" d="M45.17,23.46C38.58,10.12,19.3,21.78,27.81,33.7,34.77,43.5,50.39,34.19,45.17,23.46ZM36,33.89c-8.11-.29-8-12.15,0-12.45C44,21.78,44,33.67,36,33.89Zm425.6,27a10.45,10.45,0,0,0-3.94-3.67h0c-10-5.65-20.46,9.1-11.45,16.51C454.26,81.9,467.94,70.26,461.55,60.85ZM457,70.74c-5.69,5.75-14.46-4.17-8.09-9.15C454.86,56.22,463,65.44,457,70.74ZM45.17,23.46C38.58,10.12,19.3,21.78,27.81,33.7,34.77,43.5,50.39,34.19,45.17,23.46ZM36,33.89c-8.11-.29-8-12.15,0-12.45C44,21.78,44,33.67,36,33.89Zm425.6,27a10.45,10.45,0,0,0-3.94-3.67h0c-10-5.65-20.46,9.1-11.45,16.51C454.26,81.9,467.94,70.26,461.55,60.85ZM457,70.74c-5.69,5.75-14.46-4.17-8.09-9.15C454.86,56.22,463,65.44,457,70.74ZM45.17,23.46C38.58,10.12,19.3,21.78,27.81,33.7,34.77,43.5,50.39,34.19,45.17,23.46ZM36,33.89c-8.11-.29-8-12.15,0-12.45C44,21.78,44,33.67,36,33.89Zm425.6,27a10.45,10.45,0,0,0-3.94-3.67h0c-10-5.65-20.46,9.1-11.45,16.51C454.26,81.9,467.94,70.26,461.55,60.85ZM457,70.74c-5.69,5.75-14.46-4.17-8.09-9.15C454.86,56.22,463,65.44,457,70.74Zm4.52-9.89a10.45,10.45,0,0,0-3.94-3.67h0c-10-5.65-20.46,9.1-11.45,16.51C454.26,81.9,467.94,70.26,461.55,60.85ZM457,70.74c-5.69,5.75-14.46-4.17-8.09-9.15C454.86,56.22,463,65.44,457,70.74ZM45.17,23.46C38.58,10.12,19.3,21.78,27.81,33.7,34.77,43.5,50.39,34.19,45.17,23.46ZM36,33.89c-8.11-.29-8-12.15,0-12.45C44,21.78,44,33.67,36,33.89Zm9.22-10.43C38.58,10.12,19.3,21.78,27.81,33.7,34.77,43.5,50.39,34.19,45.17,23.46ZM36,33.89c-8.11-.29-8-12.15,0-12.45C44,21.78,44,33.67,36,33.89Zm425.6,27a10.45,10.45,0,0,0-3.94-3.67h0c-10-5.65-20.46,9.1-11.45,16.51C454.26,81.9,467.94,70.26,461.55,60.85ZM457,70.74c-5.69,5.75-14.46-4.17-8.09-9.15C454.86,56.22,463,65.44,457,70.74Zm4.52-9.89a10.45,10.45,0,0,0-3.94-3.67h0c-10-5.65-20.46,9.1-11.45,16.51C454.26,81.9,467.94,70.26,461.55,60.85ZM457,70.74c-5.69,5.75-14.46-4.17-8.09-9.15C454.86,56.22,463,65.44,457,70.74ZM57.5,33.1a8.18,8.18,0,0,0-1.69.39c-.57,1.06-1.18,2.15-1.8,3.15a9.44,9.44,0,0,0,5.28-3.54Zm1.12-11.63a9.49,9.49,0,0,0-4.69-2.78c.74,1.15,1.48,2.5,2.14,3.77h3.36A9.7,9.7,0,0,0,58.62,21.47Zm-13.45,2C38.58,10.12,19.3,21.78,27.81,33.7,34.77,43.5,50.39,34.19,45.17,23.46ZM36,33.89c-8.11-.29-8-12.15,0-12.45C44,21.78,44,33.67,36,33.89ZM17.14,19.37c-7,3.13-7.08,13.48,0,16.6A21.39,21.39,0,0,1,17.14,19.37Zm28,4.09C38.58,10.12,19.3,21.78,27.81,33.7,34.77,43.5,50.39,34.19,45.17,23.46ZM36,33.89c-8.11-.29-8-12.15,0-12.45C44,21.78,44,33.67,36,33.89Zm425.6,27a10.45,10.45,0,0,0-3.94-3.67h0c-10-5.65-20.46,9.1-11.45,16.51C454.26,81.9,467.94,70.26,461.55,60.85ZM457,70.74c-5.69,5.75-14.46-4.17-8.09-9.15C454.86,56.22,463,65.44,457,70.74Zm4.52-9.89a10.45,10.45,0,0,0-3.94-3.67h0c-10-5.65-20.46,9.1-11.45,16.51C454.26,81.9,467.94,70.26,461.55,60.85ZM457,70.74c-5.69,5.75-14.46-4.17-8.09-9.15C454.86,56.22,463,65.44,457,70.74ZM57.5,33.1a8.18,8.18,0,0,0-1.69.39c-.57,1.06-1.18,2.15-1.8,3.15a9.44,9.44,0,0,0,5.28-3.54Zm1.12-11.63a9.49,9.49,0,0,0-4.69-2.78c.74,1.15,1.48,2.5,2.14,3.77h3.36A9.7,9.7,0,0,0,58.62,21.47Zm-13.45,2C38.58,10.12,19.3,21.78,27.81,33.7,34.77,43.5,50.39,34.19,45.17,23.46ZM36,33.89c-8.11-.29-8-12.15,0-12.45C44,21.78,44,33.67,36,33.89ZM17.14,19.37c-7,3.13-7.08,13.48,0,16.6A21.39,21.39,0,0,1,17.14,19.37Zm28,4.09C38.58,10.12,19.3,21.78,27.81,33.7,34.77,43.5,50.39,34.19,45.17,23.46ZM36,33.89c-8.11-.29-8-12.15,0-12.45C44,21.78,44,33.67,36,33.89Zm425.6,27a10.45,10.45,0,0,0-3.94-3.67h0c-10-5.65-20.46,9.1-11.45,16.51C454.26,81.9,467.94,70.26,461.55,60.85ZM457,70.74c-5.69,5.75-14.46-4.17-8.09-9.15C454.86,56.22,463,65.44,457,70.74Zm4.52-9.89a10.45,10.45,0,0,0-3.94-3.67h0c-10-5.65-20.46,9.1-11.45,16.51C454.26,81.9,467.94,70.26,461.55,60.85ZM457,70.74c-5.69,5.75-14.46-4.17-8.09-9.15C454.86,56.22,463,65.44,457,70.74ZM57.5,33.1a8.18,8.18,0,0,0-1.69.39c-.57,1.06-1.18,2.15-1.8,3.15a9.44,9.44,0,0,0,5.28-3.54Zm1.12-11.63a9.49,9.49,0,0,0-4.69-2.78c.74,1.15,1.48,2.5,2.14,3.77h3.36A9.7,9.7,0,0,0,58.62,21.47Zm-13.45,2C38.58,10.12,19.3,21.78,27.81,33.7,34.77,43.5,50.39,34.19,45.17,23.46ZM36,33.89c-8.11-.29-8-12.15,0-12.45C44,21.78,44,33.67,36,33.89ZM17.14,19.37c-7,3.13-7.08,13.48,0,16.6A21.39,21.39,0,0,1,17.14,19.37Zm28,4.09C38.58,10.12,19.3,21.78,27.81,33.7,34.77,43.5,50.39,34.19,45.17,23.46ZM36,33.89c-8.11-.29-8-12.15,0-12.45C44,21.78,44,33.67,36,33.89Zm425.6,27a10.45,10.45,0,0,0-3.94-3.67h0c-10-5.65-20.46,9.1-11.45,16.51C454.26,81.9,467.94,70.26,461.55,60.85ZM457,70.74c-5.69,5.75-14.46-4.17-8.09-9.15C454.86,56.22,463,65.44,457,70.74Zm4.52-9.89a10.45,10.45,0,0,0-3.94-3.67h0c-10-5.65-20.46,9.1-11.45,16.51C454.26,81.9,467.94,70.26,461.55,60.85ZM457,70.74c-5.69,5.75-14.46-4.17-8.09-9.15C454.86,56.22,463,65.44,457,70.74ZM57.5,33.1a8.18,8.18,0,0,0-1.69.39c-.57,1.06-1.18,2.15-1.8,3.15a9.44,9.44,0,0,0,5.28-3.54Zm1.12-11.63a9.49,9.49,0,0,0-4.69-2.78c.74,1.15,1.48,2.5,2.14,3.77h3.36A9.7,9.7,0,0,0,58.62,21.47Zm-13.45,2C38.58,10.12,19.3,21.78,27.81,33.7,34.77,43.5,50.39,34.19,45.17,23.46ZM36,33.89c-8.11-.29-8-12.15,0-12.45C44,21.78,44,33.67,36,33.89ZM17.14,19.37c-7,3.13-7.08,13.48,0,16.6A21.39,21.39,0,0,1,17.14,19.37Zm28,4.09C38.58,10.12,19.3,21.78,27.81,33.7,34.77,43.5,50.39,34.19,45.17,23.46ZM36,33.89c-8.11-.29-8-12.15,0-12.45C44,21.78,44,33.67,36,33.89Zm425.6,27a10.45,10.45,0,0,0-3.94-3.67h0c-10-5.65-20.46,9.1-11.45,16.51C454.26,81.9,467.94,70.26,461.55,60.85ZM457,70.74c-5.69,5.75-14.46-4.17-8.09-9.15C454.86,56.22,463,65.44,457,70.74Zm4.52-9.89a10.45,10.45,0,0,0-3.94-3.67h0c-10-5.65-20.46,9.1-11.45,16.51C454.26,81.9,467.94,70.26,461.55,60.85ZM457,70.74c-5.69,5.75-14.46-4.17-8.09-9.15C454.86,56.22,463,65.44,457,70.74ZM57.5,33.1a8.18,8.18,0,0,0-1.69.39c-.57,1.06-1.18,2.15-1.8,3.15a9.44,9.44,0,0,0,5.28-3.54Zm1.12-11.63a9.49,9.49,0,0,0-4.69-2.78c.74,1.15,1.48,2.5,2.14,3.77h3.36A9.7,9.7,0,0,0,58.62,21.47Zm-13.45,2C38.58,10.12,19.3,21.78,27.81,33.7,34.77,43.5,50.39,34.19,45.17,23.46ZM36,33.89c-8.11-.29-8-12.15,0-12.45C44,21.78,44,33.67,36,33.89ZM17.14,19.37c-7,3.13-7.08,13.48,0,16.6A21.39,21.39,0,0,1,17.14,19.37Zm28,4.09C38.58,10.12,19.3,21.78,27.81,33.7,34.77,43.5,50.39,34.19,45.17,23.46ZM36,33.89c-8.11-.29-8-12.15,0-12.45C44,21.78,44,33.67,36,33.89Zm425.6,27a10.45,10.45,0,0,0-3.94-3.67h0c-10-5.65-20.46,9.1-11.45,16.51C454.26,81.9,467.94,70.26,461.55,60.85ZM457,70.74c-5.69,5.75-14.46-4.17-8.09-9.15C454.86,56.22,463,65.44,457,70.74Zm4.52-9.89a10.45,10.45,0,0,0-3.94-3.67h0c-10-5.65-20.46,9.1-11.45,16.51C454.26,81.9,467.94,70.26,461.55,60.85ZM457,70.74c-5.69,5.75-14.46-4.17-8.09-9.15C454.86,56.22,463,65.44,457,70.74Zm-23.74,1.34-.26-.6h-2.49a9,9,0,0,0,.85,1h2.08ZM57.5,33.1a8.18,8.18,0,0,0-1.69.39c-.57,1.06-1.18,2.15-1.8,3.15a9.44,9.44,0,0,0,5.28-3.54Zm1.12-11.63a9.49,9.49,0,0,0-4.69-2.78c.74,1.15,1.48,2.5,2.14,3.77h3.36A9.7,9.7,0,0,0,58.62,21.47Zm-13.45,2C38.58,10.12,19.3,21.78,27.81,33.7,34.77,43.5,50.39,34.19,45.17,23.46ZM36,33.89c-8.11-.29-8-12.15,0-12.45C44,21.78,44,33.67,36,33.89ZM17.14,19.37c-7,3.13-7.08,13.48,0,16.6A21.39,21.39,0,0,1,17.14,19.37Zm28,4.09C38.58,10.12,19.3,21.78,27.81,33.7,34.77,43.5,50.39,34.19,45.17,23.46ZM36,33.89c-8.11-.29-8-12.15,0-12.45C44,21.78,44,33.67,36,33.89Zm425.6,27a10.45,10.45,0,0,0-3.94-3.67h0c-10-5.65-20.46,9.1-11.45,16.51C454.26,81.9,467.94,70.26,461.55,60.85ZM457,70.74c-5.69,5.75-14.46-4.17-8.09-9.15C454.86,56.22,463,65.44,457,70.74Zm4.52-9.89a10.45,10.45,0,0,0-3.94-3.67h0c-10-5.65-20.46,9.1-11.45,16.51C454.26,81.9,467.94,70.26,461.55,60.85ZM457,70.74c-5.69,5.75-14.46-4.17-8.09-9.15C454.86,56.22,463,65.44,457,70.74ZM431.41,59.85a9.07,9.07,0,0,0-.86,1,12.61,12.61,0,0,0,2.64-.32c.4-.94.82-1.91,1.28-2.78A9.5,9.5,0,0,0,431.41,59.85Zm2.06,12.63c-.12-.26-.33-.74-.44-1h-2.49a10.35,10.35,0,0,0,4,3.25C434.18,74,433.82,73.27,433.47,72.48ZM57.5,33.1a8.18,8.18,0,0,0-1.69.39c-.57,1.06-1.18,2.15-1.8,3.15a9.44,9.44,0,0,0,5.28-3.54Zm1.12-11.63a9.49,9.49,0,0,0-4.69-2.78c.74,1.15,1.48,2.5,2.14,3.77h3.36A9.7,9.7,0,0,0,58.62,21.47Zm-13.45,2C38.58,10.12,19.3,21.78,27.81,33.7,34.77,43.5,50.39,34.19,45.17,23.46ZM36,33.89c-8.11-.29-8-12.15,0-12.45C44,21.78,44,33.67,36,33.89ZM17.14,19.37c-7,3.13-7.08,13.48,0,16.6A21.39,21.39,0,0,1,17.14,19.37Zm28,4.09C38.58,10.12,19.3,21.78,27.81,33.7,34.77,43.5,50.39,34.19,45.17,23.46ZM36,33.89c-8.11-.29-8-12.15,0-12.45C44,21.78,44,33.67,36,33.89Zm425.6,27a10.45,10.45,0,0,0-3.94-3.67h0c-10-5.65-20.46,9.1-11.45,16.51C454.26,81.9,467.94,70.26,461.55,60.85ZM457,70.74c-5.69,5.75-14.46-4.17-8.09-9.15C454.86,56.22,463,65.44,457,70.74Zm4.52-9.89a10.45,10.45,0,0,0-3.94-3.67h0c-10-5.65-20.46,9.1-11.45,16.51C454.26,81.9,467.94,70.26,461.55,60.85ZM457,70.74c-5.69,5.75-14.46-4.17-8.09-9.15C454.86,56.22,463,65.44,457,70.74ZM431.41,59.85a9.07,9.07,0,0,0-.86,1,12.61,12.61,0,0,0,2.64-.32c.4-.94.82-1.91,1.28-2.78A9.5,9.5,0,0,0,431.41,59.85Zm2.06,12.63c-.12-.26-.33-.74-.44-1h-2.49a10.35,10.35,0,0,0,4,3.25C434.18,74,433.82,73.27,433.47,72.48ZM57.5,33.1a8.18,8.18,0,0,0-1.69.39c-.57,1.06-1.18,2.15-1.8,3.15a9.44,9.44,0,0,0,5.28-3.54Zm1.12-11.63a9.49,9.49,0,0,0-4.69-2.78c.74,1.15,1.48,2.5,2.14,3.77h3.36A9.7,9.7,0,0,0,58.62,21.47Zm-13.45,2C38.58,10.12,19.3,21.78,27.81,33.7,34.77,43.5,50.39,34.19,45.17,23.46ZM36,33.89c-8.11-.29-8-12.15,0-12.45C44,21.78,44,33.67,36,33.89ZM17.14,19.37c-7,3.13-7.08,13.48,0,16.6A21.39,21.39,0,0,1,17.14,19.37Zm28,4.09C38.58,10.12,19.3,21.78,27.81,33.7,34.77,43.5,50.39,34.19,45.17,23.46ZM36,33.89c-8.11-.29-8-12.15,0-12.45C44,21.78,44,33.67,36,33.89Zm425.6,27a10.45,10.45,0,0,0-3.94-3.67h0c-10-5.65-20.46,9.1-11.45,16.51C454.26,81.9,467.94,70.26,461.55,60.85ZM457,70.74c-5.69,5.75-14.46-4.17-8.09-9.15C454.86,56.22,463,65.44,457,70.74Zm4.52-9.89a10.45,10.45,0,0,0-3.94-3.67h0c-10-5.65-20.46,9.1-11.45,16.51C454.26,81.9,467.94,70.26,461.55,60.85ZM457,70.74c-5.69,5.75-14.46-4.17-8.09-9.15C454.86,56.22,463,65.44,457,70.74ZM431.41,59.85a9.07,9.07,0,0,0-.86,1,12.61,12.61,0,0,0,2.64-.32c.4-.94.82-1.91,1.28-2.78A9.5,9.5,0,0,0,431.41,59.85Zm2.06,12.63c-.12-.26-.33-.74-.44-1h-2.49a10.35,10.35,0,0,0,4,3.25C434.18,74,433.82,73.27,433.47,72.48ZM57.5,33.1a8.18,8.18,0,0,0-1.69.39c-.57,1.06-1.18,2.15-1.8,3.15a9.44,9.44,0,0,0,5.28-3.54Zm1.12-11.63a9.49,9.49,0,0,0-4.69-2.78c.74,1.15,1.48,2.5,2.14,3.77h3.36A9.7,9.7,0,0,0,58.62,21.47Zm-13.45,2C38.58,10.12,19.3,21.78,27.81,33.7,34.77,43.5,50.39,34.19,45.17,23.46ZM36,33.89c-8.11-.29-8-12.15,0-12.45C44,21.78,44,33.67,36,33.89ZM17.14,19.37c-7,3.13-7.08,13.48,0,16.6A21.39,21.39,0,0,1,17.14,19.37Zm28,4.09C38.58,10.12,19.3,21.78,27.81,33.7,34.77,43.5,50.39,34.19,45.17,23.46ZM36,33.89c-8.11-.29-8-12.15,0-12.45C44,21.78,44,33.67,36,33.89Zm425.6,27a10.45,10.45,0,0,0-3.94-3.67h0c-10-5.65-20.46,9.1-11.45,16.51C454.26,81.9,467.94,70.26,461.55,60.85ZM457,70.74c-5.69,5.75-14.46-4.17-8.09-9.15C454.86,56.22,463,65.44,457,70.74Zm4.52-9.89a10.45,10.45,0,0,0-3.94-3.67h0c-10-5.65-20.46,9.1-11.45,16.51C454.26,81.9,467.94,70.26,461.55,60.85ZM457,70.74c-5.69,5.75-14.46-4.17-8.09-9.15C454.86,56.22,463,65.44,457,70.74Zm-24.95-10c.26-.06.81-.14,1.11-.19.4-.94.82-1.91,1.28-2.78a9.67,9.67,0,0,0-3.92,3.1A5.66,5.66,0,0,0,432.08,60.72Zm1.21,11.36-.26-.6h-2.49a10.35,10.35,0,0,0,4,3.25C434.12,73.9,433.69,73,433.29,72.08ZM56.49,33.3c-.16.06-.51.14-.68.19-.57,1.06-1.18,2.15-1.8,3.15a9.44,9.44,0,0,0,5.28-3.54A9.24,9.24,0,0,0,56.49,33.3ZM53.93,18.69c.74,1.15,1.48,2.5,2.14,3.77h3.36A9.58,9.58,0,0,0,53.93,18.69Zm-9.38,3.67c-7.29-11.86-25,.36-16.74,11.34C35.28,44.07,51.47,33,44.55,22.36ZM36,33.89c-8.11-.29-8-12.15,0-12.45C44,21.78,44,33.67,36,33.89ZM14.61,21.15C9.82,25.5,11.39,33.35,17.11,36a21.39,21.39,0,0,1,0-16.6A9.08,9.08,0,0,0,14.61,21.15ZM477.24,62.34c-3.31-24-37.68-28.28-46.79-5.49-87.89,0-182.06,0-258.5.09-5.17-.93-10.79-9.88-16.66-14.75-8.22-6.53-19.52-24.38-29.39-23.8-19.85.14-46.22.07-67.45.07C51.57,3.94,34.08-2.07,21.17,8h0C-9.4,35.14,38.27,74.57,58.39,37.1c18.23,0,36.45,0,54.84-.06,3.58.25,7.52-.65,10.93.37,3.78,3.26,7.38,7.32,11,10.8,7.36,7.33,14.87,14.81,22.19,22.35a15.45,15.45,0,0,0,11.89,5c71.75-.09,177.93-.11,261.18-.08C442.21,102.57,481.48,90.5,477.24,62.34Zm-14.88,22.3c-11.64,6-25.19-.84-29.33-13.16-83.89,0-169.14,0-253.21.07-13.45.49-16.64.7-25.68-10-9.38-9.24-18.15-18.69-27.8-27.49a6.39,6.39,0,0,0-2.11-.88h0c-22.21,0-46.66-.62-68.42.33a47.33,47.33,0,0,1-3.3,5.39h0C41.89,56.42,14.75,47.44,15.44,27.4,17.1,2.91,47.11-.13,56.07,22.46c19.84,0,39.79.06,59.66,0,13.5-.58,14.76-.56,23.78,9.6,9.64,9.26,18.33,19.22,28.38,27.89,4.78,2.08,10.63.57,15.76,1,83.58-.38,167,.53,249.54-.4C449.38,23.73,495,63,462.36,84.64Zm-2.06-25.4a10.14,10.14,0,0,0-2.69-2.06h0c-10-5.65-20.46,9.1-11.45,16.51C455.43,82.57,469.17,68.35,460.3,59.24ZM457,70.74c-5.69,5.75-14.46-4.17-8.09-9.15C454.86,56.22,463,65.44,457,70.74ZM44.55,22.36c-7.29-11.86-25,.36-16.74,11.34C35.28,44.07,51.47,33,44.55,22.36ZM36,33.89c-8.11-.29-8-12.15,0-12.45C44,21.78,44,33.67,36,33.89ZM17.14,19.37c-7,3.13-7.08,13.48,0,16.6A21.39,21.39,0,0,1,17.14,19.37Zm28,4.09C38.58,10.12,19.3,21.78,27.81,33.7,34.77,43.5,50.39,34.19,45.17,23.46ZM36,33.89c-8.11-.29-8-12.15,0-12.45C44,21.78,44,33.67,36,33.89ZM58.62,21.47a9.49,9.49,0,0,0-4.69-2.78c.74,1.15,1.48,2.5,2.14,3.77h3.36A9.7,9.7,0,0,0,58.62,21.47ZM57.5,33.1a8.18,8.18,0,0,0-1.69.39c-.57,1.06-1.18,2.15-1.8,3.15a9.44,9.44,0,0,0,5.28-3.54Zm376,39.38c-.12-.26-.33-.74-.44-1h-2.49a10.35,10.35,0,0,0,4,3.25C434.18,74,433.82,73.27,433.47,72.48Zm-2.06-12.63a9.07,9.07,0,0,0-.86,1,12.61,12.61,0,0,0,2.64-.32c.4-.94.82-1.91,1.28-2.78A9.5,9.5,0,0,0,431.41,59.85Zm30.14,1a10.45,10.45,0,0,0-3.94-3.67h0c-10-5.65-20.46,9.1-11.45,16.51C454.26,81.9,467.94,70.26,461.55,60.85ZM457,70.74c-5.69,5.75-14.46-4.17-8.09-9.15C454.86,56.22,463,65.44,457,70.74Zm4.52-9.89a10.45,10.45,0,0,0-3.94-3.67h0c-10-5.65-20.46,9.1-11.45,16.51C454.26,81.9,467.94,70.26,461.55,60.85ZM457,70.74c-5.69,5.75-14.46-4.17-8.09-9.15C454.86,56.22,463,65.44,457,70.74ZM45.17,23.46C38.58,10.12,19.3,21.78,27.81,33.7,34.77,43.5,50.39,34.19,45.17,23.46ZM36,33.89c-8.11-.29-8-12.15,0-12.45C44,21.78,44,33.67,36,33.89ZM17.14,19.37c-7,3.13-7.08,13.48,0,16.6A21.39,21.39,0,0,1,17.14,19.37Zm28,4.09C38.58,10.12,19.3,21.78,27.81,33.7,34.77,43.5,50.39,34.19,45.17,23.46ZM36,33.89c-8.11-.29-8-12.15,0-12.45C44,21.78,44,33.67,36,33.89ZM58.62,21.47a9.49,9.49,0,0,0-4.69-2.78c.74,1.15,1.48,2.5,2.14,3.77h3.36A9.7,9.7,0,0,0,58.62,21.47ZM57.5,33.1a8.18,8.18,0,0,0-1.69.39c-.57,1.06-1.18,2.15-1.8,3.15a9.44,9.44,0,0,0,5.28-3.54Zm376,39.38c-.12-.26-.33-.74-.44-1h-2.49a10.35,10.35,0,0,0,4,3.25C434.18,74,433.82,73.27,433.47,72.48Zm-2.06-12.63a9.07,9.07,0,0,0-.86,1,12.61,12.61,0,0,0,2.64-.32c.4-.94.82-1.91,1.28-2.78A9.5,9.5,0,0,0,431.41,59.85Zm30.14,1a10.45,10.45,0,0,0-3.94-3.67h0c-10-5.65-20.46,9.1-11.45,16.51C454.26,81.9,467.94,70.26,461.55,60.85ZM457,70.74c-5.69,5.75-14.46-4.17-8.09-9.15C454.86,56.22,463,65.44,457,70.74Zm4.52-9.89a10.45,10.45,0,0,0-3.94-3.67h0c-10-5.65-20.46,9.1-11.45,16.51C454.26,81.9,467.94,70.26,461.55,60.85ZM457,70.74c-5.69,5.75-14.46-4.17-8.09-9.15C454.86,56.22,463,65.44,457,70.74ZM45.17,23.46C38.58,10.12,19.3,21.78,27.81,33.7,34.77,43.5,50.39,34.19,45.17,23.46ZM36,33.89c-8.11-.29-8-12.15,0-12.45C44,21.78,44,33.67,36,33.89ZM17.14,19.37c-7,3.13-7.08,13.48,0,16.6A21.39,21.39,0,0,1,17.14,19.37Zm28,4.09C38.58,10.12,19.3,21.78,27.81,33.7,34.77,43.5,50.39,34.19,45.17,23.46ZM36,33.89c-8.11-.29-8-12.15,0-12.45C44,21.78,44,33.67,36,33.89ZM58.62,21.47a9.49,9.49,0,0,0-4.69-2.78c.74,1.15,1.48,2.5,2.14,3.77h3.36A9.7,9.7,0,0,0,58.62,21.47ZM57.5,33.1a8.18,8.18,0,0,0-1.69.39c-.57,1.06-1.18,2.15-1.8,3.15a9.44,9.44,0,0,0,5.28-3.54Zm376,39.38c-.12-.26-.33-.74-.44-1h-2.49a10.35,10.35,0,0,0,4,3.25C434.18,74,433.82,73.27,433.47,72.48Zm-2.06-12.63a9.07,9.07,0,0,0-.86,1,12.61,12.61,0,0,0,2.64-.32c.4-.94.82-1.91,1.28-2.78A9.5,9.5,0,0,0,431.41,59.85Zm30.14,1a10.45,10.45,0,0,0-3.94-3.67h0c-10-5.65-20.46,9.1-11.45,16.51C454.26,81.9,467.94,70.26,461.55,60.85ZM457,70.74c-5.69,5.75-14.46-4.17-8.09-9.15C454.86,56.22,463,65.44,457,70.74Zm4.52-9.89a10.45,10.45,0,0,0-3.94-3.67h0c-10-5.65-20.46,9.1-11.45,16.51C454.26,81.9,467.94,70.26,461.55,60.85ZM457,70.74c-5.69,5.75-14.46-4.17-8.09-9.15C454.86,56.22,463,65.44,457,70.74ZM45.17,23.46C38.58,10.12,19.3,21.78,27.81,33.7,34.77,43.5,50.39,34.19,45.17,23.46ZM36,33.89c-8.11-.29-8-12.15,0-12.45C44,21.78,44,33.67,36,33.89ZM17.14,19.37c-7,3.13-7.08,13.48,0,16.6A21.39,21.39,0,0,1,17.14,19.37Zm28,4.09C38.58,10.12,19.3,21.78,27.81,33.7,34.77,43.5,50.39,34.19,45.17,23.46ZM36,33.89c-8.11-.29-8-12.15,0-12.45C44,21.78,44,33.67,36,33.89ZM58.62,21.47a9.49,9.49,0,0,0-4.69-2.78c.74,1.15,1.48,2.5,2.14,3.77h3.36A9.7,9.7,0,0,0,58.62,21.47ZM57.5,33.1a8.18,8.18,0,0,0-1.69.39c-.57,1.06-1.18,2.15-1.8,3.15a9.44,9.44,0,0,0,5.28-3.54Zm376,39.38c-.12-.26-.33-.74-.44-1h-2.49a10.35,10.35,0,0,0,4,3.25C434.18,74,433.82,73.27,433.47,72.48Zm-2.06-12.63a9.07,9.07,0,0,0-.86,1,12.61,12.61,0,0,0,2.64-.32c.06-.13.24-.57.29-.68Zm30.14,1a10.45,10.45,0,0,0-3.94-3.67h0c-10-5.65-20.46,9.1-11.45,16.51C454.26,81.9,467.94,70.26,461.55,60.85ZM457,70.74c-5.69,5.75-14.46-4.17-8.09-9.15C454.86,56.22,463,65.44,457,70.74Zm4.52-9.89a10.45,10.45,0,0,0-3.94-3.67h0c-10-5.65-20.46,9.1-11.45,16.51C454.26,81.9,467.94,70.26,461.55,60.85ZM457,70.74c-5.69,5.75-14.46-4.17-8.09-9.15C454.86,56.22,463,65.44,457,70.74ZM45.17,23.46C38.58,10.12,19.3,21.78,27.81,33.7,34.77,43.5,50.39,34.19,45.17,23.46ZM36,33.89c-8.11-.29-8-12.15,0-12.45C44,21.78,44,33.67,36,33.89ZM17.14,19.37c-7,3.13-7.08,13.48,0,16.6A21.39,21.39,0,0,1,17.14,19.37Zm28,4.09C38.58,10.12,19.3,21.78,27.81,33.7,34.77,43.5,50.39,34.19,45.17,23.46ZM36,33.89c-8.11-.29-8-12.15,0-12.45C44,21.78,44,33.67,36,33.89ZM58.62,21.47a9.49,9.49,0,0,0-4.69-2.78c.74,1.15,1.48,2.5,2.14,3.77h3.36A9.7,9.7,0,0,0,58.62,21.47ZM57.5,33.1a8.18,8.18,0,0,0-1.69.39c-.57,1.06-1.18,2.15-1.8,3.15a9.44,9.44,0,0,0,5.28-3.54ZM461.55,60.85a10.45,10.45,0,0,0-3.94-3.67h0c-10-5.65-20.46,9.1-11.45,16.51C454.26,81.9,467.94,70.26,461.55,60.85ZM457,70.74c-5.69,5.75-14.46-4.17-8.09-9.15C454.86,56.22,463,65.44,457,70.74Zm4.52-9.89a10.45,10.45,0,0,0-3.94-3.67h0c-10-5.65-20.46,9.1-11.45,16.51C454.26,81.9,467.94,70.26,461.55,60.85ZM457,70.74c-5.69,5.75-14.46-4.17-8.09-9.15C454.86,56.22,463,65.44,457,70.74ZM45.17,23.46C38.58,10.12,19.3,21.78,27.81,33.7,34.77,43.5,50.39,34.19,45.17,23.46ZM36,33.89c-8.11-.29-8-12.15,0-12.45C44,21.78,44,33.67,36,33.89ZM17.14,19.37c-7,3.13-7.08,13.48,0,16.6A21.39,21.39,0,0,1,17.14,19.37Zm28,4.09C38.58,10.12,19.3,21.78,27.81,33.7,34.77,43.5,50.39,34.19,45.17,23.46ZM36,33.89c-8.11-.29-8-12.15,0-12.45C44,21.78,44,33.67,36,33.89ZM58.62,21.47a9.49,9.49,0,0,0-4.69-2.78c.74,1.15,1.48,2.5,2.14,3.77h3.36A9.7,9.7,0,0,0,58.62,21.47ZM57.5,33.1a8.18,8.18,0,0,0-1.69.39c-.57,1.06-1.18,2.15-1.8,3.15a9.44,9.44,0,0,0,5.28-3.54ZM461.55,60.85a10.45,10.45,0,0,0-3.94-3.67h0c-10-5.65-20.46,9.1-11.45,16.51C454.26,81.9,467.94,70.26,461.55,60.85ZM457,70.74c-5.69,5.75-14.46-4.17-8.09-9.15C454.86,56.22,463,65.44,457,70.74Zm4.52-9.89a10.45,10.45,0,0,0-3.94-3.67h0c-10-5.65-20.46,9.1-11.45,16.51C454.26,81.9,467.94,70.26,461.55,60.85ZM457,70.74c-5.69,5.75-14.46-4.17-8.09-9.15C454.86,56.22,463,65.44,457,70.74ZM45.17,23.46C38.58,10.12,19.3,21.78,27.81,33.7,34.77,43.5,50.39,34.19,45.17,23.46ZM36,33.89c-8.11-.29-8-12.15,0-12.45C44,21.78,44,33.67,36,33.89ZM17.14,19.37c-7,3.13-7.08,13.48,0,16.6A21.39,21.39,0,0,1,17.14,19.37Zm28,4.09C38.58,10.12,19.3,21.78,27.81,33.7,34.77,43.5,50.39,34.19,45.17,23.46ZM36,33.89c-8.11-.29-8-12.15,0-12.45C44,21.78,44,33.67,36,33.89ZM58.62,21.47a9.49,9.49,0,0,0-4.69-2.78c.74,1.15,1.48,2.5,2.14,3.77h3.36A9.7,9.7,0,0,0,58.62,21.47ZM57.5,33.1a8.18,8.18,0,0,0-1.69.39c-.57,1.06-1.18,2.15-1.8,3.15a9.44,9.44,0,0,0,5.28-3.54ZM461.55,60.85a10.45,10.45,0,0,0-3.94-3.67h0c-10-5.65-20.46,9.1-11.45,16.51C454.26,81.9,467.94,70.26,461.55,60.85ZM457,70.74c-5.69,5.75-14.46-4.17-8.09-9.15C454.86,56.22,463,65.44,457,70.74Zm4.52-9.89a10.45,10.45,0,0,0-3.94-3.67h0c-10-5.65-20.46,9.1-11.45,16.51C454.26,81.9,467.94,70.26,461.55,60.85ZM457,70.74c-5.69,5.75-14.46-4.17-8.09-9.15C454.86,56.22,463,65.44,457,70.74ZM45.17,23.46C38.58,10.12,19.3,21.78,27.81,33.7,34.77,43.5,50.39,34.19,45.17,23.46ZM36,33.89c-8.11-.29-8-12.15,0-12.45C44,21.78,44,33.67,36,33.89ZM17.14,19.37c-7,3.13-7.08,13.48,0,16.6A21.39,21.39,0,0,1,17.14,19.37Zm28,4.09C38.58,10.12,19.3,21.78,27.81,33.7,34.77,43.5,50.39,34.19,45.17,23.46ZM36,33.89c-8.11-.29-8-12.15,0-12.45C44,21.78,44,33.67,36,33.89ZM58.62,21.47a9.49,9.49,0,0,0-4.69-2.78c.74,1.15,1.48,2.5,2.14,3.77h3.36A9.7,9.7,0,0,0,58.62,21.47ZM57.5,33.1a8.18,8.18,0,0,0-1.69.39c-.57,1.06-1.18,2.15-1.8,3.15a9.44,9.44,0,0,0,5.28-3.54ZM461.55,60.85a10.45,10.45,0,0,0-3.94-3.67h0c-10-5.65-20.46,9.1-11.45,16.51C454.26,81.9,467.94,70.26,461.55,60.85ZM457,70.74c-5.69,5.75-14.46-4.17-8.09-9.15C454.86,56.22,463,65.44,457,70.74Zm4.52-9.89a10.45,10.45,0,0,0-3.94-3.67h0c-10-5.65-20.46,9.1-11.45,16.51C454.26,81.9,467.94,70.26,461.55,60.85ZM457,70.74c-5.69,5.75-14.46-4.17-8.09-9.15C454.86,56.22,463,65.44,457,70.74ZM45.17,23.46C38.58,10.12,19.3,21.78,27.81,33.7,34.77,43.5,50.39,34.19,45.17,23.46ZM36,33.89c-8.11-.29-8-12.15,0-12.45C44,21.78,44,33.67,36,33.89ZM17.14,19.37c-7,3.13-7.08,13.48,0,16.6A21.39,21.39,0,0,1,17.14,19.37Zm28,4.09C38.58,10.12,19.3,21.78,27.81,33.7,34.77,43.5,50.39,34.19,45.17,23.46ZM36,33.89c-8.11-.29-8-12.15,0-12.45C44,21.78,44,33.67,36,33.89ZM58.62,21.47a9.49,9.49,0,0,0-4.69-2.78c.74,1.15,1.48,2.5,2.14,3.77h3.36A9.7,9.7,0,0,0,58.62,21.47ZM57.5,33.1a8.18,8.18,0,0,0-1.69.39c-.57,1.06-1.18,2.15-1.8,3.15a9.44,9.44,0,0,0,5.28-3.54ZM461.55,60.85a10.45,10.45,0,0,0-3.94-3.67h0c-10-5.65-20.46,9.1-11.45,16.51C454.26,81.9,467.94,70.26,461.55,60.85ZM457,70.74c-5.69,5.75-14.46-4.17-8.09-9.15C454.86,56.22,463,65.44,457,70.74Zm4.52-9.89a10.45,10.45,0,0,0-3.94-3.67h0c-10-5.65-20.46,9.1-11.45,16.51C454.26,81.9,467.94,70.26,461.55,60.85ZM457,70.74c-5.69,5.75-14.46-4.17-8.09-9.15C454.86,56.22,463,65.44,457,70.74ZM45.17,23.46C38.58,10.12,19.3,21.78,27.81,33.7,34.77,43.5,50.39,34.19,45.17,23.46ZM36,33.89c-8.11-.29-8-12.15,0-12.45C44,21.78,44,33.67,36,33.89ZM17.14,19.37c-7,3.13-7.08,13.48,0,16.6A21.39,21.39,0,0,1,17.14,19.37Zm28,4.09C38.58,10.12,19.3,21.78,27.81,33.7,34.77,43.5,50.39,34.19,45.17,23.46ZM36,33.89c-8.11-.29-8-12.15,0-12.45C44,21.78,44,33.67,36,33.89ZM58.62,21.47a9.49,9.49,0,0,0-4.69-2.78c.74,1.15,1.48,2.5,2.14,3.77h3.36A9.7,9.7,0,0,0,58.62,21.47ZM57.5,33.1a8.18,8.18,0,0,0-1.69.39c-.57,1.06-1.18,2.15-1.8,3.15a9.44,9.44,0,0,0,5.28-3.54ZM461.55,60.85a10.45,10.45,0,0,0-3.94-3.67h0c-10-5.65-20.46,9.1-11.45,16.51C454.26,81.9,467.94,70.26,461.55,60.85ZM457,70.74c-5.69,5.75-14.46-4.17-8.09-9.15C454.86,56.22,463,65.44,457,70.74Zm4.52-9.89a10.45,10.45,0,0,0-3.94-3.67h0c-10-5.65-20.46,9.1-11.45,16.51C454.26,81.9,467.94,70.26,461.55,60.85ZM457,70.74c-5.69,5.75-14.46-4.17-8.09-9.15C454.86,56.22,463,65.44,457,70.74ZM45.17,23.46C38.58,10.12,19.3,21.78,27.81,33.7,34.77,43.5,50.39,34.19,45.17,23.46ZM36,33.89c-8.11-.29-8-12.15,0-12.45C44,21.78,44,33.67,36,33.89Z"/></svg>